<svg width="16" height="16" viewBox="0 0 16 16" fill="none" xmlns="http://www.w3.org/2000/svg">
<g id="fi-rr-angle-small-right">
<path id="Vector" d="M10.2665 6.58669L7.20654 3.52669C7.08163 3.40252 6.91266 3.33282 6.73653 3.33282C6.56041 3.33282 6.39144 3.40252 6.26653 3.52669C6.20405 3.58866 6.15445 3.6624 6.12061 3.74364C6.08676 3.82487 6.06934 3.91201 6.06934 4.00002C6.06934 4.08803 6.08676 4.17516 6.12061 4.2564C6.15445 4.33764 6.20405 4.41138 6.26653 4.47335L9.3332 7.52669C9.39569 7.58866 9.44528 7.6624 9.47913 7.74364C9.51298 7.82488 9.5304 7.91201 9.5304 8.00002C9.5304 8.08803 9.51298 8.17517 9.47913 8.25641C9.44528 8.33764 9.39569 8.41138 9.3332 8.47335L6.26653 11.5267C6.141 11.6513 6.07012 11.8208 6.0695 11.9977C6.06887 12.1746 6.13855 12.3445 6.2632 12.47C6.38785 12.5956 6.55727 12.6664 6.73418 12.6671C6.91109 12.6677 7.081 12.598 7.20654 12.4734L10.2665 9.41335C10.6411 9.03835 10.8514 8.53002 10.8514 8.00002C10.8514 7.47002 10.6411 6.96169 10.2665 6.58669Z" fill="#66696B"/>
</g>
</svg>
