<svg width="16" height="16" viewBox="0 0 16 16" fill="none" xmlns="http://www.w3.org/2000/svg">
<g clip-path="url(#clip0_6762_29305)">
<path d="M14.8794 2.95407L5.66675 12.1661C5.60481 12.2283 5.5312 12.2776 5.45014 12.3113C5.36909 12.3449 5.28218 12.3623 5.19441 12.3623C5.10665 12.3623 5.01974 12.3449 4.93868 12.3113C4.85763 12.2776 4.78402 12.2283 4.72208 12.1661L1.15941 8.60007C1.09747 8.53788 1.02387 8.48854 0.94281 8.45487C0.861755 8.4212 0.77485 8.40387 0.687081 8.40387C0.599312 8.40387 0.512406 8.4212 0.431351 8.45487C0.350296 8.48854 0.276687 8.53788 0.214747 8.60007C0.152563 8.66201 0.103221 8.73562 0.0695536 8.81667C0.0358858 8.89773 0.0185547 8.98463 0.0185547 9.0724C0.0185547 9.16017 0.0358858 9.24707 0.0695536 9.32813C0.103221 9.40918 0.152563 9.48279 0.214747 9.54473L3.77875 13.1081C4.15471 13.4833 4.66421 13.6941 5.19541 13.6941C5.72662 13.6941 6.23612 13.4833 6.61208 13.1081L15.8241 3.89807C15.8862 3.83614 15.9354 3.76257 15.969 3.68158C16.0026 3.60058 16.0199 3.51376 16.0199 3.42607C16.0199 3.33838 16.0026 3.25155 15.969 3.17055C15.9354 3.08956 15.8862 3.01599 15.8241 2.95407C15.7621 2.89188 15.6885 2.84254 15.6075 2.80887C15.5264 2.7752 15.4395 2.75787 15.3517 2.75787C15.264 2.75787 15.1771 2.7752 15.096 2.80887C15.015 2.84254 14.9414 2.89188 14.8794 2.95407Z" fill="#374957"/>
</g>
<defs>
<clipPath id="clip0_6762_29305">
<rect width="16" height="16" fill="white"/>
</clipPath>
</defs>
</svg>
