<svg width="16" height="16" viewBox="0 0 16 16" fill="none" xmlns="http://www.w3.org/2000/svg">
<g id="Checkbox">
<rect id="Rectangle 20" x="0.5" y="0.5" width="15" height="15" rx="3.5" fill="#171C8F" stroke="#CFD2D9"/>
<path id="Vector" d="M10.5359 5.83459L7.18553 9.1946L5.39033 7.32259C5.31828 7.24382 5.2312 7.18027 5.13422 7.13567C5.03723 7.09107 4.9323 7.06634 4.8256 7.06292C4.71891 7.05951 4.61261 7.07748 4.51297 7.11578C4.41333 7.15408 4.32236 7.21193 4.24543 7.28593C4.16849 7.35993 4.10714 7.44858 4.06499 7.54666C4.02285 7.64473 4.00075 7.75025 4.00002 7.857C3.99928 7.96374 4.01992 8.06956 4.06071 8.16821C4.1015 8.26686 4.16162 8.35634 4.23753 8.4314L6.08233 10.3514C6.21991 10.5 6.3862 10.6192 6.57114 10.7017C6.75609 10.7842 6.95584 10.8283 7.15833 10.8314H7.18473C7.38317 10.8321 7.57977 10.7933 7.76311 10.7173C7.94645 10.6414 8.11287 10.5298 8.25273 10.389L11.6703 6.97139C11.745 6.89691 11.8042 6.80845 11.8447 6.71107C11.8851 6.61369 11.906 6.50929 11.9061 6.40384C11.9062 6.29839 11.8856 6.19395 11.8453 6.09648C11.8051 5.99902 11.746 5.91043 11.6715 5.83579C11.597 5.76115 11.5086 5.7019 11.4112 5.66145C11.3138 5.62099 11.2094 5.60011 11.104 5.6C10.9985 5.59989 10.8941 5.62055 10.7966 5.6608C10.6992 5.70105 10.6106 5.7601 10.5359 5.83459Z" fill="white"/>
</g>
</svg>
