<svg width="17" height="16" viewBox="0 0 17 16" fill="none" xmlns="http://www.w3.org/2000/svg">
<path d="M15.5576 8C15.5576 12.1455 12.2219 15.5 8.11473 15.5C4.00753 15.5 0.671875 12.1455 0.671875 8C0.671875 3.85448 4.00753 0.5 8.11473 0.5C12.2219 0.5 15.5576 3.85448 15.5576 8Z" fill="#30C030" stroke="#30C030"/>
<path d="M6.51814 10.7873L4.17212 8.41109C4.05986 8.29742 3.90762 8.23356 3.74889 8.23356C3.59016 8.23356 3.43792 8.29742 3.32566 8.41109C3.21344 8.52479 3.15039 8.67898 3.15039 8.83976C3.15039 9.00054 3.21344 9.15473 3.32566 9.26844L5.67168 11.6446C5.78286 11.7573 5.91487 11.8467 6.06016 11.9076C6.20545 11.9686 6.36117 12 6.51844 12C6.6757 12 6.83143 11.9686 6.97672 11.9076C7.12201 11.8467 7.25401 11.7573 7.3652 11.6446L12.9037 6.03488C13.0159 5.92117 13.079 5.76698 13.079 5.6062C13.079 5.44542 13.0159 5.29123 12.9037 5.17753C12.7914 5.06386 12.6392 5 12.4805 5C12.3217 5 12.1695 5.06386 12.0572 5.17753L6.51814 10.7873Z" fill="white"/>
</svg>
