<svg width="16" height="17" viewBox="0 0 16 17" fill="none" xmlns="http://www.w3.org/2000/svg">
<path d="M10.9456 5.99766L6.86334 10.0799L5.04703 8.24558C4.72333 7.92188 4.21979 7.92188 3.89609 8.24558C3.5724 8.56928 3.5724 9.07281 3.89609 9.39651L6.28788 11.7883C6.43174 11.9322 6.64754 12.0221 6.86334 12.0221C7.07914 12.0221 7.27696 11.9322 7.43881 11.7883L12.0965 7.13061C12.4202 6.80691 12.4202 6.30338 12.0965 5.97968C11.7728 5.67396 11.2693 5.67397 10.9456 5.99766Z" fill="#58A55C"/>
<path d="M14.0742 4.59496C13.6786 4.79278 13.5167 5.27833 13.7145 5.67396C14.9554 8.13768 14.4698 11.1049 12.5096 13.0471C10.01 15.5468 5.96372 15.5288 3.46404 13.0291C0.982343 10.5474 1.00033 6.5012 3.50001 4.00152C5.9817 1.51982 10.0279 1.5378 12.5276 4.03748C12.8513 4.36118 13.3549 4.36118 13.6786 4.03748C14.0023 3.71378 14.0023 3.21025 13.6786 2.88655C10.5495 -0.242546 5.47817 -0.242546 2.34907 2.86857C-0.780021 5.97968 -0.780021 11.051 2.33109 14.1801C3.89564 15.7446 5.94574 16.5359 7.99583 16.5359C10.0459 16.5359 12.078 15.7626 13.6426 14.216C16.0883 11.7703 16.6998 8.04776 15.1532 4.95463C14.9554 4.559 14.4698 4.39715 14.0742 4.59496Z" fill="#58A55C"/>
</svg>