<svg width="71" height="71" viewBox="0 0 71 71" fill="none" xmlns="http://www.w3.org/2000/svg">
<g id="Frame 347/Done">
<circle id="Ellipse 3" cx="35.5" cy="35.5" r="35" fill="#30C030" stroke="#30C030"/>
<path id="Vector" d="M28.8895 44.1492L19.9105 34.6443C19.4808 34.1897 18.8982 33.9342 18.2907 33.9342C17.6831 33.9342 17.1005 34.1897 16.6708 34.6443C16.2413 35.0992 16 35.7159 16 36.359C16 37.0022 16.2413 37.6189 16.6708 38.0737L25.6498 47.5786C26.0754 48.0292 26.5806 48.3867 27.1367 48.6306C27.6927 48.8745 28.2887 49 28.8907 49C29.4926 49 30.0886 48.8745 30.6447 48.6306C31.2007 48.3867 31.706 48.0292 32.1315 47.5786L53.3292 25.1395C53.7587 24.6847 54 24.0679 54 23.4248C54 22.7817 53.7587 22.1649 53.3292 21.7101C52.8995 21.2554 52.3169 21 51.7093 21C51.1018 21 50.5192 21.2554 50.0895 21.7101L28.8895 44.1492Z" fill="white"/>
</g>
</svg>
