<svg width="16" height="16" viewBox="0 0 16 16" fill="none" xmlns="http://www.w3.org/2000/svg">
<g clip-path="url(#clip0_11527_27237)">
<path d="M10.6668 10.6667C10.6668 10.8435 10.5966 11.0131 10.4716 11.1381C10.3465 11.2631 10.177 11.3333 10.0002 11.3333H8.66683V12.6667C8.66683 12.8435 8.59659 13.0131 8.47157 13.1381C8.34654 13.2631 8.17697 13.3333 8.00016 13.3333C7.82335 13.3333 7.65378 13.2631 7.52876 13.1381C7.40373 13.0131 7.3335 12.8435 7.3335 12.6667V11.3333H6.00016C5.82335 11.3333 5.65378 11.2631 5.52876 11.1381C5.40373 11.0131 5.3335 10.8435 5.3335 10.6667C5.3335 10.4899 5.40373 10.3203 5.52876 10.1953C5.65378 10.0703 5.82335 10 6.00016 10H7.3335V8.66668C7.3335 8.48987 7.40373 8.3203 7.52876 8.19528C7.65378 8.07025 7.82335 8.00002 8.00016 8.00002C8.17697 8.00002 8.34654 8.07025 8.47157 8.19528C8.59659 8.3203 8.66683 8.48987 8.66683 8.66668V10H10.0002C10.177 10 10.3465 10.0703 10.4716 10.1953C10.5966 10.3203 10.6668 10.4899 10.6668 10.6667ZM14.6668 6.99002V12.6667C14.6658 13.5504 14.3142 14.3976 13.6894 15.0225C13.0645 15.6474 12.2172 15.999 11.3335 16H4.66683C3.7831 15.999 2.93587 15.6474 2.31098 15.0225C1.68608 14.3976 1.33455 13.5504 1.3335 12.6667V3.33335C1.33455 2.44962 1.68608 1.60239 2.31098 0.977495C2.93587 0.352603 3.7831 0.00107394 4.66683 1.53658e-05H7.67683C8.28991 -0.00156258 8.89722 0.118407 9.46365 0.352988C10.0301 0.587569 10.5444 0.932107 10.9768 1.36668L13.2995 3.69068C13.7343 4.12284 14.0791 4.63699 14.3138 5.20333C14.5485 5.76968 14.6685 6.37696 14.6668 6.99002ZM10.0342 2.30935C9.82435 2.10612 9.58879 1.9313 9.3335 1.78935V4.66668C9.3335 4.84349 9.40373 5.01306 9.52876 5.13809C9.65378 5.26311 9.82335 5.33335 10.0002 5.33335H12.8775C12.7355 5.07814 12.5604 4.84278 12.3568 4.63335L10.0342 2.30935ZM13.3335 6.99002C13.3335 6.88002 13.3122 6.77468 13.3022 6.66668H10.0002C9.46973 6.66668 8.96102 6.45597 8.58595 6.0809C8.21088 5.70582 8.00016 5.19711 8.00016 4.66668V1.36468C7.89216 1.35468 7.78616 1.33335 7.67683 1.33335H4.66683C4.1364 1.33335 3.62769 1.54406 3.25262 1.91914C2.87754 2.29421 2.66683 2.80292 2.66683 3.33335V12.6667C2.66683 13.1971 2.87754 13.7058 3.25262 14.0809C3.62769 14.456 4.1364 14.6667 4.66683 14.6667H11.3335C11.8639 14.6667 12.3726 14.456 12.7477 14.0809C13.1228 13.7058 13.3335 13.1971 13.3335 12.6667V6.99002Z" fill="#171C8F"/>
</g>
<defs>
<clipPath id="clip0_11527_27237">
<rect width="16" height="16" fill="white"/>
</clipPath>
</defs>
</svg>
