<svg width="12" height="12" viewBox="0 0 12 12" fill="none" xmlns="http://www.w3.org/2000/svg">
<g id="fi-rr-filter" clip-path="url(#clip0_9762_14173)">
<path id="Vector" d="M6.99975 12C6.89156 12 6.78629 11.9649 6.69975 11.9L4.69975 10.4C4.63765 10.3534 4.58725 10.293 4.55253 10.2236C4.51782 10.1542 4.49975 10.0776 4.49975 10V7.19L0.991746 3.2435C0.742606 2.96244 0.579936 2.61541 0.523286 2.24412C0.466636 1.87283 0.518418 1.49308 0.672408 1.15051C0.826397 0.807938 1.07604 0.517129 1.39134 0.313033C1.70663 0.108936 2.07416 0.000237209 2.44975 0L9.54975 0C9.9253 0.000440525 10.2927 0.10932 10.6079 0.313553C10.9231 0.517787 11.1726 0.808686 11.3264 1.15129C11.4802 1.4939 11.5318 1.87364 11.475 2.24487C11.4182 2.61611 11.2555 2.96305 11.0062 3.244L7.49975 7.19V11.5C7.49975 11.6326 7.44707 11.7598 7.3533 11.8536C7.25953 11.9473 7.13235 12 6.99975 12ZM5.49975 9.75L6.49975 10.5V7C6.49985 6.87758 6.54486 6.75945 6.62625 6.668L10.2602 2.5795C10.3814 2.44254 10.4605 2.27352 10.488 2.09273C10.5154 1.91193 10.4901 1.72705 10.4151 1.56028C10.3401 1.39351 10.2186 1.25193 10.065 1.15254C9.91154 1.05316 9.73262 1.00019 9.54975 1H2.44975C2.26697 1.00028 2.08816 1.05327 1.93475 1.15263C1.78134 1.25199 1.65985 1.3935 1.58485 1.56018C1.50985 1.72685 1.48452 1.91163 1.51191 2.09234C1.5393 2.27305 1.61823 2.44203 1.73925 2.579L5.37375 6.668C5.45495 6.75952 5.49978 6.87764 5.49975 7V9.75Z" fill="#171C8F"/>
</g>
<defs>
<clipPath id="clip0_9762_14173">
<rect width="12" height="12" fill="white"/>
</clipPath>
</defs>
</svg>
