<svg width="12" height="12" viewBox="0 0 12 12" fill="none" xmlns="http://www.w3.org/2000/svg">
<g id="fi-rr-filter" clip-path="url(#clip0_9762_4485)">
<path id="Vector" d="M7.00072 12C6.89254 12 6.78727 11.9649 6.70072 11.9L4.70072 10.4C4.63862 10.3534 4.58822 10.293 4.55351 10.2236C4.5188 10.1542 4.50072 10.0776 4.50072 10V7.19L0.992723 3.2435C0.743583 2.96244 0.580912 2.61541 0.524263 2.24412C0.467613 1.87283 0.519395 1.49308 0.673384 1.15051C0.827374 0.807938 1.07702 0.517129 1.39231 0.313033C1.70761 0.108936 2.07514 0.000237209 2.45072 0L9.55072 0C9.92628 0.000440525 10.2937 0.10932 10.6089 0.313553C10.924 0.517787 11.1735 0.808686 11.3274 1.15129C11.4812 1.4939 11.5328 1.87364 11.476 2.24487C11.4192 2.61611 11.2564 2.96305 11.0072 3.244L7.50072 7.19V11.5C7.50072 11.6326 7.44804 11.7598 7.35428 11.8536C7.26051 11.9473 7.13333 12 7.00072 12ZM5.50072 9.75L6.50072 10.5V7C6.50082 6.87758 6.54583 6.75945 6.62722 6.668L10.2612 2.5795C10.3824 2.44254 10.4615 2.27352 10.4889 2.09273C10.5164 1.91193 10.4911 1.72705 10.4161 1.56028C10.3411 1.39351 10.2195 1.25193 10.066 1.15254C9.91252 1.05316 9.73359 1.00019 9.55072 1H2.45072C2.26795 1.00028 2.08913 1.05327 1.93572 1.15263C1.78232 1.25199 1.66083 1.3935 1.58583 1.56018C1.51083 1.72685 1.4855 1.91163 1.51289 2.09234C1.54027 2.27305 1.61921 2.44203 1.74022 2.579L5.37472 6.668C5.45593 6.75952 5.50076 6.87764 5.50072 7V9.75Z" fill="#9EA1A7"/>
</g>
<defs>
<clipPath id="clip0_9762_4485">
<rect width="12" height="12" fill="white"/>
</clipPath>
</defs>
</svg>
