<svg width="16" height="16" viewBox="0 0 16 16" fill="none" xmlns="http://www.w3.org/2000/svg">
<g clip-path="url(#clip0_6398_38489)">
<path d="M14.3333 16.0013H1.66667C1.4478 16.0013 1.23107 15.9582 1.02886 15.8744C0.826652 15.7907 0.64292 15.6679 0.488155 15.5131C0.333391 15.3584 0.210625 15.1747 0.126867 14.9724C0.0431096 14.7702 0 14.5535 0 14.3346C0 13.8926 0.175595 13.4687 0.488155 13.1561C0.800716 12.8436 1.22464 12.668 1.66667 12.668H14.3333C14.5522 12.668 14.7689 12.7111 14.9711 12.7948C15.1733 12.8786 15.3571 13.0014 15.5118 13.1561C15.6666 13.3109 15.7894 13.4946 15.8731 13.6968C15.9569 13.899 16 14.1158 16 14.3346C16 14.5535 15.9569 14.7702 15.8731 14.9724C15.7894 15.1747 15.6666 15.3584 15.5118 15.5131C15.3571 15.6679 15.1733 15.7907 14.9711 15.8744C14.7689 15.9582 14.5522 16.0013 14.3333 16.0013ZM16 9.33463C16 8.98101 15.8595 8.64187 15.6095 8.39183C15.3594 8.14178 15.0203 8.0013 14.6667 8.0013H1.33333C0.979711 8.0013 0.640573 8.14178 0.390524 8.39183C0.140476 8.64187 0 8.98101 0 9.33463C0 9.68826 0.140476 10.0274 0.390524 10.2774C0.640573 10.5275 0.979711 10.668 1.33333 10.668H14.6667C15.0203 10.668 15.3594 10.5275 15.6095 10.2774C15.8595 10.0274 16 9.68826 16 9.33463ZM16 5.0013C16 4.73609 15.8946 4.48173 15.7071 4.29419C15.5196 4.10666 15.2652 4.0013 15 4.0013H1C0.734784 4.0013 0.48043 4.10666 0.292893 4.29419C0.105357 4.48173 0 4.73609 0 5.0013C0 5.26652 0.105357 5.52087 0.292893 5.70841C0.48043 5.89595 0.734784 6.0013 1 6.0013H15C15.2652 6.0013 15.5196 5.89595 15.7071 5.70841C15.8946 5.52087 16 5.26652 16 5.0013ZM16 1.33464C16 1.15782 15.9298 0.988255 15.8047 0.863231C15.6797 0.738207 15.5101 0.667969 15.3333 0.667969H0.666667C0.489856 0.667969 0.320286 0.738207 0.195262 0.863231C0.0702379 0.988255 0 1.15782 0 1.33464C0 1.51145 0.0702379 1.68102 0.195262 1.80604C0.320286 1.93106 0.489856 2.0013 0.666667 2.0013H15.3333C15.5101 2.0013 15.6797 1.93106 15.8047 1.80604C15.9298 1.68102 16 1.51145 16 1.33464Z" fill="#4E5054"/>
</g>
<defs>
<clipPath id="clip0_6398_38489">
<rect width="16" height="16" fill="white"/>
</clipPath>
</defs>
</svg>
