<svg width="11" height="12" viewBox="0 0 11 12" fill="none" xmlns="http://www.w3.org/2000/svg">
<g id="New Window">
<path id="New Window_2" fill-rule="evenodd" clip-rule="evenodd" d="M9.04589 1.6L5.02755 5.61834C4.79167 5.85423 4.79132 6.23764 5.02759 6.4739C5.26338 6.70969 5.64691 6.71019 5.88315 6.47394L9.9 2.45709V3.80044C9.9 4.10331 10.1462 4.35 10.45 4.35C10.7531 4.35 11 4.10395 11 3.80044V1.04957C11 0.898201 10.9385 0.760868 10.8391 0.661347C10.7395 0.561656 10.6021 0.5 10.4504 0.5H7.69957C7.39669 0.5 7.15 0.746243 7.15 1.05C7.15 1.35314 7.39605 1.6 7.69957 1.6H9.04589ZM11 7.1V4.48546V10.1291C11 10.8862 10.4545 11.5 9.78078 11.5H1.21922C0.545864 11.5 0 10.885 0 10.1291V1.87092C0 1.11378 0.545492 0.5 1.21922 0.5H7.09039H4.4C4.70376 0.5 4.95 0.746243 4.95 1.05C4.95 1.35376 4.70376 1.6 4.4 1.6H1.4132C1.23823 1.6 1.1 1.76428 1.1 1.96692V10.0331C1.1 10.2321 1.24022 10.4 1.4132 10.4H9.5868C9.76177 10.4 9.9 10.2357 9.9 10.0331V7.1C9.9 6.79624 10.1462 6.55 10.45 6.55C10.7538 6.55 11 6.79624 11 7.1Z" fill="#374957"/>
</g>
</svg>
