<svg width="186" height="20" viewBox="0 0 186 20" fill="none" xmlns="http://www.w3.org/2000/svg">
<g clip-path="url(#clip0_7860_61447)">
<path d="M10.1721 0C7.16731 2.54215 3.76191 4.59599 0.0868 6.08258L13.144 15.1903L12.4 15.5287L6.98533 12.0403C5.24107 10.8761 0.872133 11.7019 0 13.148L10.044 19.996C12.9827 17.3057 16.4193 15.1842 20.1707 13.7442L6.98533 4.80564L7.68387 4.25378L11.9619 7.25076C14.1029 8.74119 15.8059 9.12387 20.3897 6.91239L10.1721 0Z" fill="#9D9FA1"/>
<path fill-rule="evenodd" clip-rule="evenodd" d="M116.358 10.7231C114.394 10.425 113.563 9.31722 113.563 7.90332C113.563 5.30916 116.184 4.6284 119.503 4.6284C124.087 4.6284 125.963 5.77644 126.096 7.90332H121.38C121.376 7.7238 121.315 7.54984 121.205 7.40551C121.096 7.26117 120.943 7.1536 120.768 7.09768C120.368 6.93512 119.936 6.86216 119.503 6.88419C118.263 6.88419 117.887 7.18228 117.887 7.60524C117.887 7.90332 118.019 8.07654 118.412 8.11682L123.256 8.79758C125.323 9.09567 126.563 10.0342 126.563 11.6939C126.563 14.1108 124.496 15.2669 119.949 15.2669C116.849 15.2669 113.444 14.8399 113.402 11.9033H118.292C118.281 12.0527 118.317 12.2017 118.394 12.3311C118.472 12.4604 118.587 12.564 118.726 12.6284C119.172 12.7902 119.647 12.8629 120.123 12.8419C121.392 12.8419 121.739 12.4995 121.739 12.0363C121.739 11.7382 121.566 11.4401 120.999 11.3555L116.324 10.719L116.358 10.7231ZM66.9601 7.48842H64.1412H64.1122V9.36153H67.0056C67.7909 9.36153 68.1381 9.06344 68.1381 8.42296C68.1381 7.6576 67.6173 7.48842 66.9601 7.48842ZM69.9196 11.8711L73.3668 14.9768H68.2084L64.8025 11.9114H64.104V14.9768H60.0409V4.96677H68.5556C69.3918 4.92212 70.2277 5.05974 71.0025 5.36959C71.4377 5.61183 71.7974 5.96449 72.0434 6.39006C72.2894 6.81563 72.4125 7.29821 72.3996 7.78651C72.3996 7.86934 72.4024 7.96623 72.4055 8.07433C72.4375 9.18574 72.5037 11.482 69.9196 11.8711ZM36.328 4.97885H30.6074V14.9768H34.3192V7.83082L36.5016 14.9768H39.5561L41.6972 7.83082H41.7426V14.9768H45.4089V4.97885H39.7338L38.0309 10.8077L36.328 4.97885ZM52.8138 8.05106L51.5924 11.4038H54.0352L52.8138 8.05106ZM55.2214 4.97885H50.2614L45.8801 14.9768H50.2325L50.6458 13.8288H54.8825L55.3206 14.9768H59.5862L55.2214 4.97885ZM73.6148 4.97885H77.6737V11.0211C77.6737 12.2941 78.4177 12.721 79.7693 12.721C81.1209 12.721 81.8649 12.3182 81.8649 11.0211V4.97885H85.928V11.1903C85.928 14.3807 83.9605 15.3071 79.7734 15.3071C75.5864 15.3071 73.6148 14.3404 73.6148 11.1903V4.97885ZM86.7133 7.48842H90.4664V14.9768H94.5294V7.48842H98.2825V4.97885H86.7133V7.48842ZM103.172 4.97885H99.1133V14.9768H103.172V4.97885ZM131.729 4.97885H127.666V11.1903C127.666 14.3404 129.634 15.3192 133.825 15.3192C138.016 15.3192 139.98 14.3807 139.98 11.1903V4.97885H135.921V11.0211C135.921 12.3182 135.181 12.721 133.825 12.721C132.469 12.721 131.729 12.2941 131.729 11.0211V4.97885ZM141.029 12.85L147.184 7.48842H141.463V4.97885H152.644V7.15005L146.659 12.4673H152.512V14.9768H141.029V12.85ZM157.794 4.97885H153.735V11.1782C153.735 14.3283 155.686 15.3071 159.89 15.3071C164.093 15.3071 166.044 14.3807 166.044 11.1903V4.97885H161.985V11.0211C161.985 12.3182 161.241 12.721 159.89 12.721C158.538 12.721 157.794 12.2941 157.794 11.0211V4.97885ZM186 4.97885H181.941V14.9768H186V4.97885ZM171.724 14.9768H167.793V4.97885H171.724V8.42296L176.134 4.97885H181.065L175.129 9.87311L180.759 14.9768H175.609L171.637 11.4038L171.724 14.9768Z" fill="#171C8F"/>
</g>
<defs>
<clipPath id="clip0_7860_61447">
<rect width="186" height="20" fill="white"/>
</clipPath>
</defs>
</svg>
