<svg width="17" height="16" viewBox="0 0 17 16" fill="none" xmlns="http://www.w3.org/2000/svg">
<path id="Vector" d="M16.8133 14.8767L12.834 10.8974C13.9184 9.57114 14.4516 7.87881 14.3232 6.17045C14.1948 4.4621 13.4148 2.86843 12.1444 1.71909C10.8739 0.569754 9.21037 -0.0473246 7.49774 -0.0045034C5.7851 0.0383178 4.15445 0.737763 2.94305 1.94916C1.73166 3.16055 1.03221 4.79121 0.989393 6.50384C0.946572 8.21648 1.56365 9.88005 2.71299 11.1505C3.86233 12.4209 5.456 13.201 7.16435 13.3293C8.8727 13.4577 10.565 12.9245 11.8913 11.8401L15.8706 15.8194C15.9964 15.9409 16.1648 16.0081 16.3396 16.0065C16.5144 16.005 16.6816 15.9349 16.8052 15.8113C16.9288 15.6877 16.9989 15.5205 17.0004 15.3457C17.0019 15.1709 16.9348 15.0025 16.8133 14.8767ZM7.67531 12.0147C6.62048 12.0147 5.58933 11.702 4.71227 11.1159C3.83521 10.5299 3.15162 9.69693 2.74795 8.72239C2.34429 7.74785 2.23867 6.6755 2.44446 5.64093C2.65024 4.60637 3.15819 3.65606 3.90407 2.91018C4.64995 2.1643 5.60026 1.65635 6.63483 1.45056C7.66939 1.24477 8.74175 1.35039 9.71629 1.75406C10.6908 2.15772 11.5238 2.84131 12.1098 3.71837C12.6958 4.59543 13.0086 5.62658 13.0086 6.68141C13.0071 8.09541 12.4446 9.45105 11.4448 10.4509C10.4449 11.4507 9.08931 12.0132 7.67531 12.0147Z" fill="#171C8F"/>
</svg>
