<svg width="28" height="18" viewBox="0 0 28 18" fill="none" xmlns="http://www.w3.org/2000/svg">
<path d="M27.5 9C27.5 11.2575 26.0759 13.3704 23.6291 14.9434C21.1877 16.5129 17.7846 17.5 14 17.5C10.2154 17.5 6.81235 16.5129 4.37088 14.9434C1.92407 13.3704 0.5 11.2575 0.5 9C0.5 6.74252 1.92407 4.62958 4.37088 3.05663C6.81235 1.48712 10.2154 0.5 14 0.5C17.7846 0.5 21.1877 1.48712 23.6291 3.05663C26.0759 4.62958 27.5 6.74252 27.5 9Z" fill="white" stroke="#374957"/>
<path d="M11.5059 5.96973L9.47949 12H8.05859L10.7148 4.89062H11.623L11.5059 5.96973ZM13.2002 12L11.1641 5.96973L11.042 4.89062H11.9551L14.626 12H13.2002ZM13.1074 9.3584V10.418H9.29395V9.3584H13.1074ZM15.1084 4.89062H17.6914C18.2318 4.89062 18.6956 4.97201 19.083 5.13477C19.4704 5.29753 19.7682 5.53841 19.9766 5.85742C20.1849 6.17643 20.2891 6.56868 20.2891 7.03418C20.2891 7.40202 20.224 7.72103 20.0938 7.99121C19.9635 8.26139 19.7796 8.48763 19.542 8.66992C19.3076 8.85221 19.0309 8.99544 18.7119 9.09961L18.292 9.31445H16.0117L16.002 8.25488H17.7061C17.9827 8.25488 18.2122 8.20605 18.3945 8.1084C18.5768 8.01074 18.7135 7.87565 18.8047 7.70312C18.8991 7.5306 18.9463 7.33366 18.9463 7.1123C18.9463 6.87467 18.9007 6.6696 18.8096 6.49707C18.7184 6.32129 18.5801 6.1862 18.3945 6.0918C18.209 5.9974 17.9746 5.9502 17.6914 5.9502H16.4512V12H15.1084V4.89062ZM19.1221 12L17.4766 8.81641L18.8975 8.81152L20.5625 11.9316V12H19.1221Z" fill="black"/>
</svg>
