<svg width="28" height="18" viewBox="0 0 28 18" fill="none" xmlns="http://www.w3.org/2000/svg">
<path d="M27.5 9C27.5 11.2575 26.0759 13.3704 23.6291 14.9434C21.1877 16.5129 17.7846 17.5 14 17.5C10.2154 17.5 6.81235 16.5129 4.37088 14.9434C1.92407 13.3704 0.5 11.2575 0.5 9C0.5 6.74252 1.92407 4.62958 4.37088 3.05663C6.81235 1.48712 10.2154 0.5 14 0.5C17.7846 0.5 21.1877 1.48712 23.6291 3.05663C26.0759 4.62958 27.5 6.74252 27.5 9Z" fill="white" stroke="#374957"/>
<path d="M5.50586 5.96973L3.47949 12H2.05859L4.71484 4.89062H5.62305L5.50586 5.96973ZM7.2002 12L5.16406 5.96973L5.04199 4.89062H5.95508L8.62598 12H7.2002ZM7.10742 9.3584V10.418H3.29395V9.3584H7.10742ZM12.0674 4.89062L9.38184 12.6104H8.40039L11.0859 4.89062H12.0674ZM15.4941 5.96973L13.4678 12H12.0469L14.7031 4.89062H15.6113L15.4941 5.96973ZM17.1885 12L15.1523 5.96973L15.0303 4.89062H15.9434L18.6143 12H17.1885ZM17.0957 9.3584V10.418H13.2822V9.3584H17.0957ZM19.0967 4.89062H21.6797C22.2201 4.89062 22.6839 4.97201 23.0713 5.13477C23.4587 5.29753 23.7565 5.53841 23.9648 5.85742C24.1732 6.17643 24.2773 6.56868 24.2773 7.03418C24.2773 7.40202 24.2122 7.72103 24.082 7.99121C23.9518 8.26139 23.7679 8.48763 23.5303 8.66992C23.2959 8.85221 23.0192 8.99544 22.7002 9.09961L22.2803 9.31445H20L19.9902 8.25488H21.6943C21.971 8.25488 22.2005 8.20605 22.3828 8.1084C22.5651 8.01074 22.7018 7.87565 22.793 7.70312C22.8874 7.5306 22.9346 7.33366 22.9346 7.1123C22.9346 6.87467 22.889 6.6696 22.7979 6.49707C22.7067 6.32129 22.5684 6.1862 22.3828 6.0918C22.1973 5.9974 21.9629 5.9502 21.6797 5.9502H20.4395V12H19.0967V4.89062ZM23.1104 12L21.4648 8.81641L22.8857 8.81152L24.5508 11.9316V12H23.1104Z" fill="black"/>
</svg>
