<svg width="28" height="18" viewBox="0 0 28 18" fill="none" xmlns="http://www.w3.org/2000/svg">
<path d="M27.5 9C27.5 11.2575 26.0759 13.3704 23.6291 14.9434C21.1877 16.5129 17.7846 17.5 14 17.5C10.2154 17.5 6.81235 16.5129 4.37088 14.9434C1.92407 13.3704 0.5 11.2575 0.5 9C0.5 6.74252 1.92407 4.62958 4.37088 3.05663C6.81235 1.48712 10.2154 0.5 14 0.5C17.7846 0.5 21.1877 1.48712 23.6291 3.05663C26.0759 4.62958 27.5 6.74252 27.5 9Z" fill="white" stroke="#374957"/>
<path d="M14.5059 5.96973L12.4795 12H11.0586L13.7148 4.89062H14.623L14.5059 5.96973ZM16.2002 12L14.1641 5.96973L14.042 4.89062H14.9551L17.626 12H16.2002ZM16.1074 9.3584V10.418H12.2939V9.3584H16.1074Z" fill="black"/>
</svg>
