<svg width="15" height="16" viewBox="0 0 15 16" fill="none" xmlns="http://www.w3.org/2000/svg">
<g clip-path="url(#clip0_3739_74686)">
<path d="M4.37472 15.5C4.29246 15.5005 4.21092 15.4847 4.13478 15.4536C4.05863 15.4225 3.98937 15.3767 3.93097 15.3187C3.87239 15.2606 3.82589 15.1915 3.79416 15.1153C3.76243 15.0392 3.74609 14.9575 3.74609 14.875C3.74609 14.7925 3.76243 14.7108 3.79416 14.6346C3.82589 14.5585 3.87239 14.4893 3.93097 14.4312L9.03722 9.32498C9.38834 8.97342 9.58557 8.49686 9.58557 7.99998C9.58557 7.50311 9.38834 7.02655 9.03722 6.67499L3.93097 1.56874C3.81328 1.45105 3.74716 1.29143 3.74716 1.12499C3.74716 0.958555 3.81328 0.798933 3.93097 0.681244C4.04866 0.563554 4.20828 0.497437 4.37472 0.497437C4.54116 0.497437 4.70078 0.563554 4.81847 0.681244L9.92472 5.78749C10.2157 6.07777 10.4466 6.42262 10.6042 6.80228C10.7617 7.18193 10.8428 7.58894 10.8428 7.99998C10.8428 8.41103 10.7617 8.81804 10.6042 9.19769C10.4466 9.57735 10.2157 9.9222 9.92472 10.2125L4.81847 15.3187C4.76007 15.3767 4.69081 15.4225 4.61466 15.4536C4.53851 15.4847 4.45697 15.5005 4.37472 15.5Z" fill="#171C8F"/>
</g>
<defs>
<clipPath id="clip0_3739_74686">
<rect width="15" height="15" fill="white" transform="translate(0 0.5)"/>
</clipPath>
</defs>
</svg>
