<svg width="14" height="12" color="black" viewBox="0 0 14 12" fill="none" xmlns="http://www.w3.org/2000/svg">
<path d="M9.92407 11.4276L7.29869 8.93344C7.2497 8.88567 7.22242 8.82257 7.22242 8.75699C7.22242 8.69142 7.2497 8.62831 7.29869 8.58054C7.32276 8.55759 7.35164 8.53932 7.38359 8.52685C7.41554 8.51437 7.44992 8.50794 7.48465 8.50794C7.51938 8.50794 7.55375 8.51437 7.5857 8.52685C7.61766 8.53932 7.64654 8.55759 7.6706 8.58054L9.88907 10.6888V0.723289C9.88703 0.695356 9.89127 0.667337 9.90152 0.640967C9.91178 0.614597 9.92783 0.59044 9.94868 0.569992C9.96954 0.549545 9.99476 0.533243 10.0228 0.522099C10.0508 0.510954 10.081 0.505203 10.1115 0.505203C10.1421 0.505203 10.1723 0.510954 10.2003 0.522099C10.2283 0.533243 10.2535 0.549545 10.2744 0.569992C10.2952 0.59044 10.3113 0.614597 10.3215 0.640967C10.3318 0.667337 10.336 0.695356 10.334 0.723289V10.6869L12.5524 8.57871C12.5764 8.55578 12.6052 8.53753 12.6371 8.52507C12.669 8.51261 12.7032 8.50618 12.7379 8.50618C12.7725 8.50618 12.8068 8.51261 12.8387 8.52507C12.8706 8.53753 12.8994 8.55578 12.9233 8.57871C12.9726 8.62638 13 8.68952 13 8.75516C13 8.8208 12.9726 8.88394 12.9233 8.93161L10.298 11.4276C10.2738 11.4509 10.2446 11.4694 10.2123 11.4818C10.1799 11.4943 10.1451 11.5005 10.11 11.5C10.0753 11.5 10.0409 11.4937 10.009 11.4812C9.97699 11.4688 9.94812 11.4505 9.92407 11.4276ZM3.66656 10.9564V1.31359L1.44809 3.41998C1.42402 3.44294 1.39514 3.4612 1.36319 3.47368C1.33124 3.48615 1.29686 3.49258 1.26213 3.49258C1.2274 3.49258 1.19303 3.48615 1.16108 3.47368C1.12912 3.4612 1.10025 3.44294 1.07618 3.41998C1.02725 3.37236 1 3.30941 1 3.24399C1 3.17857 1.02725 3.11562 1.07618 3.068L3.69955 0.57388C3.73791 0.537477 3.78804 0.513372 3.84252 0.505134C3.8734 0.498289 3.90561 0.498289 3.9365 0.505134C3.98878 0.514582 4.03661 0.538589 4.07346 0.57388L6.69884 3.06708C6.74799 3.1146 6.77539 3.17759 6.77539 3.24307C6.77539 3.30856 6.74799 3.37155 6.69884 3.41906C6.67468 3.44205 6.64572 3.46033 6.61368 3.47281C6.58165 3.4853 6.54719 3.49173 6.51238 3.49173C6.47757 3.49173 6.44312 3.4853 6.41108 3.47281C6.37904 3.46033 6.35008 3.44205 6.32592 3.41906L4.11045 1.31359V10.9564C4.1125 10.9844 4.10826 11.0124 4.09801 11.0387C4.08775 11.0651 4.0717 11.0893 4.05084 11.1097C4.02999 11.1302 4.00477 11.1465 3.97676 11.1576C3.94875 11.1688 3.91854 11.1745 3.88801 11.1745C3.85747 11.1745 3.82726 11.1688 3.79925 11.1576C3.77124 11.1465 3.74603 11.1302 3.72517 11.1097C3.70431 11.0893 3.68826 11.0651 3.67801 11.0387C3.66775 11.0124 3.66352 10.9844 3.66556 10.9564H3.66656Z" fill="#343536" stroke="#343536" stroke-width="0.5"/>
</svg>
