<svg width="227" height="60" viewBox="0 0 227 60" fill="none" xmlns="http://www.w3.org/2000/svg">
<g id="Bg" filter="url(#filter0_d_6860_7176)">
<mask id="path-1-inside-1_6860_7176" fill="white">
<path fill-rule="evenodd" clip-rule="evenodd" d="M210.152 3.01544C209.439 1.76914 208.114 1 206.679 1H6.89263C3.82134 1 1.89587 4.31793 3.41966 6.98456L14.8659 27.0154C15.5686 28.2452 15.5686 29.7548 14.8659 30.9846L3.41966 51.0154C1.89587 53.6821 3.82133 57 6.89262 57H206.679C208.114 57 209.439 56.2309 210.152 54.9846L223.866 30.9846C224.569 29.7548 224.569 28.2452 223.866 27.0154L210.152 3.01544Z"/>
</mask>
<path fill-rule="evenodd" clip-rule="evenodd" d="M210.152 3.01544C209.439 1.76914 208.114 1 206.679 1H6.89263C3.82134 1 1.89587 4.31793 3.41966 6.98456L14.8659 27.0154C15.5686 28.2452 15.5686 29.7548 14.8659 30.9846L3.41966 51.0154C1.89587 53.6821 3.82133 57 6.89262 57H206.679C208.114 57 209.439 56.2309 210.152 54.9846L223.866 30.9846C224.569 29.7548 224.569 28.2452 223.866 27.0154L210.152 3.01544Z" fill="white"/>
<path d="M14.8659 27.0154L13.9976 27.5116L14.8659 27.0154ZM14.8659 30.9846L13.9976 30.4884L14.8659 30.9846ZM223.866 30.9846L224.734 31.4807V31.4807L223.866 30.9846ZM223.866 27.0154L224.734 26.5193V26.5193L223.866 27.0154ZM210.152 3.01544L211.02 2.51931L210.152 3.01544ZM210.152 54.9846L211.02 55.4807L210.152 54.9846ZM6.89263 2H206.679V0H6.89263V2ZM15.7341 26.5193L4.2879 6.48842L2.55141 7.4807L13.9976 27.5116L15.7341 26.5193ZM15.7341 31.4807C16.6125 29.9435 16.6125 28.0565 15.7341 26.5193L13.9976 27.5116C14.5247 28.4339 14.5247 29.5661 13.9976 30.4884L15.7341 31.4807ZM4.2879 51.5116L15.7341 31.4807L13.9976 30.4884L2.55141 50.5193L4.2879 51.5116ZM206.679 56H6.89262V58H206.679V56ZM222.998 30.4884L209.283 54.4884L211.02 55.4807L224.734 31.4807L222.998 30.4884ZM222.998 27.5116C223.525 28.4339 223.525 29.5661 222.998 30.4884L224.734 31.4807C225.612 29.9435 225.612 28.0565 224.734 26.5193L222.998 27.5116ZM209.283 3.51158L222.998 27.5116L224.734 26.5193L211.02 2.51931L209.283 3.51158ZM2.55141 50.5193C0.646682 53.8526 3.05351 58 6.89262 58V56C4.58916 56 3.14506 53.5116 4.2879 51.5116L2.55141 50.5193ZM206.679 2C207.755 2 208.749 2.57686 209.283 3.51158L211.02 2.51931C210.13 0.96143 208.473 0 206.679 0V2ZM206.679 58C208.473 58 210.13 57.0386 211.02 55.4807L209.283 54.4884C208.749 55.4231 207.755 56 206.679 56V58ZM6.89263 0C3.05352 0 0.646681 4.14741 2.55141 7.4807L4.2879 6.48842C3.14506 4.48845 4.58916 2 6.89263 2V0Z" fill="#CFD2D9" mask="url(#path-1-inside-1_6860_7176)"/>
</g>
<defs>
<filter id="filter0_d_6860_7176" x="0.886719" y="0" width="225.506" height="60" filterUnits="userSpaceOnUse" color-interpolation-filters="sRGB">
<feFlood flood-opacity="0" result="BackgroundImageFix"/>
<feColorMatrix in="SourceAlpha" type="matrix" values="0 0 0 0 0 0 0 0 0 0 0 0 0 0 0 0 0 0 127 0" result="hardAlpha"/>
<feOffset dy="1"/>
<feGaussianBlur stdDeviation="1"/>
<feColorMatrix type="matrix" values="0 0 0 0 0.215686 0 0 0 0 0.254902 0 0 0 0 0.317647 0 0 0 0.08 0"/>
<feBlend mode="normal" in2="BackgroundImageFix" result="effect1_dropShadow_6860_7176"/>
<feBlend mode="normal" in="SourceGraphic" in2="effect1_dropShadow_6860_7176" result="shape"/>
</filter>
</defs>
</svg>
