<svg width="30" height="30" viewBox="0 0 30 30" fill="none" xmlns="http://www.w3.org/2000/svg">
<rect x="0.5" y="0.5" width="29" height="29" rx="3.5" fill="white"/>
<rect x="0.5" y="0.5" width="29" height="29" rx="3.5" stroke="#171C8F"/>
<g clip-path="url(#clip0_8226_4964)">
<path d="M13.5854 19.0813C13.7711 19.2672 13.9917 19.4146 14.2344 19.5152C14.4771 19.6158 14.7373 19.6676 15.0001 19.6676C15.2628 19.6676 15.523 19.6158 15.7657 19.5152C16.0085 19.4146 16.229 19.2672 16.4147 19.0813L18.5554 16.9407C18.6702 16.8137 18.7317 16.6475 18.7273 16.4764C18.723 16.3054 18.6529 16.1425 18.5318 16.0216C18.4107 15.9008 18.2477 15.8311 18.0766 15.8271C17.9055 15.823 17.7394 15.885 17.6127 16L15.6621 17.9513L15.6667 7.66667C15.6667 7.48986 15.5965 7.32029 15.4715 7.19526C15.3464 7.07024 15.1769 7 15.0001 7V7C14.8233 7 14.6537 7.07024 14.5287 7.19526C14.4036 7.32029 14.3334 7.48986 14.3334 7.66667L14.3274 17.9387L12.3874 16C12.2623 15.875 12.0927 15.8048 11.9158 15.8049C11.739 15.8049 11.5694 15.8752 11.4444 16.0003C11.3194 16.1254 11.2492 16.2951 11.2493 16.4719C11.2493 16.6487 11.3196 16.8183 11.4447 16.9433L13.5854 19.0813Z" fill="#171C8F"/>
<path d="M22.3333 17.6666C22.1565 17.6666 21.987 17.7368 21.8619 17.8618C21.7369 17.9869 21.6667 18.1564 21.6667 18.3332V20.9999C21.6667 21.1767 21.5964 21.3463 21.4714 21.4713C21.3464 21.5963 21.1768 21.6666 21 21.6666H9C8.82319 21.6666 8.65362 21.5963 8.5286 21.4713C8.40357 21.3463 8.33333 21.1767 8.33333 20.9999V18.3332C8.33333 18.1564 8.2631 17.9869 8.13807 17.8618C8.01305 17.7368 7.84348 17.6666 7.66667 17.6666C7.48986 17.6666 7.32029 17.7368 7.19526 17.8618C7.07024 17.9869 7 18.1564 7 18.3332V20.9999C7 21.5303 7.21071 22.039 7.58579 22.4141C7.96086 22.7892 8.46957 22.9999 9 22.9999H21C21.5304 22.9999 22.0391 22.7892 22.4142 22.4141C22.7893 22.039 23 21.5303 23 20.9999V18.3332C23 18.1564 22.9298 17.9869 22.8047 17.8618C22.6797 17.7368 22.5101 17.6666 22.3333 17.6666Z" fill="#171C8F"/>
</g>
<defs>
<clipPath id="clip0_8226_4964">
<rect width="16" height="16" fill="white" transform="translate(7 7)"/>
</clipPath>
</defs>
</svg>
