<svg width="13" height="16" viewBox="0 0 13 16" fill="none" xmlns="http://www.w3.org/2000/svg">
<g clip-path="url(#clip0_8226_4083)">
<path d="M12.0893 2.95401L4.60405 12.166C4.55372 12.2282 4.49392 12.2775 4.42806 12.3112C4.3622 12.3449 4.29159 12.3622 4.22028 12.3622C4.14897 12.3622 4.07835 12.3449 4.0125 12.3112C3.94664 12.2775 3.88683 12.2282 3.83651 12.166L0.941841 8.60001C0.891515 8.53782 0.831707 8.48848 0.76585 8.45481C0.699993 8.42114 0.629382 8.40381 0.55807 8.40381C0.486758 8.40381 0.416147 8.42114 0.35029 8.45481C0.284433 8.48848 0.224625 8.53782 0.174299 8.60001C0.123774 8.66194 0.0836842 8.73555 0.0563291 8.81661C0.0289741 8.89767 0.0148926 8.98457 0.0148926 9.07234C0.0148926 9.16011 0.0289741 9.24701 0.0563291 9.32807C0.0836842 9.40912 0.123774 9.48273 0.174299 9.54467L3.07005 13.108C3.37552 13.4833 3.78949 13.694 4.22109 13.694C4.65269 13.694 5.06666 13.4833 5.37213 13.108L12.8569 3.89801C12.9073 3.83608 12.9473 3.76251 12.9747 3.68152C13.002 3.60052 13.016 3.5137 13.016 3.42601C13.016 3.33832 13.002 3.25149 12.9747 3.17049C12.9473 3.0895 12.9073 3.01593 12.8569 2.95401C12.8066 2.89182 12.7467 2.84248 12.6809 2.80881C12.615 2.77514 12.5444 2.75781 12.4731 2.75781C12.4018 2.75781 12.3312 2.77514 12.2653 2.80881C12.1995 2.84248 12.1397 2.89182 12.0893 2.95401Z" fill="#58A55C"/>
</g>
<defs>
<clipPath id="clip0_8226_4083">
<rect width="13" height="16" fill="white"/>
</clipPath>
</defs>
</svg>
