<svg width="10" height="6" viewBox="0 0 10 6" fill="none" xmlns="http://www.w3.org/2000/svg">
<path d="M9.47256 0.474542C9.41058 0.412057 9.33685 0.36246 9.25561 0.328615C9.17437 0.294769 9.08723 0.277344 8.99923 0.277344C8.91122 0.277344 8.82408 0.294769 8.74284 0.328615C8.6616 0.36246 8.58787 0.412057 8.52589 0.474542L5.47256 3.52787C5.41058 3.59035 5.33685 3.63995 5.25561 3.6738C5.17437 3.70764 5.08723 3.72507 4.99923 3.72507C4.91122 3.72507 4.82408 3.70764 4.74284 3.6738C4.6616 3.63995 4.58787 3.59035 4.52589 3.52787L1.47256 0.474542C1.41058 0.412057 1.33685 0.36246 1.25561 0.328615C1.17437 0.294769 1.08723 0.277344 0.999226 0.277344C0.911218 0.277344 0.824081 0.294769 0.742842 0.328615C0.661602 0.36246 0.587868 0.412057 0.525893 0.474542C0.401726 0.59945 0.332031 0.768418 0.332031 0.944541C0.332031 1.12066 0.401726 1.28963 0.525893 1.41454L3.58589 4.47453C3.96089 4.84907 4.46922 5.05944 4.99923 5.05944C5.52923 5.05944 6.03756 4.84907 6.41256 4.47453L9.47256 1.41454C9.59673 1.28963 9.66642 1.12066 9.66642 0.944541C9.66642 0.768418 9.59673 0.59945 9.47256 0.474542Z" fill="#343536"/>
</svg>
