<svg width="16" height="16" viewBox="0 0 16 16" fill="none" xmlns="http://www.w3.org/2000/svg">
<rect x="0.5" y="0.5" width="15" height="15" rx="3.5" fill="white" stroke="#CFD2D9"/>
<path d="M10.5359 5.83615L7.18553 9.19616L5.39033 7.32416C5.31828 7.24539 5.2312 7.18183 5.13422 7.13723C5.03723 7.09264 4.9323 7.0679 4.8256 7.06449C4.71891 7.06107 4.61261 7.07904 4.51297 7.11734C4.41333 7.15564 4.32236 7.21349 4.24543 7.2875C4.16849 7.3615 4.10714 7.45014 4.06499 7.54822C4.02285 7.6463 4.00075 7.75182 4.00002 7.85856C3.99928 7.96531 4.01992 8.07112 4.06071 8.16977C4.1015 8.26842 4.16162 8.35791 4.23753 8.43296L6.08233 10.353C6.21991 10.5016 6.3862 10.6207 6.57114 10.7032C6.75609 10.7857 6.95584 10.8299 7.15833 10.833H7.18473C7.38317 10.8336 7.57977 10.7949 7.76311 10.7189C7.94645 10.643 8.11287 10.5314 8.25273 10.3906L11.6703 6.97296C11.745 6.89847 11.8042 6.81001 11.8447 6.71263C11.8851 6.61525 11.906 6.51085 11.9061 6.4054C11.9062 6.29995 11.8856 6.19551 11.8453 6.09805C11.8051 6.00058 11.746 5.912 11.6715 5.83735C11.597 5.76271 11.5086 5.70347 11.4112 5.66301C11.3138 5.62255 11.2094 5.60167 11.104 5.60156C10.9985 5.60145 10.8941 5.62211 10.7966 5.66236C10.6992 5.70261 10.6106 5.76167 10.5359 5.83615Z" fill="white"/>
</svg>
