<svg width="10" height="10" viewBox="0 0 10 10" fill="none" xmlns="http://www.w3.org/2000/svg">
<path d="M8.99988 0.999879C8.87486 0.874898 8.70532 0.804688 8.52854 0.804688C8.35177 0.804688 8.18223 0.874898 8.05721 0.999879L4.99988 4.05721L1.94255 0.999879C1.81753 0.874898 1.64799 0.804688 1.47121 0.804688C1.29444 0.804688 1.1249 0.874898 0.999879 0.999879C0.874898 1.1249 0.804688 1.29444 0.804688 1.47121C0.804688 1.64799 0.874898 1.81753 0.999879 1.94255L4.05721 4.99988L0.999879 8.05721C0.874898 8.18223 0.804688 8.35177 0.804688 8.52854C0.804688 8.70532 0.874898 8.87486 0.999879 8.99988C1.1249 9.12486 1.29444 9.19507 1.47121 9.19507C1.64799 9.19507 1.81753 9.12486 1.94255 8.99988L4.99988 5.94254L8.05721 8.99988C8.18223 9.12486 8.35177 9.19507 8.52854 9.19507C8.70532 9.19507 8.87486 9.12486 8.99988 8.99988C9.12486 8.87486 9.19507 8.70532 9.19507 8.52854C9.19507 8.35177 9.12486 8.18223 8.99988 8.05721L5.94254 4.99988L8.99988 1.94255C9.12486 1.81753 9.19507 1.64799 9.19507 1.47121C9.19507 1.29444 9.12486 1.1249 8.99988 0.999879Z" fill="#374957"/>
</svg>
