<svg width="8" height="4" viewBox="0 0 8 4" fill="none" xmlns="http://www.w3.org/2000/svg">
<path d="M1.20493 7.62939e-05H6.79494C6.89382 0.000490904 6.99036 0.0302184 7.07236 0.0854998C7.15435 0.140781 7.21811 0.219134 7.25557 0.31065C7.29303 0.402166 7.30252 0.502735 7.28282 0.599642C7.26313 0.696548 7.21515 0.785439 7.14494 0.855075L4.35494 3.64507C4.30845 3.69193 4.25315 3.72913 4.19222 3.75452C4.13129 3.7799 4.06594 3.79297 3.99994 3.79297C3.93393 3.79297 3.86858 3.7799 3.80765 3.75452C3.74672 3.72913 3.69142 3.69193 3.64494 3.64507L0.854935 0.855075C0.784724 0.785439 0.736739 0.696548 0.717046 0.599642C0.697354 0.502735 0.706838 0.402166 0.744301 0.31065C0.781764 0.219134 0.845522 0.140781 0.927514 0.0854998C1.00951 0.0302184 1.10605 0.000490904 1.20493 7.62939e-05Z" fill="#D83B01"/>
</svg>
