<svg width="8" height="6" viewBox="0 0 8 6" fill="none" xmlns="http://www.w3.org/2000/svg">
<path d="M0.808891 0.757812H7.41252C7.52933 0.758302 7.64338 0.79342 7.74024 0.858725C7.8371 0.924031 7.91242 1.01659 7.95668 1.1247C8.00093 1.23281 8.01214 1.35162 7.98887 1.4661C7.96561 1.58057 7.90892 1.68558 7.82598 1.76785L4.53007 5.06375C4.47516 5.11911 4.40984 5.16305 4.33786 5.19304C4.26588 5.22302 4.18868 5.23846 4.1107 5.23846C4.03273 5.23846 3.95553 5.22302 3.88355 5.19304C3.81157 5.16305 3.74624 5.11911 3.69133 5.06375L0.395426 1.76785C0.312484 1.68558 0.255797 1.58057 0.232534 1.4661C0.209271 1.35162 0.220475 1.23281 0.264731 1.1247C0.308987 1.01659 0.384306 0.924031 0.481166 0.858725C0.578025 0.79342 0.692074 0.758302 0.808891 0.757812Z" fill="#B8BABD"/>
</svg>
