<svg width="30" height="30" viewBox="0 0 30 30" fill="none" xmlns="http://www.w3.org/2000/svg">
<rect x="0.5" y="0.5" width="29" height="29" rx="3.5" fill="white"/>
<rect x="0.5" y="0.5" width="29" height="29" rx="3.5" stroke="#171C8F"/>
<g clip-path="url(#clip0_16842_131367)">
<path d="M13.5861 19.0813C13.7719 19.2672 13.9924 19.4146 14.2351 19.5152C14.4779 19.6158 14.738 19.6676 15.0008 19.6676C15.2636 19.6676 15.5237 19.6158 15.7665 19.5152C16.0092 19.4146 16.2297 19.2672 16.4155 19.0813L18.5561 16.9407C18.6709 16.8137 18.7325 16.6475 18.7281 16.4764C18.7237 16.3054 18.6537 16.1425 18.5325 16.0216C18.4114 15.9008 18.2484 15.8311 18.0773 15.8271C17.9062 15.823 17.7402 15.885 17.6135 16L15.6628 17.9513L15.6675 7.66667C15.6675 7.48986 15.5972 7.32029 15.4722 7.19526C15.3472 7.07024 15.1776 7 15.0008 7V7C14.824 7 14.6544 7.07024 14.5294 7.19526C14.4044 7.32029 14.3341 7.48986 14.3341 7.66667L14.3281 17.9387L12.3881 16C12.263 15.875 12.0934 15.8048 11.9166 15.8049C11.7397 15.8049 11.5701 15.8752 11.4451 16.0003C11.3201 16.1254 11.2499 16.2951 11.25 16.4719C11.2501 16.6487 11.3204 16.8183 11.4455 16.9433L13.5861 19.0813Z" fill="#171C8F"/>
<path d="M22.3333 17.668C22.1565 17.668 21.987 17.7382 21.8619 17.8632C21.7369 17.9883 21.6667 18.1578 21.6667 18.3346V21.0013C21.6667 21.1781 21.5964 21.3477 21.4714 21.4727C21.3464 21.5977 21.1768 21.668 21 21.668H9C8.82319 21.668 8.65362 21.5977 8.5286 21.4727C8.40357 21.3477 8.33333 21.1781 8.33333 21.0013V18.3346C8.33333 18.1578 8.2631 17.9883 8.13807 17.8632C8.01305 17.7382 7.84348 17.668 7.66667 17.668C7.48986 17.668 7.32029 17.7382 7.19526 17.8632C7.07024 17.9883 7 18.1578 7 18.3346V21.0013C7 21.5317 7.21071 22.0404 7.58579 22.4155C7.96086 22.7906 8.46957 23.0013 9 23.0013H21C21.5304 23.0013 22.0391 22.7906 22.4142 22.4155C22.7893 22.0404 23 21.5317 23 21.0013V18.3346C23 18.1578 22.9298 17.9883 22.8047 17.8632C22.6797 17.7382 22.5101 17.668 22.3333 17.668Z" fill="#171C8F"/>
</g>
<defs>
<clipPath id="clip0_16842_131367">
<rect width="16" height="16" fill="white" transform="translate(7 7)"/>
</clipPath>
</defs>
</svg>
