<svg width="16" height="16" viewBox="0 0 16 16" fill="none" xmlns="http://www.w3.org/2000/svg">
<circle cx="8" cy="8" r="7.5" fill="#30C030" stroke="#30C030"/>
<path d="M6.39198 10.7873L4.02908 8.41109C3.91601 8.29742 3.76268 8.23356 3.6028 8.23356C3.44293 8.23356 3.2896 8.29742 3.17653 8.41109C3.0635 8.52479 3 8.67898 3 8.83976C3 9.00054 3.0635 9.15473 3.17653 9.26844L5.53943 11.6446C5.65141 11.7573 5.78437 11.8467 5.9307 11.9076C6.07703 11.9686 6.23388 12 6.39228 12C6.55068 12 6.70752 11.9686 6.85386 11.9076C7.00019 11.8467 7.13315 11.7573 7.24513 11.6446L12.8235 6.03488C12.9365 5.92117 13 5.76698 13 5.6062C13 5.44542 12.9365 5.29123 12.8235 5.17753C12.7104 5.06386 12.5571 5 12.3972 5C12.2373 5 12.084 5.06386 11.9709 5.17753L6.39198 10.7873Z" fill="white"/>
</svg>
