<svg width="20" height="20" viewBox="0 0 20 20" fill="none" xmlns="http://www.w3.org/2000/svg">
<g clip-path="url(#clip0_16057_63652)">
<path d="M3.75 14.582H1.66667C1.22464 14.582 0.800716 14.7576 0.488155 15.0702C0.175595 15.3827 0 15.8067 0 16.2487L0 18.332C0 18.774 0.175595 19.198 0.488155 19.5105C0.800716 19.8231 1.22464 19.9987 1.66667 19.9987H3.75C4.19203 19.9987 4.61595 19.8231 4.92851 19.5105C5.24107 19.198 5.41667 18.774 5.41667 18.332V16.2487C5.41667 15.8067 5.24107 15.3827 4.92851 15.0702C4.61595 14.7576 4.19203 14.582 3.75 14.582ZM3.75 18.332H1.66667V16.2487H3.75V18.332Z" fill="#171C8F"/>
<path d="M18.334 14.582H16.2506C15.8086 14.582 15.3847 14.7576 15.0721 15.0702C14.7596 15.3827 14.584 15.8067 14.584 16.2487V18.332C14.584 18.774 14.7596 19.198 15.0721 19.5105C15.3847 19.8231 15.8086 19.9987 16.2506 19.9987H18.334C18.776 19.9987 19.1999 19.8231 19.5125 19.5105C19.825 19.198 20.0006 18.774 20.0006 18.332V16.2487C20.0006 15.8067 19.825 15.3827 19.5125 15.0702C19.1999 14.7576 18.776 14.582 18.334 14.582ZM18.334 18.332H16.2506V16.2487H18.334V18.332Z" fill="#171C8F"/>
<path d="M3.75 7.29297H1.66667C1.22464 7.29297 0.800716 7.46856 0.488155 7.78112C0.175595 8.09368 0 8.51761 0 8.95963L0 11.043C0 11.485 0.175595 11.9089 0.488155 12.2215C0.800716 12.534 1.22464 12.7096 1.66667 12.7096H3.75C4.19203 12.7096 4.61595 12.534 4.92851 12.2215C5.24107 11.9089 5.41667 11.485 5.41667 11.043V8.95963C5.41667 8.51761 5.24107 8.09368 4.92851 7.78112C4.61595 7.46856 4.19203 7.29297 3.75 7.29297ZM3.75 11.043H1.66667V8.95963H3.75V11.043Z" fill="#171C8F"/>
<path d="M18.334 7.29297H16.2506C15.8086 7.29297 15.3847 7.46856 15.0721 7.78112C14.7596 8.09368 14.584 8.51761 14.584 8.95963V11.043C14.584 11.485 14.7596 11.9089 15.0721 12.2215C15.3847 12.534 15.8086 12.7096 16.2506 12.7096H18.334C18.776 12.7096 19.1999 12.534 19.5125 12.2215C19.825 11.9089 20.0006 11.485 20.0006 11.043V8.95963C20.0006 8.51761 19.825 8.09368 19.5125 7.78112C19.1999 7.46856 18.776 7.29297 18.334 7.29297ZM18.334 11.043H16.2506V8.95963H18.334V11.043Z" fill="#171C8F"/>
<path d="M3.75 0H1.66667C1.22464 0 0.800716 0.175595 0.488155 0.488155C0.175595 0.800716 0 1.22464 0 1.66667L0 3.75C0 4.19203 0.175595 4.61595 0.488155 4.92851C0.800716 5.24107 1.22464 5.41667 1.66667 5.41667H3.75C4.19203 5.41667 4.61595 5.24107 4.92851 4.92851C5.24107 4.61595 5.41667 4.19203 5.41667 3.75V1.66667C5.41667 1.22464 5.24107 0.800716 4.92851 0.488155C4.61595 0.175595 4.19203 0 3.75 0V0ZM3.75 3.75H1.66667V1.66667H3.75V3.75Z" fill="#171C8F"/>
<path d="M11.041 14.582H8.95768C8.51565 14.582 8.09173 14.7576 7.77917 15.0702C7.46661 15.3827 7.29102 15.8067 7.29102 16.2487V18.332C7.29102 18.774 7.46661 19.198 7.77917 19.5105C8.09173 19.8231 8.51565 19.9987 8.95768 19.9987H11.041C11.483 19.9987 11.907 19.8231 12.2195 19.5105C12.5321 19.198 12.7077 18.774 12.7077 18.332V16.2487C12.7077 15.8067 12.5321 15.3827 12.2195 15.0702C11.907 14.7576 11.483 14.582 11.041 14.582ZM11.041 18.332H8.95768V16.2487H11.041V18.332Z" fill="#171C8F"/>
<path d="M11.041 7.29297H8.95768C8.51565 7.29297 8.09173 7.46856 7.77917 7.78112C7.46661 8.09368 7.29102 8.51761 7.29102 8.95963V11.043C7.29102 11.485 7.46661 11.9089 7.77917 12.2215C8.09173 12.534 8.51565 12.7096 8.95768 12.7096H11.041C11.483 12.7096 11.907 12.534 12.2195 12.2215C12.5321 11.9089 12.7077 11.485 12.7077 11.043V8.95963C12.7077 8.51761 12.5321 8.09368 12.2195 7.78112C11.907 7.46856 11.483 7.29297 11.041 7.29297ZM11.041 11.043H8.95768V8.95963H11.041V11.043Z" fill="#171C8F"/>
<path d="M11.041 0H8.95768C8.51565 0 8.09173 0.175595 7.77917 0.488155C7.46661 0.800716 7.29102 1.22464 7.29102 1.66667V3.75C7.29102 4.19203 7.46661 4.61595 7.77917 4.92851C8.09173 5.24107 8.51565 5.41667 8.95768 5.41667H11.041C11.483 5.41667 11.907 5.24107 12.2195 4.92851C12.5321 4.61595 12.7077 4.19203 12.7077 3.75V1.66667C12.7077 1.22464 12.5321 0.800716 12.2195 0.488155C11.907 0.175595 11.483 0 11.041 0V0ZM11.041 3.75H8.95768V1.66667H11.041V3.75Z" fill="#171C8F"/>
<path d="M18.334 0H16.2506C15.8086 0 15.3847 0.175595 15.0721 0.488155C14.7596 0.800716 14.584 1.22464 14.584 1.66667V3.75C14.584 4.19203 14.7596 4.61595 15.0721 4.92851C15.3847 5.24107 15.8086 5.41667 16.2506 5.41667H18.334C18.776 5.41667 19.1999 5.24107 19.5125 4.92851C19.825 4.61595 20.0006 4.19203 20.0006 3.75V1.66667C20.0006 1.22464 19.825 0.800716 19.5125 0.488155C19.1999 0.175595 18.776 0 18.334 0V0ZM18.334 3.75H16.2506V1.66667H18.334V3.75Z" fill="#171C8F"/>
</g>
<defs>
<clipPath id="clip0_16057_63652">
<rect width="20" height="20" fill="white"/>
</clipPath>
</defs>
</svg>
