<svg width="17" height="16" viewBox="0 0 17 16" fill="none" xmlns="http://www.w3.org/2000/svg">
<g clip-path="url(#clip0_19095_1523)">
<path d="M14.4997 2.66667H12.433C12.2783 1.91428 11.8689 1.23823 11.2738 0.752479C10.6788 0.266727 9.93448 0.000969683 9.16634 0L7.83301 0C7.06487 0.000969683 6.32055 0.266727 5.72551 0.752479C5.13046 1.23823 4.72107 1.91428 4.56634 2.66667H2.49967C2.32286 2.66667 2.15329 2.7369 2.02827 2.86193C1.90325 2.98695 1.83301 3.15652 1.83301 3.33333C1.83301 3.51014 1.90325 3.67971 2.02827 3.80474C2.15329 3.92976 2.32286 4 2.49967 4H3.16634V12.6667C3.1674 13.5504 3.51893 14.3976 4.14382 15.0225C4.76871 15.6474 5.61594 15.9989 6.49967 16H10.4997C11.3834 15.9989 12.2306 15.6474 12.8555 15.0225C13.4804 14.3976 13.8319 13.5504 13.833 12.6667V4H14.4997C14.6765 4 14.8461 3.92976 14.9711 3.80474C15.0961 3.67971 15.1663 3.51014 15.1663 3.33333C15.1663 3.15652 15.0961 2.98695 14.9711 2.86193C14.8461 2.7369 14.6765 2.66667 14.4997 2.66667ZM7.83301 1.33333H9.16634C9.57986 1.33384 9.98309 1.46225 10.3207 1.70096C10.6584 1.93967 10.914 2.27699 11.0523 2.66667H5.94701C6.0854 2.27699 6.34094 1.93967 6.6786 1.70096C7.01626 1.46225 7.41949 1.33384 7.83301 1.33333ZM12.4997 12.6667C12.4997 13.1971 12.289 13.7058 11.9139 14.0809C11.5388 14.456 11.0301 14.6667 10.4997 14.6667H6.49967C5.96924 14.6667 5.46053 14.456 5.08546 14.0809C4.71039 13.7058 4.49967 13.1971 4.49967 12.6667V4H12.4997V12.6667Z" fill="#171C8F"/>
<path d="M7.16667 12.0013C7.34348 12.0013 7.51304 11.9311 7.63807 11.806C7.76309 11.681 7.83333 11.5114 7.83333 11.3346V7.33463C7.83333 7.15782 7.76309 6.98825 7.63807 6.86323C7.51304 6.73821 7.34348 6.66797 7.16667 6.66797C6.98985 6.66797 6.82029 6.73821 6.69526 6.86323C6.57024 6.98825 6.5 7.15782 6.5 7.33463V11.3346C6.5 11.5114 6.57024 11.681 6.69526 11.806C6.82029 11.9311 6.98985 12.0013 7.16667 12.0013Z" fill="#171C8F"/>
<path d="M9.83366 12.0013C10.0105 12.0013 10.18 11.9311 10.3051 11.806C10.4301 11.681 10.5003 11.5114 10.5003 11.3346V7.33463C10.5003 7.15782 10.4301 6.98825 10.3051 6.86323C10.18 6.73821 10.0105 6.66797 9.83366 6.66797C9.65685 6.66797 9.48728 6.73821 9.36226 6.86323C9.23723 6.98825 9.16699 7.15782 9.16699 7.33463V11.3346C9.16699 11.5114 9.23723 11.681 9.36226 11.806C9.48728 11.9311 9.65685 12.0013 9.83366 12.0013Z" fill="#171C8F"/>
</g>
<defs>
<clipPath id="clip0_19095_1523">
<rect width="16" height="16" fill="white" transform="translate(0.5)"/>
</clipPath>
</defs>
</svg>
