<svg width="16" height="16" viewBox="0 0 16 16" fill="none" xmlns="http://www.w3.org/2000/svg">
<g clip-path="url(#clip0_16865_42304)">
<path d="M14.8792 2.95401L5.6665 12.166C5.60456 12.2282 5.53095 12.2775 5.4499 12.3112C5.36884 12.3449 5.28194 12.3622 5.19417 12.3622C5.1064 12.3622 5.0195 12.3449 4.93844 12.3112C4.85739 12.2775 4.78378 12.2282 4.72184 12.166L1.15917 8.60001C1.09723 8.53782 1.02362 8.48848 0.942566 8.45481C0.861511 8.42114 0.774606 8.40381 0.686837 8.40381C0.599068 8.40381 0.512162 8.42114 0.431107 8.45481C0.350052 8.48848 0.276443 8.53782 0.214503 8.60001C0.152319 8.66194 0.102977 8.73555 0.0693094 8.81661C0.0356416 8.89767 0.0183105 8.98457 0.0183105 9.07234C0.0183105 9.16011 0.0356416 9.24701 0.0693094 9.32807C0.102977 9.40912 0.152319 9.48273 0.214503 9.54467L3.7785 13.108C4.15447 13.4833 4.66397 13.694 5.19517 13.694C5.72637 13.694 6.23587 13.4833 6.61184 13.108L15.8238 3.89801C15.8859 3.83608 15.9352 3.76251 15.9688 3.68152C16.0024 3.60052 16.0197 3.5137 16.0197 3.42601C16.0197 3.33832 16.0024 3.25149 15.9688 3.17049C15.9352 3.0895 15.8859 3.01593 15.8238 2.95401C15.7619 2.89182 15.6883 2.84248 15.6072 2.80881C15.5262 2.77514 15.4393 2.75781 15.3515 2.75781C15.2637 2.75781 15.1768 2.77514 15.0958 2.80881C15.0147 2.84248 14.9411 2.89182 14.8792 2.95401Z" fill="#58A55C"/>
</g>
<defs>
<clipPath id="clip0_16865_42304">
<rect width="16" height="16" fill="white"/>
</clipPath>
</defs>
</svg>
