<svg width="16" height="16" viewBox="0 0 16 16" fill="none" xmlns="http://www.w3.org/2000/svg">
<g clip-path="url(#clip0_19095_11487)">
<path d="M6.58516 12.0813C6.77089 12.2672 6.99143 12.4146 7.23416 12.5152C7.4769 12.6158 7.73707 12.6676 7.99983 12.6676C8.26258 12.6676 8.52275 12.6158 8.76549 12.5152C9.00822 12.4146 9.22876 12.2672 9.41449 12.0813L11.5552 9.94067C11.6699 9.81373 11.7315 9.64752 11.7271 9.47644C11.7227 9.30536 11.6527 9.14253 11.5316 9.02165C11.4104 8.90077 11.2474 8.8311 11.0764 8.82707C10.9053 8.82304 10.7392 8.88496 10.6125 9L8.66182 10.9513L8.66649 0.666667C8.66649 0.489856 8.59625 0.320286 8.47123 0.195262C8.34621 0.0702379 8.17664 0 7.99983 0V0C7.82301 0 7.65344 0.0702379 7.52842 0.195262C7.4034 0.320286 7.33316 0.489856 7.33316 0.666667L7.32716 10.9387L5.38716 9C5.26206 8.875 5.09244 8.8048 4.91559 8.80486C4.73874 8.80493 4.56916 8.87524 4.44416 9.00033C4.31915 9.12543 4.24896 9.29506 4.24902 9.4719C4.24909 9.64875 4.3194 9.81833 4.44449 9.94333L6.58516 12.0813Z" fill="#171C8F"/>
<path d="M15.3333 10.668C15.1565 10.668 14.987 10.7382 14.8619 10.8632C14.7369 10.9883 14.6667 11.1578 14.6667 11.3346V14.0013C14.6667 14.1781 14.5964 14.3477 14.4714 14.4727C14.3464 14.5977 14.1768 14.668 14 14.668H2C1.82319 14.668 1.65362 14.5977 1.5286 14.4727C1.40357 14.3477 1.33333 14.1781 1.33333 14.0013V11.3346C1.33333 11.1578 1.2631 10.9883 1.13807 10.8632C1.01305 10.7382 0.843478 10.668 0.666667 10.668C0.489856 10.668 0.320286 10.7382 0.195262 10.8632C0.0702379 10.9883 0 11.1578 0 11.3346L0 14.0013C0 14.5317 0.210714 15.0404 0.585786 15.4155C0.960859 15.7906 1.46957 16.0013 2 16.0013H14C14.5304 16.0013 15.0391 15.7906 15.4142 15.4155C15.7893 15.0404 16 14.5317 16 14.0013V11.3346C16 11.1578 15.9298 10.9883 15.8047 10.8632C15.6797 10.7382 15.5101 10.668 15.3333 10.668Z" fill="#171C8F"/>
</g>
<defs>
<clipPath id="clip0_19095_11487">
<rect width="16" height="16" fill="white"/>
</clipPath>
</defs>
</svg>
