<svg width="12" height="12" viewBox="0 0 12 12" fill="none" xmlns="http://www.w3.org/2000/svg">
<g clip-path="url(#clip0_29848_36795)">
<path d="M11.4265 0.573C11.0866 0.233599 10.6259 0.0429688 10.1455 0.0429688C9.66515 0.0429688 9.20443 0.233599 8.86451 0.573L0.732508 8.705C0.499633 8.93657 0.314989 9.21201 0.189257 9.5154C0.0635245 9.81878 -0.000798988 10.1441 7.49061e-06 10.4725V11.499C7.49061e-06 11.6316 0.0526859 11.7588 0.146454 11.8526C0.240222 11.9463 0.367399 11.999 0.500008 11.999H1.52651C1.85489 11.9999 2.18019 11.9357 2.48359 11.8101C2.78698 11.6844 3.06243 11.4998 3.29401 11.267L11.4265 3.1345C11.7658 2.7946 11.9563 2.33398 11.9563 1.85375C11.9563 1.37352 11.7658 0.912903 11.4265 0.573ZM2.58701 10.56C2.30501 10.8401 1.92399 10.9979 1.52651 10.999H1.00001V10.4725C0.999502 10.2755 1.03809 10.0803 1.11353 9.89823C1.18897 9.71619 1.29976 9.55093 1.43951 9.412L7.61101 3.2405L8.76101 4.3905L2.58701 10.56ZM10.719 2.4275L9.46601 3.681L8.31601 2.5335L9.56951 1.28C9.64502 1.20465 9.73463 1.14492 9.83322 1.1042C9.93182 1.06349 10.0375 1.0426 10.1441 1.04271C10.2508 1.04283 10.3564 1.06395 10.4549 1.10488C10.5534 1.14581 10.6429 1.20574 10.7183 1.28125C10.7936 1.35676 10.8533 1.44637 10.8941 1.54497C10.9348 1.64356 10.9557 1.74921 10.9555 1.85588C10.9554 1.96256 10.9343 2.06816 10.8934 2.16667C10.8524 2.26517 10.7925 2.35465 10.717 2.43L10.719 2.4275Z" fill="#171C8F"/>
</g>
<defs>
<clipPath id="clip0_29848_36795">
<rect width="12" height="12" fill="white"/>
</clipPath>
</defs>
</svg>
