<svg width="16" height="16" viewBox="0 0 16 16" fill="none" xmlns="http://www.w3.org/2000/svg">
<g clip-path="url(#clip0_17078_161524)">
<path d="M10.6673 10.6667C10.6673 10.8435 10.5971 11.0131 10.4721 11.1381C10.347 11.2631 10.1775 11.3333 10.0007 11.3333H8.66732V12.6667C8.66732 12.8435 8.59708 13.0131 8.47206 13.1381C8.34703 13.2631 8.17746 13.3333 8.00065 13.3333C7.82384 13.3333 7.65427 13.2631 7.52925 13.1381C7.40422 13.0131 7.33398 12.8435 7.33398 12.6667V11.3333H6.00065C5.82384 11.3333 5.65427 11.2631 5.52925 11.1381C5.40422 11.0131 5.33398 10.8435 5.33398 10.6667C5.33398 10.4899 5.40422 10.3203 5.52925 10.1953C5.65427 10.0703 5.82384 10 6.00065 10H7.33398V8.66668C7.33398 8.48987 7.40422 8.3203 7.52925 8.19528C7.65427 8.07025 7.82384 8.00002 8.00065 8.00002C8.17746 8.00002 8.34703 8.07025 8.47206 8.19528C8.59708 8.3203 8.66732 8.48987 8.66732 8.66668V10H10.0007C10.1775 10 10.347 10.0703 10.4721 10.1953C10.5971 10.3203 10.6673 10.4899 10.6673 10.6667ZM14.6673 6.99002V12.6667C14.6663 13.5504 14.3147 14.3976 13.6898 15.0225C13.0649 15.6474 12.2177 15.999 11.334 16H4.66732C3.78359 15.999 2.93636 15.6474 2.31146 15.0225C1.68657 14.3976 1.33504 13.5504 1.33398 12.6667V3.33335C1.33504 2.44962 1.68657 1.60239 2.31146 0.977495C2.93636 0.352603 3.78359 0.00107394 4.66732 1.53658e-05H7.67732C8.2904 -0.00156258 8.89771 0.118407 9.46413 0.352988C10.0306 0.587569 10.5449 0.932107 10.9773 1.36668L13.3 3.69068C13.7348 4.12284 14.0796 4.63699 14.3143 5.20333C14.549 5.76968 14.669 6.37696 14.6673 6.99002ZM10.0347 2.30935C9.82484 2.10612 9.58927 1.9313 9.33398 1.78935V4.66668C9.33398 4.84349 9.40422 5.01306 9.52925 5.13809C9.65427 5.26311 9.82384 5.33335 10.0007 5.33335H12.878C12.736 5.07814 12.5609 4.84278 12.3573 4.63335L10.0347 2.30935ZM13.334 6.99002C13.334 6.88002 13.3127 6.77468 13.3027 6.66668H10.0007C9.47022 6.66668 8.96151 6.45597 8.58644 6.0809C8.21136 5.70582 8.00065 5.19711 8.00065 4.66668V1.36468C7.89265 1.35468 7.78665 1.33335 7.67732 1.33335H4.66732C4.13688 1.33335 3.62818 1.54406 3.2531 1.91914C2.87803 2.29421 2.66732 2.80292 2.66732 3.33335V12.6667C2.66732 13.1971 2.87803 13.7058 3.2531 14.0809C3.62818 14.456 4.13688 14.6667 4.66732 14.6667H11.334C11.8644 14.6667 12.3731 14.456 12.7482 14.0809C13.1233 13.7058 13.334 13.1971 13.334 12.6667V6.99002Z" fill="#171C8F"/>
</g>
<defs>
<clipPath id="clip0_17078_161524">
<rect width="16" height="16" fill="white"/>
</clipPath>
</defs>
</svg>
