<svg width="16" height="16" viewBox="0 0 16 16" fill="none" xmlns="http://www.w3.org/2000/svg">
<path d="M1.00941 10.3243L3.78674 13.1017C4.1618 13.4766 4.67041 13.6872 5.20074 13.6872C5.73107 13.6872 6.23968 13.4766 6.61474 13.1017L15.1921 4.52434C15.3135 4.3986 15.3807 4.2302 15.3792 4.0554C15.3777 3.88061 15.3076 3.7134 15.184 3.58979C15.0603 3.46619 14.8931 3.39608 14.7183 3.39456C14.5435 3.39304 14.3751 3.46023 14.2494 3.58167L5.67207 12.159C5.54706 12.284 5.37752 12.3542 5.20074 12.3542C5.02396 12.3542 4.85443 12.284 4.72941 12.159L1.95207 9.38167C1.82634 9.26023 1.65794 9.19304 1.48314 9.19456C1.30834 9.19608 1.14113 9.26619 1.01753 9.38979C0.893922 9.5134 0.82381 9.68061 0.822291 9.85541C0.820772 10.0302 0.887968 10.1986 1.00941 10.3243Z" fill="#171C8F"/>
</svg>
