<svg width="76" height="100" viewBox="0 0 76 100" fill="none" xmlns="http://www.w3.org/2000/svg">
<path d="M66.5789 16.0469H55.8616V19.6193C55.8616 20.6053 55.0614 21.4055 54.0754 21.4055H21.9235C20.9375 21.4055 20.1373 20.6053 20.1373 19.6193V16.0469H9.42001C8.43401 16.0469 7.63379 16.8471 7.63379 17.8331V91.068C7.63379 92.054 8.43401 92.8542 9.42001 92.8542H66.5789C67.5649 92.8542 68.3651 92.054 68.3651 91.068V17.8331C68.3651 16.8471 67.5649 16.0469 66.5789 16.0469ZM30.8546 82.1369C30.8546 83.1229 30.0544 83.9231 29.0684 83.9231H20.1373C19.1513 83.9231 18.3511 83.1229 18.3511 82.1369V73.2058C18.3511 72.2198 19.1513 71.4196 20.1373 71.4196H29.0684C30.0544 71.4196 30.8546 72.2198 30.8546 73.2058V82.1369ZM30.8546 62.4885C30.8546 63.4745 30.0544 64.2747 29.0684 64.2747H20.1373C19.1513 64.2747 18.3511 63.4745 18.3511 62.4885V53.5574C18.3511 52.5714 19.1513 51.7712 20.1373 51.7712H29.0684C30.0544 51.7712 30.8546 52.5714 30.8546 53.5574V62.4885ZM30.8546 42.8401C30.8546 43.8261 30.0544 44.6263 29.0684 44.6263H20.1373C19.1513 44.6263 18.3511 43.8261 18.3511 42.8401V33.909C18.3511 32.923 19.1513 32.1228 20.1373 32.1228H29.0684C30.0544 32.1228 30.8546 32.923 30.8546 33.909V42.8401ZM50.503 83.03H37.9995C35.656 82.9907 35.6488 79.4969 37.9995 79.4576H50.503C52.8465 79.4969 52.8536 82.9907 50.503 83.03ZM55.8616 75.8851H37.9995C35.6577 75.8476 35.647 72.352 37.9995 72.3127H55.8616C58.2034 72.3502 58.2141 75.8458 55.8616 75.8851ZM36.2133 61.5954C36.2133 60.6094 37.0135 59.8092 37.9995 59.8092H50.503C51.489 59.8092 52.2892 60.6094 52.2892 61.5954C52.2892 62.5814 51.489 63.3816 50.503 63.3816H37.9995C37.0135 63.3816 36.2133 62.5814 36.2133 61.5954ZM55.8616 56.2368H37.9995C35.6577 56.1992 35.647 52.7036 37.9995 52.6643H55.8616C58.2034 52.7018 58.2141 56.1975 55.8616 56.2368ZM36.2133 41.947C36.2133 40.961 37.0135 40.1608 37.9995 40.1608H50.503C51.489 40.1608 52.2892 40.961 52.2892 41.947C52.2892 42.933 51.489 43.7332 50.503 43.7332H37.9995C37.0135 43.7332 36.2133 42.933 36.2133 41.947ZM55.8616 36.5884H37.9995C35.6577 36.5509 35.647 33.0552 37.9995 33.0159H55.8616C58.2034 33.0534 58.2141 36.5491 55.8616 36.5884Z" fill="#7AB1FF"/>
<path d="M50.503 83.5301L50.5113 83.5299C51.233 83.5179 51.8091 83.2354 52.1998 82.7908C52.5829 82.355 52.7639 81.7914 52.7633 81.2433C52.7627 80.6952 52.5807 80.132 52.1977 79.6966C51.807 79.2525 51.2317 78.9697 50.5114 78.9576L50.5114 78.9576H50.503H37.9995V78.9575L37.9911 78.9576C37.2694 78.9697 36.6934 79.2522 36.3027 79.6967C35.9196 80.1326 35.7386 80.6962 35.7392 81.2443C35.7397 81.7924 35.9218 82.3555 36.3048 82.791C36.6954 83.2351 37.2708 83.5179 37.9911 83.5299L37.9911 83.53H37.9995L50.503 83.5301ZM55.8616 76.3851V76.3852L55.87 76.3851C56.5921 76.373 57.1683 76.0904 57.559 75.6456C57.9421 75.2095 58.1228 74.6457 58.1219 74.0975C58.1211 73.5493 57.9388 72.9862 57.5557 72.5509C57.1651 72.1069 56.5897 71.8243 55.8696 71.8128L55.8696 71.8127H55.8616H37.9995V71.8126L37.9911 71.8128C37.269 71.8248 36.6928 72.1074 36.3021 72.5522C35.919 72.9883 35.7383 73.5522 35.7392 74.1003C35.74 74.6485 35.9223 75.2116 36.3054 75.6469C36.696 76.0909 37.2714 76.3735 37.9915 76.3851L37.9915 76.3851H37.9995H55.8616ZM55.8616 56.7368V56.7368L55.87 56.7367C56.5921 56.7246 57.1683 56.442 57.559 55.9972C57.9421 55.5611 58.1228 54.9973 58.1219 54.4491C58.1211 53.9009 57.9388 53.3378 57.5557 52.9025C57.1651 52.4585 56.5897 52.1759 55.8696 52.1644L55.8696 52.1643H55.8616H37.9995V52.1642L37.9911 52.1644C37.269 52.1764 36.6928 52.459 36.3021 52.9038C35.919 53.34 35.7383 53.9038 35.7392 54.452C35.74 55.0001 35.9223 55.5633 36.3054 55.9986C36.696 56.4425 37.2714 56.7252 37.9915 56.7367L37.9915 56.7368H37.9995H55.8616ZM55.8616 37.0884V37.0884L55.87 37.0883C56.5921 37.0762 57.1683 36.7937 57.559 36.3488C57.9421 35.9127 58.1228 35.3489 58.1219 34.8007C58.1211 34.2526 57.9388 33.6894 57.5557 33.2541C57.1651 32.8101 56.5897 32.5275 55.8696 32.516L55.8696 32.5159H55.8616H37.9995V32.5159L37.9911 32.516C37.269 32.5281 36.6928 32.8106 36.3021 33.2555C35.919 33.6916 35.7383 34.2554 35.7392 34.8036C35.74 35.3517 35.9223 35.9149 36.3054 36.3502C36.696 36.7942 37.2714 37.0768 37.9915 37.0883L37.9915 37.0884H37.9995H55.8616ZM56.3616 19.6193V16.5469H66.5789C67.2888 16.5469 67.8651 17.1232 67.8651 17.8331V91.068C67.8651 91.7778 67.2888 92.3542 66.5789 92.3542H9.42001C8.71016 92.3542 8.13379 91.7778 8.13379 91.068V17.8331C8.13379 17.1232 8.71016 16.5469 9.42001 16.5469H19.6373V19.6193C19.6373 20.8814 20.6614 21.9055 21.9235 21.9055H54.0754C55.3375 21.9055 56.3616 20.8814 56.3616 19.6193ZM29.0684 84.4231C30.3305 84.4231 31.3546 83.399 31.3546 82.1369V73.2058C31.3546 71.9437 30.3305 70.9196 29.0684 70.9196H20.1373C18.8752 70.9196 17.8511 71.9437 17.8511 73.2058V82.1369C17.8511 83.399 18.8752 84.4231 20.1373 84.4231H29.0684ZM29.0684 64.7747C30.3305 64.7747 31.3546 63.7506 31.3546 62.4885V53.5574C31.3546 52.2953 30.3305 51.2712 29.0684 51.2712H20.1373C18.8752 51.2712 17.8511 52.2953 17.8511 53.5574V62.4885C17.8511 63.7506 18.8752 64.7747 20.1373 64.7747H29.0684ZM29.0684 45.1263C30.3305 45.1263 31.3546 44.1023 31.3546 42.8401V33.909C31.3546 32.6469 30.3305 31.6228 29.0684 31.6228H20.1373C18.8752 31.6228 17.8511 32.6469 17.8511 33.909V42.8401C17.8511 44.1023 18.8752 45.1263 20.1373 45.1263H29.0684ZM37.9995 59.3092C36.7373 59.3092 35.7133 60.3333 35.7133 61.5954C35.7133 62.8575 36.7373 63.8816 37.9995 63.8816H50.503C51.7651 63.8816 52.7892 62.8575 52.7892 61.5954C52.7892 60.3333 51.7651 59.3092 50.503 59.3092H37.9995ZM37.9995 39.6608C36.7373 39.6608 35.7133 40.6849 35.7133 41.947C35.7133 43.2092 36.7373 44.2332 37.9995 44.2332H50.503C51.7651 44.2332 52.7892 43.2092 52.7892 41.947C52.7892 40.6849 51.7651 39.6608 50.503 39.6608H37.9995Z" stroke="#003887" stroke-opacity="0.5"/>
<path d="M68.3655 8.90234H55.6083C55.9298 9.89191 55.8602 11.4263 55.862 12.4748H68.3655C70.3357 12.4748 71.9379 14.077 71.9379 16.0472V92.8545C71.9379 94.8247 70.3357 96.427 68.3655 96.427H7.63412C5.66393 96.427 4.06169 94.8247 4.06169 92.8545V16.0472C4.06169 14.077 5.66393 12.4748 7.63412 12.4748H20.1376C20.1394 11.4209 20.0698 9.89727 20.3913 8.90234H7.63412C3.69373 8.90234 0.489258 12.1068 0.489258 16.0472V92.8545C0.489258 96.7949 3.69373 99.9994 7.63412 99.9994H68.3655C72.3059 99.9994 75.5103 96.7949 75.5103 92.8545V16.0472C75.5103 12.1068 72.3059 8.90234 68.3655 8.90234Z" fill="#003887"/>
<path d="M48.7172 5.33052H44.6465C42.8745 -1.77863 33.1236 -1.77505 31.3552 5.33052H27.2844C24.33 5.33052 21.9258 7.73477 21.9258 10.6892V17.834C21.9258 18.82 22.726 19.6203 23.712 19.6203H52.2915C53.2775 19.6203 54.0777 18.82 54.0777 17.834V10.6892C54.0777 7.73477 51.6716 5.33052 48.7172 5.33052Z" fill="#F1BE42"/>
</svg>
