<svg width="30" height="30" viewBox="0 0 30 30" fill="none" xmlns="http://www.w3.org/2000/svg">
<path d="M0.5 4C0.5 2.067 2.067 0.5 4 0.5H26C27.933 0.5 29.5 2.067 29.5 4V26C29.5 27.933 27.933 29.5 26 29.5H4C2.067 29.5 0.5 27.933 0.5 26V4Z" fill="white"/>
<path d="M0.5 4C0.5 2.067 2.067 0.5 4 0.5H26C27.933 0.5 29.5 2.067 29.5 4V26C29.5 27.933 27.933 29.5 26 29.5H4C2.067 29.5 0.5 27.933 0.5 26V4Z" stroke="#171C8F"/>
<g clip-path="url(#clip0_16933_50023)">
<path d="M14.9998 8.33352C15.8841 8.33642 16.7591 8.51468 17.5741 8.85798C18.3891 9.20127 19.1279 9.7028 19.7478 10.3335H17.6665C17.4897 10.3335 17.3201 10.4038 17.1951 10.5288C17.07 10.6538 16.9998 10.8234 16.9998 11.0002C16.9998 11.177 17.07 11.3466 17.1951 11.4716C17.3201 11.5966 17.4897 11.6669 17.6665 11.6669H20.4285C20.7568 11.6667 21.0715 11.5362 21.3037 11.3041C21.5358 11.0719 21.6663 10.7571 21.6665 10.4289V7.66685C21.6665 7.49004 21.5962 7.32047 21.4712 7.19545C21.3462 7.07042 21.1766 7.00018 20.9998 7.00018C20.823 7.00018 20.6534 7.07042 20.5284 7.19545C20.4034 7.32047 20.3331 7.49004 20.3331 7.66685V9.05218C19.2313 8.05982 17.8749 7.39379 16.4159 7.12868C14.9569 6.86358 13.4529 7.00986 12.0723 7.55115C10.6918 8.09244 9.48915 9.00736 8.59915 10.1935C7.70915 11.3796 7.1669 12.79 7.03314 14.2669C7.02453 14.3597 7.03535 14.4533 7.06492 14.5417C7.09448 14.6302 7.14214 14.7115 7.20486 14.7804C7.26758 14.8494 7.34398 14.9046 7.42919 14.9424C7.51441 14.9803 7.60657 14.9999 7.69981 15.0002C7.86287 15.0023 8.02083 14.9434 8.14278 14.8351C8.26473 14.7269 8.34189 14.577 8.35914 14.4149C8.50755 12.7554 9.27113 11.2113 10.4999 10.0861C11.7286 8.96083 13.3337 8.33571 14.9998 8.33352Z" fill="#171C8F"/>
<path d="M22.3003 15.0001C22.1373 14.998 21.9793 15.0568 21.8574 15.1651C21.7354 15.2734 21.6583 15.4232 21.641 15.5854C21.5308 16.8542 21.059 18.0648 20.2814 19.0735C19.5039 20.0823 18.4534 20.8468 17.2544 21.2764C16.0555 21.7061 14.7585 21.7828 13.5172 21.4975C12.276 21.2122 11.1427 20.5768 10.2517 19.6667H12.333C12.5098 19.6667 12.6794 19.5965 12.8044 19.4715C12.9294 19.3464 12.9997 19.1769 12.9997 19.0001C12.9997 18.8233 12.9294 18.6537 12.8044 18.5287C12.6794 18.4036 12.5098 18.3334 12.333 18.3334H9.57101C9.40841 18.3333 9.24738 18.3653 9.09714 18.4275C8.9469 18.4896 8.81039 18.5808 8.69541 18.6958C8.58044 18.8108 8.48925 18.9473 8.42707 19.0975C8.36488 19.2478 8.33292 19.4088 8.33301 19.5714V22.3334C8.33301 22.5102 8.40325 22.6798 8.52827 22.8048C8.65329 22.9298 8.82286 23.0001 8.99967 23.0001C9.17649 23.0001 9.34606 22.9298 9.47108 22.8048C9.5961 22.6798 9.66634 22.5102 9.66634 22.3334V20.9481C10.7682 21.9404 12.1246 22.6065 13.5836 22.8716C15.0426 23.1367 16.5466 22.9904 17.9272 22.4491C19.3077 21.9078 20.5103 20.9929 21.4003 19.8068C22.2903 18.6207 22.8326 17.2102 22.9663 15.7334C22.975 15.6406 22.9641 15.5469 22.9346 15.4585C22.905 15.3701 22.8573 15.2888 22.7946 15.2198C22.7319 15.1508 22.6555 15.0956 22.5703 15.0578C22.4851 15.02 22.3929 15.0003 22.2997 15.0001H22.3003Z" fill="#171C8F"/>
</g>
<defs>
<clipPath id="clip0_16933_50023">
<rect width="16" height="16" fill="white" transform="translate(7 7)"/>
</clipPath>
</defs>
</svg>
