<svg width="202" height="111" viewBox="0 0 202 111" fill="none" xmlns="http://www.w3.org/2000/svg">
<g clip-path="url(#clip0_16875_81982)">
<mask id="mask0_16875_81982" style="mask-type:luminance" maskUnits="userSpaceOnUse" x="45" y="0" width="112" height="111">
<path d="M156.495 0H45.5059V111H156.495V0Z" fill="white"/>
</mask>
<g mask="url(#mask0_16875_81982)">
<path fill-rule="evenodd" clip-rule="evenodd" d="M134.324 17.1534C136.361 17.1534 138.364 17.6473 140.168 18.5908C141.972 19.5343 143.52 20.8996 144.68 22.5702C145.845 24.2407 146.583 26.1666 146.844 28.1868C147.099 30.207 146.861 32.2549 146.156 34.1641C145.451 36.0733 144.291 37.7827 142.782 39.1425C141.272 40.5078 139.458 41.4846 137.488 41.9952C135.518 42.5058 133.453 42.528 131.472 42.0729C129.491 41.6122 127.648 40.6798 126.106 39.3534L126.083 39.3811C126.111 38.8983 126.122 38.4154 126.122 37.927C126.128 33.4149 124.913 28.986 122.598 25.1121C123.531 22.7644 125.151 20.7498 127.238 19.3345C129.33 17.9193 131.799 17.1589 134.324 17.1589V17.1534ZM156.5 63.679V72.7755H137.354C136.522 69.1236 135.14 65.6215 133.259 62.3859C130.573 57.7849 126.944 53.8111 122.604 50.7253C123.198 49.7319 123.719 48.694 124.169 47.6284C127.771 49.6819 131.91 50.5921 136.039 50.2425C140.174 49.8928 144.097 48.3055 147.31 45.6804C150.146 47.7339 152.46 50.4256 154.058 53.5447C155.656 56.6638 156.494 60.1159 156.5 63.618V63.6735V63.679ZM130.379 81.156V81.1116C130.362 76.3275 129.18 71.6155 126.938 67.3864C124.696 63.1573 121.461 59.5387 117.51 56.8359C112.942 60.8263 107.082 63.0297 101.017 63.0297C94.9511 63.0297 89.0909 60.8263 84.5237 56.8359C80.5725 59.5387 77.3372 63.1573 75.0952 67.3864C72.8532 71.6155 71.6712 76.3275 71.6545 81.1116V93.8433H130.379V81.1504V81.156ZM64.6733 72.7755H45.5V63.6235C45.5055 60.1215 46.3435 56.6638 47.9418 53.5503C49.54 50.4312 51.8541 47.7339 54.6899 45.6859C57.903 48.3111 61.8376 49.9039 65.9719 50.248C70.1118 50.5921 74.2517 49.6764 77.8533 47.6173C78.3083 48.6885 78.83 49.7319 79.4238 50.7309C71.9653 56.0145 66.7155 63.8677 64.6733 72.781V72.7755ZM67.6756 17.1478C70.2061 17.1478 72.6812 17.9082 74.7733 19.329C76.8655 20.7553 78.4859 22.7755 79.4127 25.1287C77.1152 28.9971 75.8999 33.4149 75.9054 37.9104C75.9054 38.4099 75.9221 38.9094 75.9554 39.4033L75.8943 39.3367C74.3516 40.6632 72.5091 41.5956 70.528 42.0562C68.5468 42.5169 66.4825 42.4891 64.5124 41.9785C62.5423 41.4679 60.7221 40.4911 59.2127 39.1258C57.7032 37.7605 56.5434 36.0511 55.8386 34.1419C55.1338 32.2327 54.8952 30.1848 55.156 28.1646C55.4113 26.1444 56.1549 24.2185 57.3148 22.548C58.4802 20.8774 60.0284 19.5121 61.832 18.5686C63.6356 17.6251 65.6389 17.1367 67.6756 17.1367V17.1478ZM101.017 20.7331C104.413 20.7331 107.737 21.7432 110.562 23.6302C113.386 25.5172 115.589 28.2034 116.888 31.3392C118.187 34.4805 118.531 37.9326 117.865 41.2681C117.204 44.6037 115.567 47.6617 113.164 50.0649C110.761 52.468 107.698 54.1053 104.369 54.7657C101.033 55.4317 97.5815 55.0876 94.4406 53.7889C91.2996 52.4902 88.6192 50.2869 86.7268 47.4619C84.84 44.637 83.8356 41.3125 83.8356 37.9159C83.8411 33.3594 85.6502 28.9915 88.8689 25.7725C92.0931 22.5535 96.4606 20.7387 101.017 20.7331Z" fill="#171C8F"/>
<path fill-rule="evenodd" clip-rule="evenodd" d="M134.324 17.1517C136.361 17.1517 138.364 17.6457 140.168 18.5892C141.971 19.5327 143.52 20.898 144.68 22.5685C145.845 24.2391 146.583 26.1649 146.844 28.1851C147.099 30.2053 146.861 32.2533 146.156 34.1625C145.451 36.0717 144.291 37.7811 142.782 39.1408C141.272 40.5061 139.458 41.4829 137.488 41.9935C135.517 42.5041 133.453 42.5263 131.472 42.0712C129.491 41.6106 127.648 40.6782 126.106 39.3517L126.083 39.3795C126.111 38.8966 126.122 38.4138 126.122 37.9254C126.128 33.4132 124.912 28.9843 122.598 25.1104C123.531 22.7628 125.151 20.7481 127.238 19.3329C129.33 17.9176 131.799 17.1573 134.324 17.1573V17.1517ZM67.6755 17.1517C70.2061 17.1517 72.6811 17.9121 74.7733 19.3329C76.871 20.7592 78.4858 22.7794 79.4126 25.1326C77.1151 29.001 75.8998 33.4188 75.9054 37.9143C75.9054 38.4138 75.922 38.9133 75.9553 39.4072L75.8943 39.3406C74.3515 40.6671 72.5091 41.5995 70.5279 42.0601C68.5468 42.5208 66.4824 42.493 64.5123 41.9824C62.5423 41.4718 60.7221 40.495 59.2126 39.1297C57.7032 37.7644 56.5433 36.055 55.8386 34.1458C55.1338 32.2366 54.8952 30.1887 55.156 28.1685C55.4113 26.1483 56.1549 24.2224 57.3147 22.5519C58.4801 20.8813 60.0284 19.516 61.832 18.5725C63.6355 17.629 65.6389 17.1406 67.6755 17.1406V17.1517ZM101.017 20.737C104.413 20.737 107.737 21.7471 110.562 23.6341C113.386 25.5211 115.589 28.2073 116.888 31.3431C118.187 34.4844 118.531 37.9365 117.865 41.272C117.204 44.6076 115.567 47.6656 113.164 50.0688C110.761 52.4719 107.698 54.1092 104.368 54.7696C101.033 55.4356 97.5815 55.0915 94.4405 53.7928C91.2995 52.4941 88.6191 50.2908 86.7268 47.4658C84.84 44.6409 83.8355 41.3164 83.8355 37.9198C83.8411 33.3633 85.6502 28.9954 88.8689 25.7764C92.0931 22.5574 96.4605 20.7426 101.017 20.737Z" fill="#9C9ECA"/>
</g>
</g>
<g clip-path="url(#clip1_16875_81982)">
<path d="M156.5 78.36H159.25C159.63 78.36 159.938 78.0555 159.938 77.68C159.938 77.3045 159.63 77 159.25 77H156.5C156.12 77 155.812 77.3045 155.812 77.68C155.812 78.0555 156.12 78.36 156.5 78.36Z" fill="#9EA1A7"/>
<path d="M151 78.36H153.75C154.13 78.36 154.438 78.0555 154.438 77.68C154.438 77.3045 154.13 77 153.75 77H151C150.62 77 150.312 77.3045 150.312 77.68C150.312 78.0555 150.62 78.36 151 78.36Z" fill="#9EA1A7"/>
<path d="M162 78.36H164.75C165.13 78.36 165.438 78.0555 165.438 77.68C165.438 77.3045 165.13 77 164.75 77H162C161.62 77 161.312 77.3045 161.312 77.68C161.312 78.0555 161.62 78.36 162 78.36Z" fill="#9EA1A7"/>
<path d="M142.75 78.36C143.13 78.36 143.438 78.0555 143.438 77.68C143.438 77.3045 143.13 77 142.75 77H140C139.62 77 139.312 77.3045 139.312 77.68C139.312 78.0555 139.62 78.36 140 78.36H142.75Z" fill="#9EA1A7"/>
<path d="M167.5 78.3598H170.25C170.318 78.3598 170.384 78.3498 170.447 78.3316C170.502 78.3661 170.562 78.3937 170.628 78.4125C171.074 78.5404 171.434 78.8931 171.568 79.3336C171.658 79.6279 171.931 79.8181 172.226 79.8181C172.292 79.8181 172.358 79.8086 172.424 79.789C172.787 79.6812 172.993 79.3038 172.886 78.9448C172.618 78.0608 171.906 77.3619 171.008 77.1057C170.945 77.0879 170.881 77.0792 170.818 77.0792C170.751 77.0792 170.685 77.0893 170.622 77.108C170.515 77.0398 170.387 77 170.25 77H167.5C167.121 77 166.813 77.3045 166.813 77.68C166.813 78.0555 167.121 78.36 167.5 78.36L167.5 78.3598Z" fill="#9EA1A7"/>
<path d="M145.5 78.36H148.25C148.63 78.36 148.938 78.0555 148.938 77.68C148.938 77.3045 148.63 77 148.25 77H145.5C145.12 77 144.812 77.3045 144.812 77.68C144.812 78.0555 145.12 78.36 145.5 78.36Z" fill="#9EA1A7"/>
<path d="M135.188 84.2909C135.567 84.2909 135.875 83.9866 135.875 83.6109V80.8909C135.875 80.5154 135.567 80.2109 135.188 80.2109C134.808 80.2109 134.5 80.5154 134.5 80.8909V83.6109C134.5 83.9866 134.808 84.2909 135.188 84.2909Z" fill="#9EA1A7"/>
<path d="M136.433 103.929C136.078 103.667 135.875 103.27 135.875 102.839V102.649C135.875 102.273 135.567 101.969 135.188 101.969C134.808 101.969 134.5 102.273 134.5 102.649V102.861C134.5 102.863 134.5 102.864 134.5 102.865V102.874C134.5 102.876 134.5 102.877 134.5 102.878V102.887C134.5 102.887 134.5 102.887 134.5 102.888V102.892C134.5 102.893 134.5 102.894 134.5 102.896V102.901C134.5 102.902 134.5 102.903 134.5 102.904V102.909C134.5 102.91 134.5 102.911 134.5 102.913V102.913C134.5 102.915 134.501 102.916 134.501 102.917V102.918C134.501 102.92 134.501 102.923 134.501 102.926V102.926C134.501 102.928 134.501 102.929 134.501 102.93V102.931C134.501 102.933 134.501 102.936 134.501 102.939V102.939C134.501 102.941 134.501 102.942 134.501 102.943V102.944C134.501 102.945 134.501 102.946 134.501 102.948H134.502C134.502 102.949 134.502 102.95 134.502 102.952V102.952C134.503 102.953 134.503 102.955 134.503 102.956V102.957C134.503 102.958 134.503 102.959 134.503 102.96V102.961C134.503 102.962 134.503 102.963 134.503 102.964C134.503 102.966 134.503 102.967 134.503 102.969V102.969C134.503 102.971 134.503 102.972 134.503 102.973V102.974C134.503 102.975 134.503 102.976 134.503 102.977V102.978C134.503 102.979 134.503 102.981 134.504 102.982V102.983C134.504 102.984 134.504 102.985 134.504 102.987V102.987C134.504 102.988 134.504 102.99 134.504 102.991V102.991C134.504 102.992 134.504 102.994 134.504 102.995V102.996C134.504 102.997 134.504 102.998 134.505 103V103C134.505 103.003 134.505 103.005 134.505 103.008V103.009C134.505 103.01 134.505 103.011 134.505 103.012C134.505 103.013 134.505 103.013 134.505 103.013C134.505 103.016 134.506 103.018 134.506 103.021V103.022C134.506 103.023 134.506 103.024 134.506 103.025C134.506 103.026 134.506 103.026 134.506 103.026C134.506 103.028 134.506 103.029 134.506 103.03H134.507C134.507 103.031 134.507 103.033 134.507 103.034V103.034C134.507 103.036 134.507 103.037 134.507 103.038V103.039C134.508 103.04 134.508 103.041 134.508 103.042C134.508 103.044 134.508 103.045 134.508 103.046V103.047C134.508 103.048 134.508 103.05 134.508 103.051V103.051C134.509 103.053 134.509 103.054 134.509 103.055V103.056C134.509 103.057 134.509 103.058 134.509 103.059V103.06C134.509 103.061 134.509 103.063 134.509 103.064V103.064C134.51 103.066 134.51 103.067 134.51 103.068V103.069C134.51 103.07 134.51 103.071 134.51 103.072C134.51 103.073 134.51 103.073 134.51 103.073C134.51 103.074 134.51 103.075 134.511 103.077V103.077C134.511 103.079 134.511 103.08 134.511 103.081V103.082C134.511 103.083 134.511 103.084 134.512 103.086C134.512 103.087 134.512 103.088 134.512 103.09V103.09C134.512 103.092 134.512 103.093 134.512 103.094C134.512 103.094 134.512 103.094 134.512 103.095C134.512 103.096 134.512 103.097 134.513 103.098V103.099C134.513 103.1 134.513 103.101 134.513 103.103V103.103C134.513 103.105 134.513 103.106 134.513 103.107V103.108C134.514 103.109 134.514 103.111 134.514 103.112C134.514 103.113 134.514 103.114 134.514 103.116V103.116C134.514 103.118 134.515 103.119 134.515 103.12C134.515 103.12 134.515 103.121 134.515 103.121C134.515 103.122 134.515 103.124 134.515 103.125C134.515 103.126 134.515 103.127 134.516 103.129V103.129C134.516 103.131 134.516 103.132 134.516 103.133V103.134C134.516 103.135 134.517 103.136 134.517 103.137C134.517 103.139 134.517 103.14 134.517 103.142C134.517 103.142 134.517 103.142 134.517 103.142C134.517 103.143 134.517 103.145 134.517 103.146C134.517 103.146 134.517 103.146 134.518 103.147C134.518 103.148 134.518 103.149 134.518 103.15C134.518 103.15 134.518 103.151 134.518 103.151C134.518 103.152 134.518 103.153 134.518 103.154V103.155C134.518 103.156 134.519 103.158 134.519 103.159C134.519 103.159 134.519 103.159 134.519 103.159C134.519 103.161 134.519 103.162 134.519 103.163C134.519 103.163 134.519 103.164 134.519 103.164C134.519 103.165 134.519 103.166 134.52 103.168C134.52 103.169 134.52 103.17 134.52 103.172C134.52 103.172 134.52 103.172 134.52 103.172C134.52 103.174 134.521 103.175 134.521 103.176V103.176C134.521 103.178 134.521 103.179 134.521 103.18C134.521 103.182 134.522 103.183 134.522 103.184V103.185C134.522 103.186 134.522 103.187 134.523 103.189C134.523 103.189 134.523 103.189 134.523 103.189C134.523 103.192 134.523 103.194 134.524 103.197V103.198C134.524 103.199 134.524 103.2 134.524 103.201C134.524 103.201 134.524 103.202 134.524 103.202C134.525 103.205 134.525 103.207 134.525 103.21C134.525 103.21 134.525 103.21 134.526 103.21C134.526 103.212 134.526 103.213 134.526 103.214V103.215C134.526 103.216 134.527 103.217 134.527 103.219C134.527 103.22 134.527 103.221 134.527 103.223V103.223C134.528 103.224 134.528 103.226 134.528 103.227V103.228C134.528 103.229 134.528 103.23 134.529 103.232V103.232C134.529 103.233 134.529 103.234 134.529 103.236V103.236C134.53 103.237 134.53 103.239 134.53 103.24V103.241C134.53 103.242 134.53 103.243 134.531 103.244V103.245C134.531 103.246 134.531 103.247 134.531 103.249C134.531 103.25 134.532 103.252 134.532 103.253C134.532 103.253 134.532 103.253 134.532 103.253C134.532 103.255 134.532 103.256 134.532 103.257C134.533 103.257 134.533 103.258 134.533 103.258C134.533 103.259 134.533 103.26 134.533 103.261V103.262C134.534 103.263 134.534 103.264 134.534 103.265V103.266C134.534 103.267 134.534 103.269 134.535 103.27C134.535 103.27 134.535 103.27 134.535 103.27C134.535 103.272 134.535 103.273 134.535 103.274C134.536 103.276 134.536 103.277 134.536 103.278C134.536 103.278 134.536 103.278 134.536 103.279C134.536 103.28 134.536 103.281 134.537 103.282V103.283C134.537 103.286 134.537 103.288 134.538 103.29C134.538 103.291 134.538 103.291 134.538 103.291C134.538 103.292 134.538 103.294 134.538 103.295C134.539 103.295 134.539 103.295 134.539 103.295C134.539 103.298 134.54 103.3 134.54 103.303V103.304C134.54 103.305 134.541 103.306 134.541 103.307C134.541 103.307 134.541 103.308 134.541 103.308C134.541 103.309 134.541 103.31 134.541 103.312C134.542 103.313 134.542 103.314 134.542 103.315C134.542 103.317 134.542 103.318 134.543 103.319V103.32C134.543 103.321 134.543 103.323 134.544 103.324C134.544 103.327 134.545 103.329 134.545 103.332V103.332C134.546 103.334 134.546 103.335 134.546 103.336C134.546 103.336 134.546 103.337 134.546 103.337C134.546 103.338 134.547 103.339 134.547 103.341C134.547 103.342 134.547 103.343 134.548 103.344V103.345C134.548 103.346 134.548 103.348 134.548 103.349C134.549 103.351 134.549 103.352 134.549 103.353C134.549 103.354 134.55 103.356 134.55 103.357V103.357C134.55 103.359 134.551 103.36 134.551 103.361C134.551 103.361 134.551 103.361 134.551 103.362C134.551 103.364 134.552 103.367 134.552 103.369V103.37C134.553 103.371 134.553 103.372 134.553 103.373V103.374C134.554 103.377 134.554 103.379 134.555 103.382V103.382C134.555 103.383 134.556 103.385 134.556 103.386C134.556 103.386 134.556 103.386 134.556 103.387C134.556 103.388 134.556 103.389 134.557 103.39C134.557 103.392 134.557 103.393 134.557 103.394C134.557 103.394 134.557 103.395 134.557 103.395C134.557 103.396 134.558 103.397 134.558 103.398V103.399C134.559 103.4 134.559 103.402 134.559 103.403C134.559 103.403 134.559 103.403 134.559 103.403C134.559 103.405 134.56 103.406 134.56 103.407H134.56C134.56 103.408 134.561 103.41 134.561 103.411V103.411C134.561 103.413 134.562 103.414 134.562 103.415V103.415C134.562 103.417 134.562 103.418 134.563 103.419C134.563 103.419 134.563 103.419 134.563 103.419C134.563 103.421 134.563 103.422 134.564 103.423V103.423C134.564 103.425 134.564 103.426 134.565 103.427C134.565 103.43 134.566 103.433 134.566 103.435C134.567 103.435 134.567 103.436 134.567 103.436C134.567 103.437 134.567 103.438 134.567 103.44V103.44C134.568 103.443 134.569 103.445 134.569 103.448C134.569 103.448 134.569 103.448 134.569 103.448C134.57 103.449 134.57 103.451 134.57 103.452C134.57 103.452 134.57 103.452 134.57 103.452C134.571 103.455 134.571 103.457 134.572 103.46C134.573 103.462 134.573 103.463 134.573 103.464C134.574 103.467 134.575 103.47 134.575 103.472C134.576 103.474 134.576 103.475 134.576 103.476C134.577 103.479 134.578 103.482 134.578 103.485C134.578 103.486 134.579 103.488 134.579 103.489C134.579 103.489 134.579 103.489 134.579 103.489L134.58 103.493C134.581 103.494 134.581 103.496 134.581 103.497C134.582 103.498 134.582 103.499 134.582 103.501V103.501C134.583 103.504 134.584 103.506 134.584 103.509C134.585 103.51 134.585 103.511 134.585 103.513C134.585 103.513 134.585 103.513 134.585 103.513C134.586 103.515 134.586 103.516 134.586 103.517V103.518C134.587 103.52 134.588 103.523 134.589 103.525C134.589 103.525 134.589 103.525 134.589 103.526C134.589 103.527 134.589 103.528 134.59 103.529C134.59 103.529 134.59 103.529 134.59 103.53C134.591 103.532 134.591 103.535 134.592 103.537C134.592 103.539 134.593 103.54 134.593 103.542C134.594 103.544 134.595 103.547 134.595 103.55V103.55C134.596 103.551 134.596 103.553 134.596 103.554C134.597 103.557 134.598 103.559 134.599 103.562C134.599 103.563 134.599 103.565 134.6 103.566V103.566C134.601 103.569 134.601 103.571 134.602 103.574L134.603 103.578V103.578C134.604 103.579 134.604 103.581 134.604 103.582H134.605C134.605 103.583 134.605 103.585 134.606 103.586C134.606 103.587 134.606 103.588 134.607 103.59V103.59C134.607 103.591 134.608 103.593 134.608 103.594V103.594C134.608 103.595 134.609 103.597 134.609 103.598C134.61 103.599 134.61 103.601 134.61 103.602C134.611 103.603 134.611 103.605 134.612 103.606V103.606C134.612 103.609 134.613 103.611 134.614 103.614C134.614 103.614 134.614 103.614 134.614 103.614C134.614 103.615 134.615 103.617 134.615 103.618V103.618C134.616 103.621 134.617 103.623 134.617 103.626V103.626C134.618 103.627 134.618 103.629 134.619 103.63V103.63C134.62 103.633 134.62 103.635 134.621 103.638C134.622 103.639 134.622 103.641 134.623 103.642V103.642C134.623 103.644 134.623 103.645 134.624 103.646C134.624 103.647 134.625 103.649 134.625 103.65C134.626 103.651 134.626 103.653 134.627 103.654C134.627 103.657 134.628 103.659 134.629 103.662C134.63 103.663 134.63 103.664 134.63 103.666C134.631 103.667 134.631 103.669 134.632 103.67H134.632C134.633 103.672 134.634 103.675 134.634 103.678V103.678C134.635 103.679 134.635 103.68 134.636 103.682C134.637 103.684 134.638 103.687 134.638 103.689V103.69C134.639 103.691 134.639 103.692 134.64 103.694C134.64 103.694 134.64 103.694 134.64 103.694C134.641 103.696 134.641 103.699 134.642 103.701C134.642 103.701 134.642 103.702 134.642 103.702C134.643 103.703 134.643 103.704 134.644 103.705C134.645 103.708 134.645 103.711 134.646 103.713H134.646C134.647 103.715 134.647 103.716 134.648 103.717C134.648 103.717 134.648 103.717 134.648 103.718C134.649 103.72 134.65 103.722 134.651 103.725C134.651 103.727 134.652 103.728 134.652 103.729H134.652C134.653 103.732 134.654 103.734 134.655 103.737C134.655 103.738 134.656 103.739 134.656 103.74C134.656 103.741 134.656 103.741 134.656 103.741C134.657 103.742 134.657 103.744 134.658 103.745C134.658 103.746 134.659 103.747 134.659 103.748C134.66 103.75 134.66 103.751 134.661 103.752C134.661 103.752 134.661 103.752 134.661 103.752C134.661 103.754 134.662 103.755 134.662 103.756C134.663 103.759 134.664 103.761 134.665 103.764V103.764C134.666 103.766 134.666 103.767 134.667 103.768C134.668 103.771 134.668 103.773 134.669 103.776V103.776C134.67 103.777 134.67 103.778 134.671 103.78C134.672 103.782 134.673 103.785 134.674 103.787C134.674 103.789 134.675 103.79 134.675 103.791C134.677 103.794 134.678 103.796 134.679 103.799C134.679 103.8 134.679 103.802 134.68 103.803C134.68 103.803 134.68 103.803 134.68 103.803C134.681 103.806 134.682 103.808 134.683 103.811C134.684 103.812 134.684 103.813 134.684 103.814C134.684 103.814 134.685 103.814 134.685 103.815C134.685 103.816 134.686 103.817 134.686 103.819C134.687 103.82 134.687 103.821 134.688 103.822C134.688 103.824 134.689 103.825 134.689 103.826C134.689 103.826 134.689 103.826 134.689 103.826C134.69 103.828 134.69 103.829 134.691 103.83C134.691 103.831 134.692 103.833 134.692 103.834C134.693 103.835 134.693 103.836 134.694 103.837V103.838C134.694 103.839 134.695 103.84 134.695 103.841H134.695C134.696 103.844 134.697 103.846 134.699 103.849C134.699 103.849 134.699 103.849 134.699 103.849C134.699 103.851 134.699 103.852 134.7 103.853V103.853C134.701 103.856 134.702 103.858 134.703 103.86V103.861C134.704 103.862 134.704 103.863 134.705 103.864C134.705 103.864 134.705 103.864 134.705 103.864C134.706 103.867 134.707 103.869 134.708 103.872C134.708 103.872 134.708 103.872 134.708 103.872C134.708 103.873 134.709 103.875 134.71 103.875C134.71 103.875 134.71 103.876 134.71 103.876C134.71 103.877 134.711 103.878 134.711 103.879C134.712 103.881 134.712 103.882 134.713 103.883V103.884C134.713 103.885 134.714 103.886 134.714 103.887C134.714 103.887 134.714 103.887 134.714 103.888C134.715 103.889 134.716 103.89 134.716 103.891C134.716 103.891 134.716 103.891 134.716 103.891C134.717 103.892 134.717 103.893 134.718 103.895C134.718 103.895 134.718 103.895 134.718 103.895C134.718 103.896 134.719 103.897 134.719 103.899V103.899C134.72 103.9 134.72 103.901 134.721 103.902C134.721 103.902 134.721 103.903 134.721 103.903C134.721 103.904 134.722 103.905 134.722 103.906V103.906C134.723 103.908 134.723 103.909 134.724 103.91C134.724 103.91 134.724 103.91 134.724 103.911C134.725 103.912 134.725 103.913 134.726 103.914V103.914C134.726 103.916 134.727 103.917 134.727 103.918C134.728 103.919 134.728 103.92 134.729 103.921L134.729 103.922C134.73 103.923 134.73 103.924 134.731 103.925L134.731 103.926C134.732 103.928 134.733 103.93 134.734 103.933V103.933C134.735 103.934 134.735 103.936 134.736 103.936V103.937C134.737 103.939 134.738 103.942 134.739 103.944V103.944C134.74 103.946 134.74 103.947 134.741 103.948L134.741 103.948C134.742 103.951 134.743 103.953 134.744 103.955C134.744 103.955 134.744 103.956 134.745 103.956C134.745 103.957 134.746 103.958 134.746 103.959C134.746 103.959 134.746 103.959 134.746 103.959C134.747 103.961 134.747 103.962 134.748 103.963C134.749 103.964 134.749 103.965 134.75 103.966L134.75 103.967C134.75 103.968 134.751 103.969 134.751 103.97C134.751 103.97 134.752 103.97 134.752 103.971C134.752 103.972 134.753 103.973 134.753 103.974V103.974C134.754 103.975 134.755 103.977 134.755 103.978C134.756 103.979 134.756 103.98 134.757 103.981L134.757 103.982C134.758 103.983 134.758 103.984 134.759 103.985C134.759 103.985 134.759 103.986 134.759 103.986C134.759 103.987 134.76 103.988 134.761 103.989V103.989C134.761 103.991 134.762 103.992 134.762 103.993C134.762 103.993 134.762 103.993 134.763 103.993C134.763 103.995 134.764 103.996 134.764 103.997C134.764 103.997 134.764 103.997 134.764 103.997C134.765 103.998 134.765 104 134.766 104.001C134.767 104.002 134.767 104.003 134.768 104.004V104.005C134.768 104.006 134.769 104.007 134.77 104.008V104.009C134.77 104.01 134.771 104.011 134.771 104.012V104.012C134.772 104.013 134.773 104.014 134.773 104.015C134.773 104.016 134.773 104.016 134.773 104.016C134.774 104.017 134.774 104.018 134.775 104.019C134.775 104.02 134.775 104.02 134.775 104.02C134.776 104.021 134.777 104.022 134.777 104.023C134.778 104.024 134.778 104.026 134.779 104.027C134.779 104.027 134.779 104.027 134.779 104.027C134.78 104.028 134.78 104.029 134.781 104.03C134.781 104.031 134.781 104.031 134.781 104.031C134.782 104.032 134.782 104.033 134.783 104.034C134.783 104.034 134.783 104.034 134.783 104.035C134.783 104.036 134.784 104.037 134.784 104.038C134.784 104.038 134.784 104.038 134.784 104.038C134.785 104.039 134.786 104.041 134.786 104.041C134.786 104.042 134.786 104.042 134.786 104.042C134.787 104.043 134.788 104.044 134.788 104.045C134.788 104.045 134.788 104.046 134.788 104.046C134.789 104.047 134.789 104.048 134.79 104.049C134.79 104.049 134.79 104.049 134.79 104.049C134.791 104.05 134.791 104.051 134.792 104.053C134.792 104.053 134.792 104.053 134.792 104.053C134.793 104.054 134.793 104.055 134.794 104.057C134.794 104.057 134.794 104.057 134.794 104.057C134.794 104.058 134.795 104.059 134.795 104.06C134.795 104.06 134.795 104.06 134.796 104.06C134.796 104.061 134.797 104.063 134.798 104.064C134.798 104.064 134.798 104.064 134.798 104.064C134.798 104.065 134.799 104.067 134.799 104.068C134.799 104.068 134.799 104.068 134.799 104.068C134.8 104.069 134.801 104.07 134.801 104.071C134.801 104.071 134.801 104.071 134.801 104.072C134.802 104.073 134.802 104.074 134.803 104.075C134.803 104.075 134.803 104.075 134.803 104.076C134.804 104.077 134.804 104.078 134.805 104.079C134.805 104.079 134.805 104.079 134.805 104.079C134.806 104.08 134.806 104.081 134.807 104.082V104.083C134.808 104.084 134.808 104.085 134.809 104.086C134.809 104.086 134.809 104.086 134.809 104.086C134.81 104.088 134.81 104.088 134.811 104.09C134.811 104.09 134.811 104.09 134.811 104.09C134.812 104.093 134.813 104.095 134.815 104.097C134.815 104.097 134.815 104.097 134.815 104.097C134.815 104.099 134.816 104.1 134.817 104.101L134.817 104.101C134.817 104.102 134.818 104.103 134.819 104.104C134.819 104.105 134.819 104.105 134.819 104.105C134.819 104.106 134.82 104.107 134.821 104.108C134.821 104.108 134.821 104.108 134.821 104.109C134.821 104.11 134.822 104.111 134.823 104.112C134.823 104.112 134.823 104.112 134.823 104.113C134.823 104.113 134.824 104.115 134.825 104.116C134.825 104.116 134.825 104.116 134.825 104.116C134.825 104.117 134.826 104.118 134.826 104.119C134.826 104.119 134.827 104.12 134.827 104.12C134.827 104.121 134.828 104.122 134.828 104.123C134.829 104.123 134.829 104.123 134.829 104.124C134.829 104.125 134.83 104.126 134.831 104.127C134.831 104.127 134.831 104.127 134.831 104.128C134.832 104.128 134.832 104.129 134.832 104.13C134.833 104.13 134.833 104.131 134.833 104.131C134.833 104.132 134.834 104.133 134.834 104.134C134.835 104.134 134.835 104.135 134.835 104.135C134.836 104.136 134.836 104.137 134.837 104.138C134.837 104.138 134.837 104.138 134.837 104.139C134.838 104.139 134.838 104.14 134.839 104.141C134.839 104.141 134.839 104.142 134.839 104.142C134.84 104.143 134.84 104.144 134.841 104.145C134.841 104.145 134.841 104.145 134.841 104.146C134.842 104.147 134.842 104.148 134.843 104.149C134.843 104.149 134.843 104.149 134.843 104.15C134.844 104.151 134.844 104.151 134.845 104.152C134.845 104.153 134.845 104.153 134.845 104.153C134.846 104.154 134.846 104.155 134.847 104.156C134.847 104.156 134.847 104.157 134.847 104.157C134.848 104.158 134.848 104.159 134.849 104.16C134.849 104.16 134.849 104.161 134.85 104.161C134.85 104.162 134.85 104.162 134.851 104.163C134.851 104.164 134.851 104.164 134.852 104.164C134.852 104.165 134.853 104.166 134.853 104.167C134.853 104.167 134.853 104.168 134.854 104.168C134.854 104.169 134.855 104.17 134.855 104.171C134.855 104.171 134.856 104.171 134.856 104.172C134.856 104.173 134.857 104.173 134.857 104.174L134.858 104.175C134.858 104.175 134.859 104.177 134.859 104.178C134.86 104.178 134.86 104.179 134.86 104.179C134.86 104.18 134.861 104.181 134.862 104.182C134.862 104.182 134.862 104.182 134.862 104.183C134.863 104.184 134.863 104.185 134.864 104.185C134.864 104.186 134.864 104.186 134.864 104.187C134.865 104.187 134.865 104.188 134.866 104.189C134.866 104.189 134.866 104.189 134.866 104.19C134.867 104.191 134.867 104.192 134.868 104.193C134.868 104.193 134.868 104.193 134.869 104.194C134.869 104.195 134.87 104.195 134.87 104.196C134.87 104.197 134.87 104.197 134.871 104.197C134.871 104.198 134.872 104.199 134.872 104.2C134.872 104.2 134.872 104.2 134.873 104.201C134.873 104.202 134.874 104.203 134.874 104.203C134.875 104.204 134.875 104.204 134.875 104.205C134.875 104.206 134.876 104.206 134.877 104.207L134.877 104.208C134.877 104.208 134.878 104.21 134.878 104.211C134.879 104.211 134.879 104.211 134.879 104.212C134.88 104.213 134.88 104.213 134.881 104.214C134.881 104.215 134.881 104.215 134.881 104.215C134.882 104.216 134.882 104.217 134.883 104.218C134.883 104.219 134.883 104.219 134.884 104.219C134.884 104.22 134.884 104.221 134.885 104.221C134.885 104.222 134.885 104.222 134.886 104.223C134.886 104.224 134.887 104.224 134.887 104.225C134.887 104.225 134.888 104.226 134.888 104.226C134.888 104.227 134.889 104.228 134.889 104.229C134.89 104.229 134.89 104.23 134.89 104.23C134.891 104.231 134.891 104.232 134.891 104.232C134.892 104.233 134.892 104.233 134.892 104.233C134.893 104.234 134.893 104.235 134.894 104.236C134.894 104.236 134.894 104.237 134.894 104.237C134.895 104.238 134.895 104.239 134.896 104.24C134.896 104.24 134.897 104.241 134.897 104.241C134.897 104.242 134.898 104.242 134.898 104.243C134.898 104.244 134.899 104.244 134.899 104.245C134.899 104.245 134.9 104.246 134.9 104.247C134.9 104.247 134.901 104.247 134.901 104.248C134.902 104.249 134.902 104.25 134.903 104.25C134.903 104.251 134.903 104.252 134.903 104.252C134.904 104.252 134.904 104.253 134.904 104.253C134.905 104.254 134.905 104.255 134.906 104.256C134.906 104.256 134.906 104.257 134.907 104.257C134.907 104.258 134.907 104.258 134.908 104.259C134.908 104.259 134.909 104.26 134.909 104.261C134.909 104.262 134.91 104.262 134.91 104.263C134.91 104.263 134.911 104.264 134.911 104.264C134.911 104.265 134.912 104.266 134.912 104.266C134.913 104.267 134.913 104.267 134.913 104.268C134.914 104.269 134.914 104.269 134.914 104.27C134.915 104.27 134.915 104.271 134.916 104.272C134.916 104.272 134.916 104.273 134.917 104.273C134.917 104.274 134.917 104.274 134.918 104.275C134.918 104.276 134.919 104.276 134.919 104.277C134.919 104.278 134.92 104.278 134.92 104.279C134.92 104.279 134.921 104.28 134.921 104.28C134.922 104.281 134.922 104.282 134.922 104.282C134.923 104.283 134.923 104.283 134.923 104.284C134.924 104.284 134.924 104.285 134.925 104.286C134.925 104.287 134.925 104.287 134.926 104.288C134.926 104.288 134.926 104.289 134.927 104.289C134.927 104.29 134.928 104.291 134.928 104.291C134.928 104.292 134.929 104.292 134.929 104.293C134.93 104.293 134.93 104.294 134.93 104.295C134.931 104.295 134.931 104.296 134.932 104.297C134.932 104.297 134.932 104.298 134.933 104.298C134.933 104.299 134.933 104.299 134.934 104.3C134.934 104.3 134.935 104.301 134.935 104.302C134.935 104.303 134.936 104.303 134.936 104.304C134.936 104.304 134.937 104.305 134.937 104.305C134.937 104.306 134.938 104.306 134.938 104.306C134.938 104.307 134.939 104.308 134.94 104.309C134.94 104.309 134.94 104.31 134.94 104.31C134.941 104.311 134.942 104.312 134.942 104.313C134.942 104.313 134.943 104.314 134.943 104.314C134.943 104.315 134.944 104.315 134.944 104.316C134.944 104.316 134.945 104.317 134.945 104.318C134.946 104.318 134.946 104.319 134.947 104.32C134.947 104.32 134.947 104.32 134.947 104.321C134.948 104.322 134.948 104.323 134.949 104.324L134.95 104.324C134.95 104.324 134.95 104.326 134.951 104.326C134.951 104.327 134.952 104.327 134.952 104.328C134.953 104.329 134.953 104.329 134.953 104.33C134.953 104.33 134.954 104.331 134.954 104.331C134.955 104.332 134.955 104.333 134.956 104.334C134.956 104.334 134.956 104.335 134.957 104.335C134.957 104.336 134.958 104.337 134.959 104.339V104.339C134.959 104.339 134.96 104.34 134.96 104.341C134.96 104.341 134.961 104.341 134.961 104.341C134.961 104.342 134.962 104.343 134.963 104.344C134.963 104.345 134.963 104.345 134.963 104.345C134.964 104.346 134.965 104.348 134.966 104.349C134.966 104.349 134.966 104.349 134.966 104.349C134.966 104.35 134.967 104.35 134.967 104.351C134.968 104.351 134.968 104.352 134.968 104.352C134.969 104.353 134.969 104.354 134.97 104.355C134.97 104.355 134.97 104.355 134.97 104.356C134.971 104.357 134.972 104.358 134.973 104.359C134.973 104.359 134.973 104.359 134.973 104.36C134.974 104.361 134.976 104.364 134.977 104.365L134.977 104.366C134.978 104.367 134.979 104.368 134.98 104.369H134.98C134.981 104.372 134.983 104.373 134.984 104.375V104.376C134.985 104.377 134.986 104.378 134.987 104.38L134.987 104.38C134.988 104.382 134.99 104.384 134.991 104.385C134.991 104.385 134.991 104.386 134.991 104.386C134.992 104.387 134.993 104.389 134.994 104.39C134.996 104.392 134.997 104.394 134.998 104.396C134.999 104.397 135 104.398 135.001 104.399C135.001 104.399 135.001 104.4 135.001 104.4C135.003 104.403 135.005 104.406 135.008 104.41C135.176 104.645 135.381 104.853 135.614 105.025C135.737 105.116 135.882 105.16 136.025 105.16C136.234 105.16 136.441 105.066 136.576 104.888C136.803 104.587 136.741 104.161 136.437 103.936L136.433 103.929Z" fill="#9EA1A7"/>
<path d="M137.553 104.879C137.553 105.255 137.861 105.559 138.24 105.559H138.625V104.199H138.24C137.861 104.199 137.553 104.504 137.553 104.879Z" fill="#9EA1A7"/>
<path d="M137.937 77.68C137.937 77.3045 137.63 77 137.25 77H137.232C137.231 77 137.229 77 137.228 77.0002H137.214C137.213 77.0002 137.211 77.0003 137.21 77.0003H137.206C137.204 77.0003 137.203 77.0003 137.202 77.0003H137.197C137.196 77.0003 137.194 77.0003 137.193 77.0005H137.189C137.187 77.0005 137.186 77.0005 137.185 77.0005H137.179C137.178 77.0007 137.177 77.0007 137.176 77.0007H137.175C137.174 77.0007 137.172 77.0009 137.171 77.0009H137.17C137.169 77.0009 137.168 77.0009 137.167 77.0009H137.162C137.16 77.001 137.159 77.001 137.158 77.001H137.157C137.156 77.0012 137.155 77.0012 137.153 77.0012H137.153C137.151 77.0014 137.15 77.0014 137.149 77.0014C137.147 77.0014 137.146 77.0015 137.145 77.0015H137.144C137.143 77.0015 137.141 77.0015 137.14 77.0015H137.14C137.139 77.0015 137.137 77.0017 137.136 77.0017H137.136C137.134 77.0017 137.133 77.0017 137.132 77.0017H137.131C137.13 77.0019 137.129 77.0019 137.128 77.0019H137.127C137.126 77.002 137.124 77.002 137.123 77.0022H137.123C137.121 77.0022 137.12 77.0022 137.119 77.0022H137.118C137.117 77.0022 137.116 77.0024 137.114 77.0024H137.114C137.112 77.0026 137.111 77.0026 137.11 77.0026C137.108 77.0026 137.107 77.0026 137.106 77.0029H137.105C137.104 77.0029 137.102 77.0031 137.101 77.0031H137.101C137.099 77.0031 137.098 77.0031 137.097 77.0031C137.097 77.0032 137.096 77.0032 137.096 77.0032C137.095 77.0032 137.094 77.0034 137.092 77.0034H137.092C137.09 77.0036 137.089 77.0036 137.088 77.0036H137.087C137.086 77.0036 137.085 77.0039 137.083 77.0039H137.083C137.08 77.0039 137.077 77.0043 137.075 77.0044C137.075 77.0044 137.074 77.0044 137.074 77.0046C137.072 77.0046 137.071 77.0046 137.07 77.0046H137.07C137.069 77.0048 137.067 77.0048 137.066 77.0049H137.065C137.064 77.0049 137.063 77.0051 137.062 77.0053H137.061C137.06 77.0053 137.059 77.0054 137.057 77.0054H137.057C137.056 77.0054 137.054 77.0058 137.053 77.0058H137.053C137.051 77.006 137.05 77.0061 137.048 77.0061C137.047 77.0063 137.046 77.0063 137.045 77.0065H137.044C137.042 77.0065 137.041 77.0065 137.04 77.0068H137.04C137.039 77.007 137.037 77.007 137.036 77.0071H137.035C137.034 77.0071 137.033 77.0071 137.031 77.0075H137.031C137.03 77.0077 137.029 77.0077 137.027 77.0078C137.026 77.008 137.024 77.0082 137.023 77.0082H137.022C137.021 77.0083 137.02 77.0085 137.019 77.0085C137.019 77.0085 137.018 77.0085 137.018 77.0087C137.017 77.0087 137.016 77.0088 137.014 77.009H137.014C137.011 77.0092 137.009 77.0095 137.006 77.0097H137.005C137.004 77.0099 137.002 77.01 137.001 77.0102H137.001C137 77.0102 136.998 77.0104 136.997 77.0105H136.996C136.995 77.0107 136.993 77.0109 136.992 77.0109H136.992C136.991 77.0109 136.989 77.0112 136.988 77.0114H136.987C136.986 77.0116 136.985 77.0116 136.984 77.0117H136.983C136.981 77.0117 136.98 77.0121 136.979 77.0122C136.978 77.0124 136.976 77.0124 136.975 77.0126C136.975 77.0126 136.974 77.0126 136.974 77.0128C136.973 77.0128 136.971 77.0128 136.97 77.0131H136.97C136.969 77.0133 136.968 77.0134 136.966 77.0134C136.966 77.0134 136.966 77.0134 136.966 77.0134C136.964 77.0136 136.963 77.0136 136.962 77.0138H136.961C136.96 77.0139 136.959 77.0141 136.957 77.0143H136.957C136.956 77.0143 136.954 77.0146 136.953 77.0148H136.953C136.951 77.015 136.95 77.0151 136.949 77.0153H136.949C136.947 77.0153 136.946 77.0153 136.945 77.0156C136.944 77.0156 136.944 77.0158 136.944 77.0158C136.941 77.0162 136.939 77.0163 136.936 77.0167C136.936 77.0167 136.936 77.0167 136.935 77.0168C136.934 77.0168 136.933 77.017 136.931 77.0172H136.931C136.93 77.0172 136.929 77.0175 136.927 77.0177H136.927C136.926 77.0177 136.924 77.018 136.923 77.0182C136.923 77.0182 136.923 77.0182 136.923 77.0184C136.921 77.0184 136.92 77.0185 136.919 77.0187C136.919 77.0187 136.919 77.0187 136.918 77.0189C136.917 77.0189 136.916 77.0189 136.914 77.0192C136.914 77.0194 136.914 77.0194 136.914 77.0194C136.911 77.0197 136.909 77.0201 136.906 77.0204H136.905L136.901 77.0209C136.9 77.0209 136.899 77.0213 136.897 77.0214H136.897C136.895 77.0218 136.894 77.0219 136.893 77.0221C136.891 77.0223 136.89 77.0224 136.889 77.0226C136.887 77.0226 136.886 77.023 136.885 77.0233H136.884C136.881 77.0236 136.879 77.024 136.876 77.0243C136.876 77.0243 136.876 77.0243 136.875 77.0243C136.873 77.0247 136.87 77.025 136.868 77.0253C136.868 77.0253 136.867 77.0255 136.867 77.0255L136.863 77.026C136.861 77.0264 136.86 77.0265 136.859 77.0267C136.857 77.0269 136.856 77.027 136.854 77.0274C136.852 77.0277 136.849 77.0282 136.846 77.0286H136.846C136.843 77.0291 136.84 77.0294 136.838 77.0299H136.837C136.836 77.0301 136.835 77.0303 136.833 77.0306H136.833C136.832 77.0308 136.831 77.0309 136.829 77.0311H136.829C136.827 77.0315 136.826 77.0316 136.825 77.0318C136.825 77.032 136.825 77.032 136.825 77.032C136.824 77.0321 136.822 77.0323 136.821 77.0325H136.821C136.819 77.0328 136.818 77.033 136.817 77.0332H136.817C136.814 77.0335 136.811 77.034 136.808 77.0345H136.808C136.805 77.035 136.803 77.0354 136.8 77.0359H136.799C136.797 77.0364 136.794 77.0369 136.791 77.0372C136.791 77.0374 136.791 77.0374 136.791 77.0374C136.79 77.0374 136.788 77.0377 136.787 77.0381H136.787C136.784 77.0386 136.782 77.0391 136.779 77.0396H136.778C136.776 77.0401 136.773 77.0406 136.77 77.041C136.77 77.0411 136.77 77.0411 136.77 77.0411C136.767 77.0417 136.765 77.0422 136.762 77.0427H136.761C136.757 77.0434 136.753 77.0442 136.749 77.0449C136.749 77.0449 136.749 77.0451 136.749 77.0451C136.746 77.0456 136.743 77.0461 136.74 77.0466H136.74C136.738 77.0471 136.735 77.0476 136.732 77.0481C136.732 77.0481 136.732 77.0481 136.732 77.0481C136.725 77.0495 136.718 77.0508 136.711 77.0522C136.708 77.0529 136.706 77.0534 136.703 77.0539C136.7 77.0546 136.698 77.0551 136.695 77.0556C136.695 77.0556 136.695 77.0556 136.694 77.0556C136.693 77.0558 136.692 77.0561 136.69 77.0564C136.688 77.057 136.685 77.0576 136.682 77.0581H136.682C136.679 77.0588 136.677 77.0593 136.674 77.06H136.674C136.671 77.0607 136.668 77.0612 136.665 77.0619C135.942 77.219 135.324 77.6579 134.936 78.2551C134.731 78.5705 134.824 78.99 135.142 79.1933C135.257 79.267 135.386 79.302 135.514 79.302C135.74 79.302 135.961 79.1922 136.093 78.9904C136.35 78.5958 136.782 78.3602 137.25 78.3602C137.629 78.3602 137.937 78.0557 137.937 77.6802L137.937 77.68Z" fill="#9EA1A7"/>
<path d="M135.188 89.7284C135.567 89.7284 135.875 89.4241 135.875 89.0484V86.3284C135.875 85.9529 135.567 85.6484 135.188 85.6484C134.808 85.6484 134.5 85.9529 134.5 86.3284V89.0484C134.5 89.4241 134.808 89.7284 135.188 89.7284Z" fill="#9EA1A7"/>
<path d="M135.188 95.1698C135.567 95.1698 135.875 94.8655 135.875 94.4898V91.7698C135.875 91.3943 135.567 91.0898 135.188 91.0898C134.808 91.0898 134.5 91.3943 134.5 91.7698V94.4898C134.5 94.8655 134.808 95.1698 135.188 95.1698Z" fill="#9EA1A7"/>
<path d="M135.188 100.611C135.567 100.611 135.875 100.307 135.875 99.9312V97.2112C135.875 96.8357 135.567 96.5312 135.188 96.5312C134.808 96.5312 134.5 96.8357 134.5 97.2112V99.9312C134.5 100.307 134.808 100.611 135.188 100.611Z" fill="#9EA1A7"/>
<path d="M175.75 82.4414H142.75C141.238 82.4414 140 83.6654 140 85.1614V108.281C140 109.777 141.238 111.001 142.75 111.001H175.75C177.263 111.001 178.5 109.777 178.5 108.281V85.1614C178.5 83.6654 177.263 82.4414 175.75 82.4414ZM177.125 108.281C177.125 109.031 176.508 109.641 175.75 109.641H142.75C141.992 109.641 141.375 109.031 141.375 108.281V85.1614C141.375 84.4115 141.992 83.8014 142.75 83.8014H175.75C176.508 83.8014 177.125 84.4115 177.125 85.1614V108.281Z" fill="#9EA1A7"/>
<path d="M163.826 98.6149L166.007 97.5998C166.275 97.4754 166.432 97.1954 166.398 96.9049C166.363 96.6143 166.144 96.3782 165.855 96.3189L156.296 94.354C156.056 94.3046 155.805 94.3865 155.642 94.5689C155.478 94.7513 155.426 95.0063 155.505 95.2373L158.461 103.9C158.553 104.167 158.802 104.351 159.088 104.362C159.372 104.372 159.636 104.206 159.746 103.946L160.671 101.771L164.539 105.056C164.668 105.166 164.827 105.22 164.986 105.22C165.166 105.22 165.345 105.151 165.479 105.015L167.648 102.814C167.781 102.679 167.851 102.497 167.843 102.309C167.835 102.121 167.748 101.945 167.604 101.823L163.826 98.6151V98.6149ZM164.945 103.608L160.851 100.131C160.725 100.025 160.565 99.9674 160.403 99.9674C160.35 99.9674 160.297 99.9734 160.245 99.9854C160.031 100.035 159.854 100.183 159.769 100.384L159.183 101.762L157.192 95.927L163.56 97.2359L162.28 97.8314C162.069 97.9295 161.923 98.1267 161.891 98.3551C161.86 98.5838 161.948 98.8123 162.125 98.9626L166.153 102.383L164.945 103.608L164.945 103.608Z" fill="#9EA1A7"/>
<path d="M152.861 90.4609C152.593 90.1953 152.157 90.1953 151.889 90.4609C151.62 90.7264 151.62 91.157 151.889 91.4224L153.951 93.4624C154.085 93.5952 154.262 93.6616 154.437 93.6616C154.613 93.6616 154.789 93.5952 154.923 93.4624C155.192 93.1969 155.192 92.7662 154.923 92.5009L152.861 90.4609Z" fill="#9EA1A7"/>
<path d="M158.219 93.3219C158.598 93.3219 158.906 93.0174 158.906 92.6419V90.6019C158.906 90.2263 158.598 89.9219 158.219 89.9219C157.839 89.9219 157.531 90.2263 157.531 90.6019V92.6419C157.531 93.0174 157.839 93.3219 158.219 93.3219Z" fill="#9EA1A7"/>
<path d="M153.637 95.3687L151.575 95.7087C151.2 95.7704 150.947 96.1208 151.009 96.4912C151.065 96.8239 151.357 97.0597 151.687 97.0597C151.724 97.0597 151.762 97.0565 151.801 97.0502L153.863 96.7102C154.238 96.6485 154.491 96.2981 154.428 95.9277C154.366 95.5571 154.009 95.307 153.637 95.3687Z" fill="#9EA1A7"/>
</g>
<defs>
<clipPath id="clip0_16875_81982">
<rect width="111" height="111" fill="white" transform="translate(45.5)"/>
</clipPath>
<clipPath id="clip1_16875_81982">
<rect width="44" height="34" fill="white" transform="translate(134.5 77)"/>
</clipPath>
</defs>
</svg>
