<svg width="30" height="30" viewBox="0 0 30 30" fill="none" xmlns="http://www.w3.org/2000/svg">
<path d="M0.5 4C0.5 2.067 2.067 0.5 4 0.5H26C27.933 0.5 29.5 2.067 29.5 4V26C29.5 27.933 27.933 29.5 26 29.5H4C2.067 29.5 0.5 27.933 0.5 26V4Z" fill="white"/>
<path d="M0.5 4C0.5 2.067 2.067 0.5 4 0.5H26C27.933 0.5 29.5 2.067 29.5 4V26C29.5 27.933 27.933 29.5 26 29.5H4C2.067 29.5 0.5 27.933 0.5 26V4Z" stroke="#171C8F"/>
<g clip-path="url(#clip0_16057_63405)">
<path d="M16.333 23C16.1887 23 16.0484 22.9532 15.933 22.8667L13.2663 20.8667C13.1835 20.8046 13.1163 20.724 13.07 20.6315C13.0238 20.5389 12.9997 20.4368 12.9997 20.3333V16.5867L8.32233 11.3247C7.99014 10.9499 7.77325 10.4872 7.69771 9.99216C7.62218 9.4971 7.69122 8.99077 7.89654 8.53401C8.10186 8.07725 8.43472 7.68951 8.85512 7.41738C9.27551 7.14525 9.76555 7.00032 10.2663 7H19.733C20.2337 7.00059 20.7237 7.14576 21.1439 7.41807C21.5641 7.69038 21.8967 8.07825 22.1018 8.53506C22.3069 8.99187 22.3758 9.49818 22.3 9.99316C22.2243 10.4881 22.0073 10.9507 21.675 11.3253L16.9997 16.5867V22.3333C16.9997 22.5101 16.9294 22.6797 16.8044 22.8047C16.6794 22.9298 16.5098 23 16.333 23ZM14.333 20L15.6663 21V16.3333C15.6665 16.1701 15.7265 16.0126 15.835 15.8907L20.6803 10.4393C20.8419 10.2567 20.9473 10.0314 20.984 9.7903C21.0206 9.54924 20.9869 9.30274 20.8868 9.08037C20.7868 8.85801 20.6247 8.66924 20.4201 8.53673C20.2154 8.40421 19.9768 8.33359 19.733 8.33333H10.2663C10.0226 8.3337 9.78421 8.40436 9.57966 8.53684C9.37512 8.66932 9.21313 8.858 9.11313 9.08023C9.01313 9.30247 8.97937 9.54884 9.01588 9.78979C9.05239 10.0307 9.15764 10.256 9.31899 10.4387L14.165 15.8907C14.2733 16.0127 14.333 16.1702 14.333 16.3333V20Z" fill="#171C8F"/>
</g>
<defs>
<clipPath id="clip0_16057_63405">
<rect width="16" height="16" fill="white" transform="translate(7 7)"/>
</clipPath>
</defs>
</svg>
