<svg width="30" height="30" viewBox="0 0 30 30" fill="none" xmlns="http://www.w3.org/2000/svg">
<path d="M0.5 4C0.5 2.067 2.067 0.5 4 0.5H26C27.933 0.5 29.5 2.067 29.5 4V26C29.5 27.933 27.933 29.5 26 29.5H4C2.067 29.5 0.5 27.933 0.5 26V4Z" fill="white"/>
<path d="M0.5 4C0.5 2.067 2.067 0.5 4 0.5H26C27.933 0.5 29.5 2.067 29.5 4V26C29.5 27.933 27.933 29.5 26 29.5H4C2.067 29.5 0.5 27.933 0.5 26V4Z" stroke="#171C8F"/>
<g clip-path="url(#clip0_16057_63439)">
<path d="M22.3327 17.668C22.1559 17.668 21.9863 17.7382 21.8613 17.8632C21.7362 17.9883 21.666 18.1578 21.666 18.3346V19.668C21.666 20.1984 21.4553 20.7071 21.0802 21.0822C20.7052 21.4572 20.1964 21.668 19.666 21.668H18.3327C18.1559 21.668 17.9863 21.7382 17.8613 21.8632C17.7363 21.9882 17.666 22.1578 17.666 22.3346C17.666 22.5114 17.7363 22.681 17.8613 22.806C17.9863 22.9311 18.1559 23.0013 18.3327 23.0013H19.666C20.5497 23.0002 21.397 22.6487 22.0219 22.0238C22.6468 21.3989 22.9983 20.5517 22.9993 19.668V18.3346C22.9993 18.1578 22.9291 17.9883 22.8041 17.8632C22.6791 17.7382 22.5095 17.668 22.3327 17.668Z" fill="#171C8F"/>
<path d="M11.6667 7H10.3333C9.4496 7.00106 8.60237 7.35259 7.97748 7.97748C7.35259 8.60237 7.00106 9.4496 7 10.3333L7 11.6667C7 11.8435 7.07024 12.013 7.19526 12.1381C7.32029 12.2631 7.48986 12.3333 7.66667 12.3333C7.84348 12.3333 8.01305 12.2631 8.13807 12.1381C8.2631 12.013 8.33333 11.8435 8.33333 11.6667V10.3333C8.33333 9.8029 8.54405 9.29419 8.91912 8.91912C9.29419 8.54405 9.8029 8.33333 10.3333 8.33333H11.6667C11.8435 8.33333 12.013 8.2631 12.1381 8.13807C12.2631 8.01305 12.3333 7.84348 12.3333 7.66667C12.3333 7.48986 12.2631 7.32029 12.1381 7.19526C12.013 7.07024 11.8435 7 11.6667 7V7Z" fill="#171C8F"/>
<path d="M11.6667 21.668H10.3333C9.8029 21.668 9.29419 21.4572 8.91912 21.0822C8.54405 20.7071 8.33333 20.1984 8.33333 19.668V18.3346C8.33333 18.1578 8.2631 17.9883 8.13807 17.8632C8.01305 17.7382 7.84348 17.668 7.66667 17.668C7.48986 17.668 7.32029 17.7382 7.19526 17.8632C7.07024 17.9883 7 18.1578 7 18.3346V19.668C7.00106 20.5517 7.35259 21.3989 7.97748 22.0238C8.60237 22.6487 9.4496 23.0002 10.3333 23.0013H11.6667C11.8435 23.0013 12.013 22.9311 12.1381 22.806C12.2631 22.681 12.3333 22.5114 12.3333 22.3346C12.3333 22.1578 12.2631 21.9882 12.1381 21.8632C12.013 21.7382 11.8435 21.668 11.6667 21.668Z" fill="#171C8F"/>
<path d="M19.666 7H18.3327C18.1559 7 17.9863 7.07024 17.8613 7.19526C17.7363 7.32029 17.666 7.48986 17.666 7.66667C17.666 7.84348 17.7363 8.01305 17.8613 8.13807C17.9863 8.2631 18.1559 8.33333 18.3327 8.33333H19.666C20.1964 8.33333 20.7052 8.54405 21.0802 8.91912C21.4553 9.29419 21.666 9.8029 21.666 10.3333V11.6667C21.666 11.8435 21.7362 12.013 21.8613 12.1381C21.9863 12.2631 22.1559 12.3333 22.3327 12.3333C22.5095 12.3333 22.6791 12.2631 22.8041 12.1381C22.9291 12.013 22.9993 11.8435 22.9993 11.6667V10.3333C22.9983 9.4496 22.6468 8.60237 22.0219 7.97748C21.397 7.35259 20.5497 7.00106 19.666 7V7Z" fill="#171C8F"/>
</g>
<defs>
<clipPath id="clip0_16057_63439">
<rect width="16" height="16" fill="white" transform="translate(7 7)"/>
</clipPath>
</defs>
</svg>
