<svg width="17" height="16" viewBox="0 0 17 16" fill="none" xmlns="http://www.w3.org/2000/svg">
<path d="M12.5401 9.6515L10.1494 12.0422C9.70486 12.4664 9.11395 12.7031 8.49943 12.7031C7.88491 12.7031 7.29401 12.4664 6.84943 12.0422L4.45877 9.6515C4.27126 9.46391 4.16595 9.20951 4.16602 8.94427C4.16608 8.67903 4.2715 8.42468 4.4591 8.23717C4.6467 8.04966 4.9011 7.94436 5.16634 7.94442C5.43157 7.94448 5.68593 8.04991 5.87343 8.2375L7.49943 9.8635V3.33484C7.49943 3.06962 7.60479 2.81527 7.79233 2.62773C7.97986 2.4402 8.23422 2.33484 8.49943 2.33484C8.76465 2.33484 9.019 2.4402 9.20654 2.62773C9.39408 2.81527 9.49943 3.06962 9.49943 3.33484V9.8635L11.1254 8.2375C11.2183 8.14462 11.3285 8.07092 11.4498 8.02064C11.5712 7.97035 11.7012 7.94445 11.8325 7.94442C11.9639 7.94439 12.0939 7.97023 12.2153 8.02046C12.3366 8.07069 12.4469 8.14433 12.5398 8.23717C12.6327 8.33002 12.7063 8.44025 12.7566 8.56157C12.8069 8.68289 12.8328 8.81294 12.8329 8.94427C12.8329 9.0756 12.807 9.20565 12.7568 9.327C12.7066 9.44835 12.6329 9.55862 12.5401 9.6515Z" fill="#D83B01"/>
</svg>
