<svg width="30" height="30" viewBox="0 0 30 30" fill="none" xmlns="http://www.w3.org/2000/svg">
<path d="M0.5 4C0.5 2.067 2.067 0.5 4 0.5H26C27.933 0.5 29.5 2.067 29.5 4V26C29.5 27.933 27.933 29.5 26 29.5H4C2.067 29.5 0.5 27.933 0.5 26V4Z" fill="white"/>
<path d="M0.5 4C0.5 2.067 2.067 0.5 4 0.5H26C27.933 0.5 29.5 2.067 29.5 4V26C29.5 27.933 27.933 29.5 26 29.5H4C2.067 29.5 0.5 27.933 0.5 26V4Z" stroke="#171C8F"/>
<path d="M14.0659 15.4726C14.0034 15.4106 13.9538 15.3369 13.92 15.2556C13.8861 15.1744 13.8687 15.0872 13.8687 14.9992C13.8687 14.9112 13.8861 14.8241 13.92 14.7428C13.9538 14.6616 14.0034 14.5879 14.0659 14.5259L17.1259 11.4726C17.1884 11.4106 17.238 11.3369 17.2719 11.2556C17.3057 11.1744 17.3231 11.0872 17.3231 10.9992C17.3231 10.9112 17.3057 10.8241 17.2719 10.7428C17.238 10.6616 17.1884 10.5879 17.1259 10.5259C17.001 10.4017 16.832 10.332 16.6559 10.332C16.4798 10.332 16.3108 10.4017 16.1859 10.5259L13.1259 13.5859C12.7514 13.9609 12.541 14.4692 12.541 14.9992C12.541 15.5292 12.7514 16.0376 13.1259 16.4126L16.1859 19.4726C16.3101 19.5957 16.4777 19.6652 16.6526 19.6659C16.7403 19.6664 16.8273 19.6496 16.9085 19.6164C16.9898 19.5832 17.0636 19.5343 17.1259 19.4726C17.1884 19.4106 17.238 19.3369 17.2719 19.2556C17.3057 19.1744 17.3231 19.0872 17.3231 18.9992C17.3231 18.9112 17.3057 18.8241 17.2719 18.7428C17.238 18.6616 17.1884 18.5879 17.1259 18.5259L14.0659 15.4726Z" fill="#171C8F"/>
</svg>
