<svg width="30" height="30" viewBox="0 0 30 30" fill="none" xmlns="http://www.w3.org/2000/svg">
<rect x="0.5" y="0.5" width="29" height="29" rx="3.5" fill="white"/>
<rect x="0.5" y="0.5" width="29" height="29" rx="3.5" stroke="#171C8F"/>
<g clip-path="url(#clip0_16901_75545)">
<path d="M22.3333 21.6667H10.3333C9.8029 21.6667 9.29419 21.456 8.91912 21.0809C8.54405 20.7058 8.33333 20.1971 8.33333 19.6667V7.66667C8.33333 7.48986 8.2631 7.32029 8.13807 7.19526C8.01305 7.07024 7.84348 7 7.66667 7C7.48986 7 7.32029 7.07024 7.19526 7.19526C7.07024 7.32029 7 7.48986 7 7.66667V19.6667C7.00106 20.5504 7.35259 21.3976 7.97748 22.0225C8.60237 22.6474 9.4496 22.9989 10.3333 23H22.3333C22.5101 23 22.6797 22.9298 22.8047 22.8047C22.9298 22.6797 23 22.5101 23 22.3333C23 22.1565 22.9298 21.987 22.8047 21.8619C22.6797 21.7369 22.5101 21.6667 22.3333 21.6667Z" fill="#171C8F"/>
<path d="M10.9997 20.332C11.1765 20.332 11.3461 20.2618 11.4711 20.1368C11.5961 20.0117 11.6663 19.8422 11.6663 19.6654V14.9987C11.6663 14.8219 11.5961 14.6523 11.4711 14.5273C11.3461 14.4023 11.1765 14.332 10.9997 14.332C10.8229 14.332 10.6533 14.4023 10.5283 14.5273C10.4032 14.6523 10.333 14.8219 10.333 14.9987V19.6654C10.333 19.8422 10.4032 20.0117 10.5283 20.1368C10.6533 20.2618 10.8229 20.332 10.9997 20.332Z" fill="#171C8F"/>
<path d="M13.667 13.6667V19.6667C13.667 19.8435 13.7372 20.013 13.8623 20.1381C13.9873 20.2631 14.1569 20.3333 14.3337 20.3333C14.5105 20.3333 14.68 20.2631 14.8051 20.1381C14.9301 20.013 15.0003 19.8435 15.0003 19.6667V13.6667C15.0003 13.4899 14.9301 13.3203 14.8051 13.1953C14.68 13.0702 14.5105 13 14.3337 13C14.1569 13 13.9873 13.0702 13.8623 13.1953C13.7372 13.3203 13.667 13.4899 13.667 13.6667Z" fill="#171C8F"/>
<path d="M17 15.6667V19.6667C17 19.8435 17.0702 20.013 17.1953 20.1381C17.3203 20.2631 17.4899 20.3333 17.6667 20.3333C17.8435 20.3333 18.0131 20.2631 18.1381 20.1381C18.2631 20.013 18.3333 19.8435 18.3333 19.6667V15.6667C18.3333 15.4899 18.2631 15.3203 18.1381 15.1953C18.0131 15.0702 17.8435 15 17.6667 15C17.4899 15 17.3203 15.0702 17.1953 15.1953C17.0702 15.3203 17 15.4899 17 15.6667Z" fill="#171C8F"/>
<path d="M20.333 12.9987V19.6654C20.333 19.8422 20.4032 20.0117 20.5283 20.1368C20.6533 20.2618 20.8229 20.332 20.9997 20.332C21.1765 20.332 21.3461 20.2618 21.4711 20.1368C21.5961 20.0117 21.6663 19.8422 21.6663 19.6654V12.9987C21.6663 12.8219 21.5961 12.6523 21.4711 12.5273C21.3461 12.4023 21.1765 12.332 20.9997 12.332C20.8229 12.332 20.6533 12.4023 20.5283 12.5273C20.4032 12.6523 20.333 12.8219 20.333 12.9987Z" fill="#171C8F"/>
<path d="M10.9995 12.9996C11.1763 12.9996 11.3459 12.9293 11.4709 12.8043L13.8615 10.4136C13.9886 10.2926 14.1574 10.225 14.3329 10.225C14.5084 10.225 14.6771 10.2926 14.8042 10.4136L16.2522 11.8616C16.6273 12.2366 17.1359 12.4472 17.6662 12.4472C18.1965 12.4472 18.7051 12.2366 19.0802 11.8616L22.8042 8.13762C22.9256 8.01189 22.9928 7.84348 22.9913 7.66869C22.9898 7.49389 22.9197 7.32668 22.7961 7.20307C22.6725 7.07947 22.5053 7.00936 22.3305 7.00784C22.1557 7.00632 21.9873 7.07352 21.8615 7.19495L18.1375 10.9183C18.0125 11.0433 17.843 11.1135 17.6662 11.1135C17.4894 11.1135 17.3199 11.0433 17.1949 10.9183L15.7469 9.47095C15.3718 9.09601 14.8632 8.88538 14.3329 8.88538C13.8025 8.88538 13.2939 9.09601 12.9189 9.47095L10.5282 11.8616C10.435 11.9549 10.3715 12.0736 10.3458 12.2029C10.3201 12.3322 10.3333 12.4663 10.3837 12.5881C10.4342 12.7099 10.5196 12.814 10.6292 12.8872C10.7388 12.9605 10.8677 12.9996 10.9995 12.9996Z" fill="#171C8F"/>
</g>
<defs>
<clipPath id="clip0_16901_75545">
<rect width="16" height="16" fill="white" transform="translate(7 7)"/>
</clipPath>
</defs>
</svg>
