<svg width="17" height="16" viewBox="0 0 17 16" fill="none" xmlns="http://www.w3.org/2000/svg">
<path d="M8.2207 9.99219C7.11614 9.99219 6.2207 10.8876 6.2207 11.9922V15.9922H10.2207V11.9922C10.2207 10.8876 9.32527 9.99219 8.2207 9.99219Z" fill="#B8BABD"/>
<path d="M11.554 11.9939V15.9939H14.2207C15.3253 15.9939 16.2207 15.0985 16.2207 13.9939V7.91329C16.2209 7.56694 16.0863 7.23413 15.8454 6.98529L10.18 0.8606C9.18042 -0.220963 7.4933 -0.287369 6.41173 0.712256C6.36036 0.759756 6.31086 0.809225 6.26339 0.8606L0.608047 6.98329C0.359859 7.23316 0.220609 7.5711 0.220703 7.92329V13.9939C0.220703 15.0985 1.11614 15.9939 2.2207 15.9939H4.88736V11.9939C4.89983 10.1761 6.36755 8.69157 8.13964 8.64882C9.97102 8.60463 11.5401 10.1144 11.554 11.9939Z" fill="#B8BABD"/>
</svg>
