<svg width="174" height="28" viewBox="0 0 174 28" fill="none" xmlns="http://www.w3.org/2000/svg">
<g clip-path="url(#clip0_16057_63653)">
<path d="M35.6523 2.89229C36.1383 3.30442 36.5929 3.75153 37.0125 4.22997C42.3734 4.08204 46.3107 5.35048 47.2926 7.74257C48.0299 9.54294 46.9749 11.8343 44.6169 14.217C44.3685 13.9701 44.0694 13.7791 43.7399 13.6567C43.2427 13.4714 42.6988 13.4478 42.1872 13.5892C41.6755 13.7306 41.2226 14.0296 40.894 14.4431C40.5655 14.8565 40.3784 15.3628 40.3598 15.8886C40.3413 16.4144 40.4922 16.9325 40.7909 17.3676C39.9837 17.9279 39.1172 18.4808 38.1914 19.0263C38.112 19.1554 38.0293 19.2781 37.9435 19.404C39.0304 18.8406 40.0727 18.2678 41.0546 17.6855C41.4598 18.106 42.0016 18.3717 42.5848 18.4361C43.1681 18.5005 43.7556 18.3594 44.2443 18.0375C44.7331 17.7157 45.0918 17.2337 45.2575 16.6761C45.4233 16.1185 45.3855 15.5209 45.1508 14.9881C49.9715 11.4314 52.4979 7.88421 51.4587 5.35363C50.1908 2.25965 43.9146 1.48221 35.6523 2.89229Z" fill="#171C8F"/>
<path d="M31.6644 1.92267C30.1776 1.366 28.5946 1.10492 27.0058 1.15435C25.417 1.20377 23.8537 1.56274 22.405 2.21075C20.9563 2.85875 19.6508 3.78309 18.5629 4.93096C17.475 6.07883 16.626 7.42776 16.0646 8.90066C15.8489 9.46743 15.6758 10.0492 15.5466 10.6412C18.7562 8.78105 20.9966 7.70461 22.5219 7.13491C22.3378 6.46644 22.4217 5.75334 22.7561 5.14475C23.0906 4.53615 23.6496 4.0792 24.3164 3.86943C24.9831 3.65967 25.7059 3.71334 26.3337 4.01924C26.9614 4.32513 27.4454 4.85955 27.6845 5.51074C27.9235 6.16193 27.8992 6.87945 27.6164 7.51325C27.3337 8.14705 26.8146 8.64805 26.1675 8.91148C25.5205 9.1749 24.7956 9.18034 24.1446 8.92667C23.4936 8.673 22.9668 8.17986 22.6744 7.55038C20.0147 8.78324 17.5383 10.3718 15.3146 12.2716C15.1774 14.1561 15.4909 16.046 16.2297 17.7879C16.9685 19.5297 18.1117 21.0744 19.5665 22.2964C19.8261 22.018 20.1753 21.8376 20.5544 21.7862C20.9334 21.7347 21.3187 21.8154 21.6443 22.0144C21.9699 22.2134 22.2155 22.5184 22.3391 22.877C22.4627 23.2356 22.4565 23.6257 22.3217 23.9803C22.314 23.9944 22.3076 24.0091 22.3026 24.0243C22.5664 24.144 22.8365 24.2604 23.113 24.3643C26.1163 25.4875 29.4471 25.3829 32.3727 24.0737C35.2982 22.7645 37.5788 20.3578 38.7128 17.3832C39.8468 14.4085 39.7413 11.1094 38.4195 8.21179C37.0976 5.31416 34.6678 3.05529 31.6644 1.93211V1.92267Z" fill="#171C8F"/>
<path d="M23.8943 24.8148C23.298 24.6868 22.7109 24.5196 22.137 24.3144C21.9118 24.6425 21.5734 24.878 21.1854 24.9767C20.7974 25.0755 20.3864 25.0307 20.0293 24.8508C19.6723 24.6709 19.3937 24.3682 19.2459 23.9994C19.098 23.6307 19.091 23.2212 19.2261 22.8476C17.7039 21.8484 16.4155 20.5378 15.4474 19.0041C14.4794 17.4703 13.8543 15.749 13.6141 13.956C10.5031 17.4371 9.26373 21.1606 10.7827 23.6754C11.9013 25.523 14.3101 26.376 17.3195 26.2721C10.9321 27.0842 6.10182 26.1588 4.99912 23.4708C3.79791 20.5468 7.33798 15.898 13.5252 11.8786C13.5466 11.3785 13.5997 10.8803 13.6841 10.3867C4.43983 15.1866 -1.25162 20.8206 0.232415 24.4025C1.90076 28.469 12.2 28.5383 24.3043 24.8998L24.174 24.8746C24.0818 24.8589 24.0087 24.84 23.8943 24.8148Z" fill="#171C8F"/>
<path d="M60.7919 4.45312H55.0273V21.5566H60.7919V4.45312Z" fill="#171C8F"/>
<path d="M75.9276 10.3579C74.6564 9.25423 72.7127 8.70132 70.0963 8.69922C67.4799 8.69713 65.5489 9.25003 64.3032 10.3579C63.032 11.4659 62.3965 13.0994 62.3965 15.2586C62.3965 17.4178 63.032 19.0513 64.3032 20.1592C65.5743 21.263 67.5096 21.8159 70.109 21.818C72.7085 21.8201 74.6564 21.2671 75.953 20.1592C77.2241 19.0513 77.8597 17.4178 77.8597 15.2586C77.8597 13.0994 77.2156 11.4659 75.9276 10.3579ZM71.5263 17.1439C71.3488 17.3388 71.1282 17.4904 70.8818 17.587C70.6355 17.6836 70.3699 17.7227 70.1058 17.701C69.8474 17.7221 69.5877 17.6826 69.3475 17.5859C69.1074 17.4891 68.8936 17.3377 68.7235 17.1439C68.429 16.7725 68.2818 16.143 68.2818 15.2554C68.2818 14.3679 68.429 13.7384 68.7235 13.367C68.8936 13.1732 69.1074 13.0218 69.3475 12.925C69.5877 12.8283 69.8474 12.7888 70.1058 12.8098C70.3699 12.7882 70.6355 12.8272 70.8818 12.9239C71.1282 13.0205 71.3488 13.1721 71.5263 13.367C71.8271 13.7384 71.9786 14.3679 71.9807 15.2554C71.9829 16.143 71.8314 16.7725 71.5263 17.1439Z" fill="#171C8F"/>
<path d="M74.7578 8.62355H79.3688V21.5566H85.1333V8.62355H89.7729V4.45312H74.7578V8.62355Z" fill="#171C8F"/>
<path d="M99.1992 21.5567C97.0319 21.5567 95.2894 21.2819 93.9717 20.7321V18.2582C94.7541 18.5453 95.5586 18.7695 96.3773 18.9286C97.2202 19.0996 98.0783 19.1861 98.9386 19.1867C100.273 19.1867 101.274 19.0325 101.942 18.724C102.609 18.4093 102.943 17.7955 102.943 16.867C102.968 16.3786 102.821 15.8966 102.526 15.5041C102.151 15.0963 101.678 14.7898 101.15 14.6134C100.283 14.2971 99.3971 14.0354 98.4969 13.8297C96.6961 13.3659 95.4303 12.7773 94.6994 12.0639C93.9685 11.3505 93.6052 10.3674 93.6094 9.11472C93.5804 8.45768 93.7116 7.8034 93.9921 7.20728C94.2725 6.61116 94.6939 6.09079 95.2206 5.69025C96.2947 4.8656 97.8984 4.45328 100.032 4.45328C100.95 4.44933 101.867 4.5188 102.774 4.66102C103.458 4.75515 104.133 4.91 104.789 5.1237V7.59448C103.392 7.08325 101.912 6.83041 100.423 6.84853C99.1727 6.84853 98.2014 7.0122 97.5086 7.33954C96.8158 7.65429 96.4695 8.2586 96.4695 9.11472C96.4487 9.54756 96.5764 9.97464 96.8317 10.3265C97.1757 10.7007 97.6147 10.9767 98.1028 11.126C98.7003 11.3505 99.5286 11.5991 100.588 11.8719C101.704 12.1176 102.775 12.5305 103.766 13.0963C104.442 13.485 104.993 14.0558 105.355 14.7424C105.666 15.4075 105.822 16.1339 105.809 16.867C105.838 17.5288 105.704 18.1876 105.419 18.7868C105.134 19.3861 104.706 19.9078 104.172 20.3072C103.075 21.1423 101.417 21.5588 99.1992 21.5567Z" fill="#171C8F"/>
<path d="M108.561 21.2953V4.70801H116.016C117.121 4.66441 118.218 4.91321 119.193 5.42879C119.998 5.88251 120.643 6.57035 121.04 7.39911C121.448 8.28786 121.652 9.25543 121.637 10.2319C121.637 11.8811 121.121 13.2031 120.09 14.1977C119.058 15.1923 117.667 15.6906 115.917 15.6927H111.395V21.2827L108.561 21.2953ZM111.395 13.4895H115.399C116.527 13.4895 117.376 13.1999 117.941 12.6145C118.236 12.2957 118.464 11.9219 118.611 11.515C118.759 11.1081 118.822 10.6761 118.799 10.2444C118.799 9.18059 118.526 8.357 117.98 7.77366C117.433 7.18823 116.616 6.89551 115.523 6.89551H111.392L111.395 13.4895Z" fill="#171C8F"/>
<path d="M121.328 21.2982L127.725 4.71094H130.903L137.258 21.2982H134.344L132.682 17.0208H125.93L124.277 21.2982H121.328ZM126.371 14.8584H132.196L129.285 7.26041L126.371 14.8584Z" fill="#171C8F"/>
<path d="M146.449 21.5571C143.695 21.5571 141.611 20.8101 140.195 19.3161C138.78 17.8221 138.074 15.8045 138.076 13.2634C138.035 11.6508 138.341 10.0481 138.972 8.56109C139.536 7.28524 140.497 6.22114 141.714 5.52377C142.947 4.81034 144.516 4.45362 146.421 4.45362C148.094 4.43991 149.756 4.71031 151.337 5.25309V7.69868C150.618 7.4168 149.873 7.20594 149.112 7.06918C148.294 6.91901 147.463 6.84525 146.63 6.84887C144.548 6.84887 143.079 7.39862 142.223 8.49815C141.367 9.59767 140.938 11.1861 140.936 13.2634C140.936 15.2023 141.404 16.6711 142.34 17.6699C143.277 18.6687 144.724 19.1713 146.681 19.1776C147.487 19.1765 148.292 19.1112 149.087 18.9824C149.865 18.8643 150.628 18.6616 151.362 18.3781V20.852C150.628 21.0845 149.875 21.2561 149.112 21.3651C148.231 21.4959 147.341 21.56 146.449 21.5571Z" fill="#171C8F"/>
<path d="M154.121 21.2982V4.71094H165.796V6.89844H156.956V11.9344H164.833V14.0999H156.956V19.1359H165.796V21.2982H154.121Z" fill="#171C8F"/>
</g>
<defs>
<clipPath id="clip0_16057_63653">
<rect width="173.689" height="27" fill="white" transform="translate(0 0.5)"/>
</clipPath>
</defs>
</svg>
