<svg width="187" height="20" viewBox="0 0 187 20" fill="none" xmlns="http://www.w3.org/2000/svg">
<g clip-path="url(#clip0_16057_63655)">
<path d="M10.6331 0C7.62825 2.54215 4.22285 4.59599 0.547737 6.08258L13.6049 15.1903L12.8609 15.5287L7.44627 12.0403C5.702 10.8761 1.33307 11.7019 0.460938 13.148L10.5049 19.996C13.4437 17.3057 16.8802 15.1842 20.6316 13.7442L7.44627 4.80564L8.1448 4.25378L12.4228 7.25076C14.5639 8.74119 16.2668 9.12387 20.8507 6.91239L10.6331 0Z" fill="#9D9FA1"/>
<path fill-rule="evenodd" clip-rule="evenodd" d="M116.818 10.7236C114.855 10.4255 114.024 9.31773 114.024 7.90383C114.024 5.30967 116.645 4.62891 119.964 4.62891C124.548 4.62891 126.424 5.77694 126.557 7.90383H121.84C121.837 7.72431 121.776 7.55035 121.666 7.40601C121.557 7.26168 121.404 7.15411 121.229 7.09819C120.829 6.93563 120.397 6.86267 119.964 6.8847C118.724 6.8847 118.348 7.18278 118.348 7.60574C118.348 7.90383 118.48 8.07704 118.873 8.11733L123.717 8.79809C125.784 9.09618 127.024 10.0347 127.024 11.6944C127.024 14.1113 124.957 15.2674 120.41 15.2674C117.31 15.2674 113.904 14.8404 113.863 11.9038H118.753C118.742 12.0532 118.778 12.2023 118.855 12.3316C118.933 12.4609 119.048 12.5645 119.187 12.6289C119.633 12.7908 120.108 12.8634 120.584 12.8424C121.853 12.8424 122.2 12.5 122.2 12.0368C122.2 11.7387 122.026 11.4406 121.46 11.356L116.785 10.7195L116.818 10.7236ZM67.421 7.48893H64.6021H64.5732V9.36204H67.4665C68.2518 9.36204 68.599 9.06395 68.599 8.42347C68.599 7.65811 68.0782 7.48893 67.421 7.48893ZM70.3805 11.8716L73.8277 14.9773H68.6693L65.2634 11.9119H64.5649V14.9773H60.5018V4.96728H69.0165C69.8527 4.92263 70.6886 5.06024 71.4634 5.37009C71.8986 5.61234 72.2584 5.96499 72.5044 6.39057C72.7504 6.81614 72.8734 7.29872 72.8605 7.78701C72.8605 7.86985 72.8633 7.96674 72.8664 8.07483C72.8984 9.18625 72.9646 11.4825 70.3805 11.8716ZM36.7889 4.97936H31.0684V14.9773H34.7801V7.83132L36.9625 14.9773H40.017L42.1581 7.83132H42.2036V14.9773H45.8698V4.97936H40.1948L38.4918 10.8082L36.7889 4.97936ZM53.2747 8.05156L52.0533 11.4043H54.4961L53.2747 8.05156ZM55.6824 4.97936H50.7224L46.341 14.9773H50.6934L51.1068 13.8293H55.3434L55.7816 14.9773H60.0472L55.6824 4.97936ZM74.0757 4.97936H78.1346V11.0217C78.1346 12.2946 78.8786 12.7216 80.2302 12.7216C81.5818 12.7216 82.3258 12.3187 82.3258 11.0217V4.97936H86.3889V11.1908C86.3889 14.3812 84.4214 15.3077 80.2344 15.3077C76.0473 15.3077 74.0757 14.3409 74.0757 11.1908V4.97936ZM87.1742 7.48893H90.9273V14.9773H94.9904V7.48893H98.7434V4.97936H87.1742V7.48893ZM103.633 4.97936H99.5742V14.9773H103.633V4.97936ZM132.19 4.97936H128.127V11.1908C128.127 14.3409 130.095 15.3197 134.286 15.3197C138.477 15.3197 140.44 14.3812 140.44 11.1908V4.97936H136.382V11.0217C136.382 12.3187 135.642 12.7216 134.286 12.7216C132.93 12.7216 132.19 12.2946 132.19 11.0217V4.97936ZM141.49 12.8505L147.645 7.48893H141.924V4.97936H153.105V7.15056L147.12 12.4678H152.973V14.9773H141.49V12.8505ZM158.255 4.97936H154.196V11.1788C154.196 14.3288 156.147 15.3077 160.351 15.3077C164.554 15.3077 166.505 14.3812 166.505 11.1908V4.97936H162.446V11.0217C162.446 12.3187 161.702 12.7216 160.351 12.7216C158.999 12.7216 158.255 12.2946 158.255 11.0217V4.97936ZM186.461 4.97936H182.402V14.9773H186.461V4.97936ZM172.184 14.9773H168.254V4.97936H172.184V8.42347L176.595 4.97936H181.526L175.59 9.87362L181.22 14.9773H176.07L172.098 11.4043L172.184 14.9773Z" fill="#171C8F"/>
</g>
<defs>
<clipPath id="clip0_16057_63655">
<rect width="186" height="20" fill="white" transform="translate(0.460938)"/>
</clipPath>
</defs>
</svg>
