<svg width="5" height="10" viewBox="0 0 5 10" fill="none" xmlns="http://www.w3.org/2000/svg">
<path d="M4.26751 3.58589L1.20751 0.525893C1.0826 0.401726 0.913635 0.332031 0.737511 0.332031C0.561388 0.332031 0.39242 0.401726 0.267511 0.525893C0.205026 0.587868 0.15543 0.661602 0.121584 0.742842C0.0877382 0.824081 0.0703125 0.911218 0.0703125 0.999226C0.0703125 1.08723 0.0877382 1.17437 0.121584 1.25561C0.15543 1.33685 0.205026 1.41058 0.267511 1.47256L3.33418 4.52589C3.39666 4.58787 3.44626 4.6616 3.48011 4.74284C3.51395 4.82408 3.53138 4.91122 3.53138 4.99923C3.53138 5.08723 3.51395 5.17437 3.48011 5.25561C3.44626 5.33685 3.39666 5.41059 3.33418 5.47256L0.267511 8.5259C0.141976 8.65055 0.0710991 8.81996 0.070474 8.99687C0.0698489 9.17378 0.139527 9.34369 0.264179 9.46923C0.38883 9.59476 0.558245 9.66564 0.735155 9.66627C0.912064 9.66689 1.08198 9.59721 1.20751 9.47256L4.26751 6.41256C4.64205 6.03756 4.85242 5.52923 4.85242 4.99923C4.85242 4.46923 4.64205 3.96089 4.26751 3.58589Z" fill="#66696B"/>
</svg>
