<svg width="17" height="16" viewBox="0 0 17 16" fill="none" xmlns="http://www.w3.org/2000/svg">
<path d="M16.8123 14.8755L12.833 10.8962C13.9174 9.56992 14.4506 7.87759 14.3222 6.16923C14.1939 4.46088 13.4138 2.86721 12.1434 1.71787C10.873 0.568533 9.20939 -0.0485453 7.49676 -0.0057241C5.78413 0.0370971 4.15347 0.736542 2.94208 1.94794C1.73068 3.15933 1.03124 4.78999 0.988417 6.50262C0.945595 8.21525 1.56267 9.87883 2.71201 11.1493C3.86135 12.4197 5.45502 13.1997 7.16337 13.3281C8.87173 13.4564 10.5641 12.9233 11.8903 11.8389L15.8697 15.8182C15.9954 15.9396 16.1638 16.0068 16.3386 16.0053C16.5134 16.0038 16.6806 15.9337 16.8042 15.8101C16.9278 15.6865 16.9979 15.5193 16.9995 15.3445C17.001 15.1697 16.9338 15.0013 16.8123 14.8755ZM7.67433 12.0135C6.6195 12.0135 5.58835 11.7007 4.71129 11.1147C3.83423 10.5287 3.15064 9.69571 2.74698 8.72117C2.34331 7.74663 2.23769 6.67428 2.44348 5.63971C2.64927 4.60515 3.15722 3.65484 3.9031 2.90896C4.64898 2.16308 5.59929 1.65513 6.63385 1.44934C7.66842 1.24355 8.74077 1.34917 9.71531 1.75284C10.6899 2.1565 11.5228 2.84009 12.1088 3.71715C12.6949 4.59421 13.0077 5.62536 13.0077 6.68019C13.0061 8.09419 12.4437 9.44983 11.4438 10.4497C10.444 11.4495 9.08833 12.0119 7.67433 12.0135Z" fill="#171C8F"/>
</svg>
