<svg width="30" height="30" viewBox="0 0 30 30" fill="none" xmlns="http://www.w3.org/2000/svg">
<path d="M0.5 4C0.5 2.067 2.067 0.5 4 0.5H26C27.933 0.5 29.5 2.067 29.5 4V26C29.5 27.933 27.933 29.5 26 29.5H4C2.067 29.5 0.5 27.933 0.5 26V4Z" fill="white"/>
<path d="M0.5 4C0.5 2.067 2.067 0.5 4 0.5H26C27.933 0.5 29.5 2.067 29.5 4V26C29.5 27.933 27.933 29.5 26 29.5H4C2.067 29.5 0.5 27.933 0.5 26V4Z" stroke="#171C8F"/>
<path d="M17.2675 13.5859L14.2075 10.5259C14.0826 10.4017 13.9136 10.332 13.7375 10.332C13.5614 10.332 13.3924 10.4017 13.2675 10.5259C13.205 10.5879 13.1554 10.6616 13.1216 10.7428C13.0877 10.8241 13.0703 10.9112 13.0703 10.9992C13.0703 11.0872 13.0877 11.1744 13.1216 11.2556C13.1554 11.3369 13.205 11.4106 13.2675 11.4726L16.3342 14.5259C16.3967 14.5879 16.4463 14.6616 16.4801 14.7428C16.514 14.8241 16.5314 14.9112 16.5314 14.9992C16.5314 15.0872 16.514 15.1744 16.4801 15.2556C16.4463 15.3369 16.3967 15.4106 16.3342 15.4726L13.2675 18.5259C13.142 18.6505 13.0711 18.82 13.0705 18.9969C13.0698 19.1738 13.1395 19.3437 13.2642 19.4692C13.3888 19.5948 13.5582 19.6656 13.7352 19.6663C13.9121 19.6669 14.082 19.5972 14.2075 19.4726L17.2675 16.4126C17.642 16.0376 17.8524 15.5292 17.8524 14.9992C17.8524 14.4692 17.642 13.9609 17.2675 13.5859Z" fill="#171C8F"/>
</svg>
