<svg width="30" height="30" viewBox="0 0 30 30" fill="none" xmlns="http://www.w3.org/2000/svg">
<path d="M0.5 4C0.5 2.067 2.067 0.5 4 0.5H26C27.933 0.5 29.5 2.067 29.5 4V26C29.5 27.933 27.933 29.5 26 29.5H4C2.067 29.5 0.5 27.933 0.5 26V4Z" fill="white"/>
<path d="M0.5 4C0.5 2.067 2.067 0.5 4 0.5H26C27.933 0.5 29.5 2.067 29.5 4V26C29.5 27.933 27.933 29.5 26 29.5H4C2.067 29.5 0.5 27.933 0.5 26V4Z" stroke="#171C8F"/>
<g clip-path="url(#clip0_16842_130752)">
<path d="M15.0008 8.33352C15.8851 8.33642 16.7601 8.51468 17.5751 8.85798C18.3901 9.20127 19.1289 9.7028 19.7488 10.3335H17.6675C17.4906 10.3335 17.3211 10.4038 17.196 10.5288C17.071 10.6538 17.0008 10.8234 17.0008 11.0002C17.0008 11.177 17.071 11.3466 17.196 11.4716C17.3211 11.5966 17.4906 11.6669 17.6675 11.6669H20.4295C20.7577 11.6667 21.0725 11.5362 21.3047 11.3041C21.5368 11.0719 21.6673 10.7571 21.6675 10.4289V7.66685C21.6675 7.49004 21.5972 7.32047 21.4722 7.19545C21.3472 7.07042 21.1776 7.00018 21.0008 7.00018C20.824 7.00018 20.6544 7.07042 20.5294 7.19545C20.4044 7.32047 20.3341 7.49004 20.3341 7.66685V9.05218C19.2322 8.05982 17.8758 7.39379 16.4169 7.12868C14.9579 6.86358 13.4539 7.00986 12.0733 7.55115C10.6927 8.09244 9.49013 9.00736 8.60013 10.1935C7.71012 11.3796 7.16788 12.79 7.03412 14.2669C7.02551 14.3597 7.03633 14.4533 7.06589 14.5417C7.09546 14.6302 7.14312 14.7115 7.20584 14.7804C7.26855 14.8494 7.34496 14.9046 7.43017 14.9424C7.51539 14.9803 7.60755 14.9999 7.70079 15.0002C7.86384 15.0023 8.02181 14.9434 8.14376 14.8351C8.26571 14.7269 8.34286 14.577 8.36012 14.4149C8.50853 12.7554 9.2721 11.2113 10.5008 10.0861C11.7296 8.96083 13.3347 8.33571 15.0008 8.33352Z" fill="#171C8F"/>
<path d="M22.3013 15.0001C22.1383 14.998 21.9803 15.0568 21.8583 15.1651C21.7364 15.2734 21.6592 15.4232 21.642 15.5854C21.5318 16.8542 21.0599 18.0648 20.2824 19.0735C19.5049 20.0823 18.4544 20.8468 17.2554 21.2764C16.0565 21.7061 14.7594 21.7828 13.5182 21.4975C12.277 21.2122 11.1436 20.5768 10.2527 19.6667H12.334C12.5108 19.6667 12.6804 19.5965 12.8054 19.4715C12.9304 19.3464 13.0007 19.1769 13.0007 19.0001C13.0007 18.8233 12.9304 18.6537 12.8054 18.5287C12.6804 18.4036 12.5108 18.3334 12.334 18.3334H9.57198C9.40938 18.3333 9.24836 18.3653 9.09812 18.4275C8.94788 18.4896 8.81137 18.5808 8.69639 18.6958C8.58141 18.8108 8.49023 18.9473 8.42804 19.0975C8.36586 19.2478 8.3339 19.4088 8.33398 19.5714V22.3334C8.33398 22.5102 8.40422 22.6798 8.52925 22.8048C8.65427 22.9298 8.82384 23.0001 9.00065 23.0001C9.17746 23.0001 9.34703 22.9298 9.47206 22.8048C9.59708 22.6798 9.66732 22.5102 9.66732 22.3334V20.9481C10.7692 21.9404 12.1256 22.6065 13.5846 22.8716C15.0436 23.1367 16.5476 22.9904 17.9281 22.4491C19.3087 21.9078 20.5113 20.9929 21.4013 19.8068C22.2913 18.6207 22.8336 17.2102 22.9673 15.7334C22.9759 15.6406 22.9651 15.5469 22.9355 15.4585C22.906 15.3701 22.8583 15.2888 22.7956 15.2198C22.7329 15.1508 22.6565 15.0956 22.5713 15.0578C22.4861 15.02 22.3939 15.0003 22.3007 15.0001H22.3013Z" fill="#171C8F"/>
</g>
<defs>
<clipPath id="clip0_16842_130752">
<rect width="16" height="16" fill="white" transform="translate(7 7)"/>
</clipPath>
</defs>
</svg>
