<svg width="20" height="19" viewBox="0 0 20 19" fill="none" xmlns="http://www.w3.org/2000/svg">
<path d="M20 9.3169C20 14.4545 15.8207 18.6338 10.6831 18.6338C6.16083 18.6338 2.37426 15.3775 1.54172 11.0878L1.23277 11.481C0.996738 11.7812 0.56218 11.832 0.263579 11.5969C-0.0357126 11.3611 -0.0881633 10.9277 0.147635 10.6277L1.51365 8.89017C1.62684 8.74593 1.79339 8.65299 1.97536 8.63136C2.15664 8.60767 2.34136 8.66173 2.48422 8.7756L4.2358 10.1612C4.53509 10.3977 4.5857 10.8318 4.34898 11.1304C4.11318 11.4297 3.67978 11.4814 3.3798 11.2435L2.90222 10.8658C3.6271 14.5001 6.84522 17.2535 10.6831 17.2535C15.0591 17.2535 18.6197 13.6929 18.6197 9.3169C18.6197 4.94095 15.0593 1.38028 10.6831 1.38028C10.3017 1.38028 9.99296 1.07156 9.99296 0.690141C9.99296 0.308723 10.3017 0 10.6831 0C15.8207 0 20 4.17926 20 9.3169Z" fill="#D83B01"/>
<path d="M7.74 0.986984C7.64292 0.618218 7.86261 0.240941 8.23138 0.143862C8.59462 0.0474718 8.97742 0.265786 9.0745 0.635242L9.16744 0.987674C9.26452 1.35644 9.04482 1.73372 8.67606 1.8308C8.31166 1.92719 7.93094 1.71163 7.83294 1.33942L7.74 0.986984Z" fill="#D83B01"/>
<path d="M5.67643 2.03582C5.48779 1.70432 5.60373 1.2831 5.93454 1.09424C6.26489 0.906287 6.68679 1.02085 6.87612 1.35235L7.05602 1.66843C7.24466 1.99993 7.12871 2.42115 6.7979 2.61002C6.46756 2.79796 6.04565 2.6834 5.85632 2.3519L5.67643 2.03582Z" fill="#D83B01"/>
<path d="M3.97833 3.58823C3.70872 3.31861 3.70872 2.88198 3.97833 2.61237C4.24795 2.34275 4.68458 2.34275 4.95419 2.61237L5.19873 2.85691C5.46835 3.12652 5.46835 3.56315 5.19873 3.83277C4.92912 4.10238 4.49249 4.10238 4.22287 3.83277L3.97833 3.58823Z" fill="#D83B01"/>
<path d="M2.46175 4.58056C2.64648 4.24768 3.06769 4.12828 3.40057 4.31439L3.70998 4.48693C4.04286 4.67234 4.16226 5.09287 3.97615 5.42575C3.79142 5.75748 3.37136 5.87802 3.03733 5.69191L2.72791 5.51938C2.39504 5.33396 2.27587 4.91343 2.46175 4.58056Z" fill="#D83B01"/>
<path d="M1.51263 6.85497C1.61178 6.48575 1.99458 6.26858 2.35851 6.36773L2.70358 6.46067C3.07235 6.55982 3.28997 6.93848 3.19082 7.30656C3.09075 7.67785 2.70864 7.8918 2.34494 7.7938L1.99987 7.70086C1.63133 7.60194 1.41371 7.22305 1.51263 6.85497Z" fill="#D83B01"/>
<path d="M8.83301 5.87109V13H7.53906V7.37988L5.8252 7.94629V6.90137L8.68652 5.87109H8.83301ZM11.9473 11.999H12.04C12.46 11.999 12.8148 11.9453 13.1045 11.8379C13.3975 11.7305 13.6335 11.5791 13.8125 11.3838C13.9948 11.1852 14.1266 10.9492 14.208 10.6758C14.2926 10.3991 14.335 10.0931 14.335 9.75781V8.46875C14.335 8.19531 14.3073 7.95605 14.252 7.75098C14.1966 7.54264 14.1185 7.36849 14.0176 7.22852C13.9199 7.08854 13.8044 6.98438 13.6709 6.91602C13.5374 6.8444 13.3942 6.80859 13.2412 6.80859C13.0719 6.80859 12.9222 6.84766 12.792 6.92578C12.6618 7.00391 12.5511 7.11133 12.46 7.24805C12.3721 7.38151 12.3037 7.53613 12.2549 7.71191C12.2093 7.8877 12.1865 8.07324 12.1865 8.26855C12.1865 8.45736 12.2077 8.63802 12.25 8.81055C12.2956 8.98307 12.3623 9.13607 12.4502 9.26953C12.5413 9.40299 12.6553 9.50879 12.792 9.58691C12.9287 9.66178 13.0882 9.69922 13.2705 9.69922C13.443 9.69922 13.5993 9.66667 13.7393 9.60156C13.8825 9.5332 14.0062 9.44368 14.1104 9.33301C14.2145 9.21908 14.2943 9.09375 14.3496 8.95703C14.4082 8.81706 14.4408 8.67546 14.4473 8.53223L14.9014 8.72754C14.9014 8.96517 14.8509 9.19954 14.75 9.43066C14.6523 9.66178 14.514 9.87174 14.335 10.0605C14.1592 10.2461 13.9541 10.3958 13.7197 10.5098C13.4854 10.6204 13.2331 10.6758 12.9629 10.6758C12.6276 10.6758 12.3314 10.6139 12.0742 10.4902C11.8171 10.3665 11.6006 10.1956 11.4248 9.97754C11.2523 9.75618 11.1221 9.50228 11.0342 9.21582C10.9463 8.92611 10.9023 8.61686 10.9023 8.28809C10.9023 7.94629 10.9561 7.62565 11.0635 7.32617C11.1709 7.02344 11.3255 6.75814 11.5273 6.53027C11.7324 6.29915 11.9798 6.11849 12.2695 5.98828C12.5592 5.85482 12.8848 5.78809 13.2461 5.78809C13.6204 5.78809 13.9541 5.86133 14.2471 6.00781C14.54 6.1543 14.7891 6.35775 14.9941 6.61816C15.1992 6.87533 15.3555 7.17969 15.4629 7.53125C15.5736 7.88281 15.6289 8.26693 15.6289 8.68359V9.1377C15.6289 9.57715 15.585 9.99382 15.4971 10.3877C15.4092 10.7816 15.2741 11.1413 15.0918 11.4668C14.9095 11.7923 14.6768 12.0739 14.3936 12.3115C14.1136 12.5492 13.7783 12.7331 13.3877 12.8633C13.0003 12.9902 12.5576 13.0537 12.0596 13.0537H11.9473V11.999Z" fill="#D83B01"/>
</svg>
