<svg width="12" height="24" viewBox="0 0 12 24" fill="none" xmlns="http://www.w3.org/2000/svg">
<path d="M0.999939 24.0002C0.868332 24.0009 0.73787 23.9757 0.616033 23.9259C0.494195 23.8762 0.383379 23.8028 0.289939 23.7102C0.196211 23.6172 0.121816 23.5066 0.0710478 23.3847C0.0202791 23.2629 -0.00585938 23.1322 -0.00585938 23.0002C-0.00585938 22.8681 0.0202791 22.7374 0.0710478 22.6156C0.121816 22.4937 0.196211 22.3831 0.289939 22.2902L8.45994 14.1202C9.02174 13.5577 9.3373 12.7952 9.3373 12.0002C9.3373 11.2052 9.02174 10.4427 8.45994 9.88017L0.289939 1.71018C0.101635 1.52188 -0.00415277 1.26649 -0.00415277 1.00018C-0.00415277 0.733883 0.101635 0.478489 0.289939 0.290185C0.478243 0.101882 0.733637 -0.00390625 0.999939 -0.00390625C1.26624 -0.00390625 1.52164 0.101882 1.70994 0.290185L9.87994 8.46017C10.3456 8.92463 10.715 9.47639 10.9671 10.0838C11.2191 10.6913 11.3489 11.3425 11.3489 12.0002C11.3489 12.6578 11.2191 13.3091 10.9671 13.9165C10.715 14.524 10.3456 15.0757 9.87994 15.5402L1.70994 23.7102C1.6165 23.8028 1.50568 23.8762 1.38385 23.9259C1.26201 23.9757 1.13155 24.0009 0.999939 24.0002Z" fill="#374957"/>
</svg>
