<svg width="17" height="16" viewBox="0 0 17 16" fill="none" xmlns="http://www.w3.org/2000/svg">
<path d="M16.5155 14.8755L12.5361 10.8962C13.6205 9.56992 14.1537 7.87759 14.0254 6.16923C13.897 4.46088 13.1169 2.86721 11.8465 1.71787C10.5761 0.568534 8.91252 -0.0485453 7.19989 -0.0057241C5.48725 0.0370971 3.85659 0.736542 2.6452 1.94794C1.43381 3.15933 0.734363 4.78999 0.691542 6.50262C0.64872 8.21525 1.2658 9.87883 2.41514 11.1493C3.56448 12.4197 5.15815 13.1997 6.8665 13.3281C8.57485 13.4564 10.2672 12.9233 11.5935 11.8389L15.5728 15.8182C15.6985 15.9396 15.8669 16.0068 16.0417 16.0053C16.2165 16.0038 16.3837 15.9337 16.5073 15.8101C16.6309 15.6865 16.7011 15.5193 16.7026 15.3445C16.7041 15.1697 16.6369 15.0013 16.5155 14.8755ZM7.37746 12.0135C6.32263 12.0135 5.29148 11.7007 4.41442 11.1147C3.53736 10.5287 2.85377 9.69571 2.4501 8.72117C2.04643 7.74663 1.94082 6.67428 2.1466 5.63971C2.35239 4.60515 2.86034 3.65484 3.60622 2.90896C4.3521 2.16308 5.30241 1.65513 6.33698 1.44934C7.37154 1.24355 8.4439 1.34917 9.41844 1.75284C10.393 2.1565 11.2259 2.84009 11.812 3.71715C12.398 4.59421 12.7108 5.62536 12.7108 6.68019C12.7092 8.09419 12.1468 9.44983 11.1469 10.4497C10.1471 11.4495 8.79146 12.0119 7.37746 12.0135Z" fill="#9598A1"/>
</svg>
