<svg width="17" height="16" viewBox="0 0 17 16" fill="none" xmlns="http://www.w3.org/2000/svg">
<path d="M12.5401 6.3485L10.1494 3.95783C9.70486 3.53358 9.11395 3.29687 8.49943 3.29688C7.88491 3.29688 7.29401 3.53358 6.84943 3.95783L4.45877 6.3485C4.27126 6.53609 4.16595 6.79049 4.16602 7.05573C4.16608 7.32097 4.2715 7.57532 4.4591 7.76283C4.6467 7.95034 4.9011 8.05564 5.16634 8.05558C5.43157 8.05552 5.68593 7.95009 5.87343 7.7625L7.49943 6.1365V12.6652C7.49943 12.9304 7.60479 13.1847 7.79233 13.3723C7.97986 13.5598 8.23422 13.6652 8.49943 13.6652C8.76465 13.6652 9.019 13.5598 9.20654 13.3723C9.39408 13.1847 9.49943 12.9304 9.49943 12.6652V6.1365L11.1254 7.7625C11.2183 7.85538 11.3285 7.92908 11.4498 7.97936C11.5712 8.02965 11.7012 8.05555 11.8325 8.05558C11.9639 8.05561 12.0939 8.02977 12.2153 7.97954C12.3366 7.92931 12.4469 7.85567 12.5398 7.76283C12.6327 7.66998 12.7063 7.55975 12.7566 7.43843C12.8069 7.31711 12.8328 7.18706 12.8329 7.05573C12.8329 6.9244 12.807 6.79435 12.7568 6.673C12.7066 6.55165 12.6329 6.44138 12.5401 6.3485Z" fill="#58A55C"/>
</svg>
