<svg width="20" height="16" viewBox="0 0 20 16" fill="none" xmlns="http://www.w3.org/2000/svg">
<path d="M0 8C0 3.58172 3.58172 0 8 0H12C16.4183 0 20 3.58172 20 8C20 12.4183 16.4183 16 12 16H8C3.58172 16 0 12.4183 0 8Z" fill="#343536"/>
<path d="M7.76678 5.41839H12.7634L12.083 5.95876C11.959 6.05669 11.8859 6.19236 11.8799 6.33593C11.8739 6.47949 11.9355 6.61919 12.0511 6.72428C12.1667 6.82938 12.3269 6.89127 12.4963 6.89634C12.6658 6.9014 12.8307 6.84923 12.9548 6.7513L14.8046 5.2743C14.8663 5.22239 14.9153 5.16066 14.9487 5.09265C14.9821 5.02464 14.9994 4.95169 14.9994 4.87803C14.9994 4.80436 14.9821 4.73141 14.9487 4.6634C14.9153 4.59539 14.8663 4.53366 14.8046 4.48175L12.9548 3.00475C12.8307 2.90682 12.6658 2.85465 12.4963 2.85971C12.3269 2.86478 12.1667 2.92667 12.0511 3.03177C11.9355 3.13686 11.8739 3.27656 11.8799 3.42012C11.8859 3.56369 11.959 3.69936 12.083 3.79729L12.7634 4.33766H7.76678C7.5976 4.33766 7.43536 4.39459 7.31573 4.49593C7.19611 4.59727 7.12891 4.73471 7.12891 4.87803C7.12891 5.02134 7.19611 5.15878 7.31573 5.26012C7.43536 5.36146 7.5976 5.41839 7.76678 5.41839Z" fill="white"/>
<path d="M7.04458 11.8568C7.106 11.9053 7.17811 11.943 7.25676 11.9679C7.33542 11.9928 7.41909 12.0043 7.50301 12.0018C7.58692 11.9993 7.66942 11.9828 7.74581 11.9533C7.8222 11.9238 7.89098 11.8818 7.94822 11.8298C8.00546 11.7777 8.05005 11.7166 8.07942 11.65C8.1088 11.5834 8.12239 11.5125 8.11943 11.4414C8.11647 11.3703 8.09701 11.3004 8.06216 11.2357C8.02731 11.171 7.97776 11.1127 7.91633 11.0642L7.23594 10.5239H12.2326C12.4018 10.5239 12.564 10.4669 12.6836 10.3656C12.8032 10.2643 12.8704 10.1268 12.8704 9.98349C12.8704 9.84018 12.8032 9.70273 12.6836 9.6014C12.564 9.50006 12.4018 9.44313 12.2326 9.44313H7.23594L7.91633 8.90276C8.04039 8.80483 8.11345 8.66916 8.11943 8.52559C8.12541 8.38203 8.06383 8.24233 7.94822 8.13724C7.83262 8.03214 7.67247 7.97025 7.50301 7.96518C7.33354 7.96011 7.16864 8.01228 7.04458 8.11022L5.19476 9.58722C5.13304 9.63913 5.08406 9.70086 5.05063 9.76887C5.01721 9.83688 5 9.90982 5 9.98349C5 10.0572 5.01721 10.1301 5.05063 10.1981C5.08406 10.2661 5.13304 10.3279 5.19476 10.3798L7.04458 11.8568Z" fill="white"/>
</svg>
