<svg width="10" height="10" viewBox="0 0 10 10" fill="none" xmlns="http://www.w3.org/2000/svg">
<g clip-path="url(#clip0_22969_26496)">
<path d="M5 0C4.0111 0 3.0444 0.293245 2.22215 0.842652C1.39991 1.39206 0.759043 2.17295 0.380605 3.08658C0.00216643 4.00021 -0.0968503 5.00555 0.0960758 5.97545C0.289002 6.94536 0.765206 7.83627 1.46447 8.53553C2.16373 9.2348 3.05465 9.711 4.02455 9.90393C4.99446 10.0969 5.99979 9.99784 6.91342 9.6194C7.82705 9.24096 8.60794 8.6001 9.15735 7.77785C9.70676 6.95561 10 5.98891 10 5C9.99857 3.67436 9.47132 2.40342 8.53395 1.46605C7.59658 0.528678 6.32564 0.00143378 5 0V0ZM5 9.16667C4.17591 9.16667 3.37033 8.9223 2.68513 8.46446C1.99992 8.00662 1.46587 7.35587 1.1505 6.59451C0.835139 5.83316 0.752625 4.99538 0.913397 4.18712C1.07417 3.37887 1.47101 2.63644 2.05372 2.05372C2.63644 1.471 3.37887 1.07417 4.18713 0.913395C4.99538 0.752623 5.83316 0.835137 6.59452 1.1505C7.35588 1.46587 8.00662 1.99992 8.46446 2.68512C8.9223 3.37033 9.16667 4.17591 9.16667 5C9.16546 6.1047 8.72608 7.1638 7.94494 7.94494C7.1638 8.72608 6.1047 9.16545 5 9.16667Z" fill="#66696B"/>
<path d="M5.00002 2.5C4.88951 2.5 4.78353 2.5439 4.70539 2.62204C4.62725 2.70018 4.58335 2.80616 4.58335 2.91667V4.71875L3.17877 5.59875C3.08484 5.65742 3.01806 5.75101 2.99314 5.85893C2.96821 5.96684 2.98717 6.08023 3.04585 6.17416C3.10453 6.26809 3.19812 6.33487 3.30603 6.35979C3.41394 6.38472 3.52734 6.36576 3.62127 6.30708L5.22127 5.30708C5.28172 5.2692 5.33144 5.21644 5.36565 5.15384C5.39987 5.09125 5.41744 5.02091 5.41669 4.94958V2.91667C5.41669 2.80616 5.37279 2.70018 5.29465 2.62204C5.21651 2.5439 5.11053 2.5 5.00002 2.5Z" fill="#66696B"/>
</g>
<defs>
<clipPath id="clip0_22969_26496">
<rect width="10" height="10" fill="white"/>
</clipPath>
</defs>
</svg>
