<svg width="16" height="16" viewBox="0 0 16 16" fill="none" xmlns="http://www.w3.org/2000/svg">
<path d="M3.52646 10.5255C3.58844 10.5879 3.66217 10.6375 3.74341 10.6714C3.82465 10.7052 3.91179 10.7227 3.9998 10.7227C4.0878 10.7227 4.17494 10.7052 4.25618 10.6714C4.33742 10.6375 4.41115 10.5879 4.47313 10.5255L7.52646 7.47213C7.58844 7.40965 7.66217 7.36005 7.74341 7.3262C7.82465 7.29236 7.91179 7.27493 7.9998 7.27493C8.0878 7.27493 8.17494 7.29236 8.25618 7.3262C8.33742 7.36005 8.41116 7.40965 8.47313 7.47213L11.5265 10.5255C11.5884 10.5879 11.6622 10.6375 11.7434 10.6714C11.8247 10.7052 11.9118 10.7227 11.9998 10.7227C12.0878 10.7227 12.1749 10.7052 12.2562 10.6714C12.3374 10.6375 12.4112 10.5879 12.4731 10.5255C12.5973 10.4005 12.667 10.2316 12.667 10.0555C12.667 9.87934 12.5973 9.71037 12.4731 9.58546L9.41313 6.52547C9.03813 6.15093 8.5298 5.94056 7.9998 5.94056C7.4698 5.94056 6.96146 6.15093 6.58646 6.52547L3.52646 9.58546C3.4023 9.71037 3.3326 9.87934 3.3326 10.0555C3.3326 10.2316 3.4023 10.4005 3.52646 10.5255Z" fill="#171C8F"/>
</svg>
