<svg width="8" height="4" viewBox="0 0 8 4" fill="none" xmlns="http://www.w3.org/2000/svg">
<path d="M1.20493 3.99992H6.79494C6.89382 3.99951 6.99036 3.96978 7.07236 3.9145C7.15435 3.85922 7.21811 3.78087 7.25557 3.68935C7.29303 3.59783 7.30252 3.49726 7.28282 3.40036C7.26313 3.30345 7.21515 3.21456 7.14494 3.14493L4.35494 0.35493C4.30845 0.308066 4.25315 0.270869 4.19222 0.245485C4.13129 0.2201 4.06594 0.207031 3.99994 0.207031C3.93393 0.207031 3.86858 0.2201 3.80765 0.245485C3.74672 0.270869 3.69142 0.308066 3.64494 0.35493L0.854935 3.14493C0.784724 3.21456 0.736739 3.30345 0.717046 3.40036C0.697354 3.49726 0.706838 3.59783 0.744301 3.68935C0.781764 3.78087 0.845522 3.85922 0.927514 3.9145C1.00951 3.96978 1.10605 3.99951 1.20493 3.99992Z" fill="#30C030"/>
</svg>
